<svg width="24" height="25" viewBox="0 0 24 25" fill="none" xmlns="http://www.w3.org/2000/svg">
<mask id="mask0_572_489" style="mask-type:alpha" maskUnits="userSpaceOnUse" x="0" y="0" width="24" height="25">
<rect y="0.5" width="24" height="24" fill="#D9D9D9"/>
</mask>
<g mask="url(#mask0_572_489)">
<path d="M8 7.5C7.71667 7.5 7.47917 7.40417 7.2875 7.2125C7.09583 7.02083 7 6.78333 7 6.5C7 6.21667 7.09583 5.97917 7.2875 5.7875C7.47917 5.59583 7.71667 5.5 8 5.5H11V3.5C11 3.21667 11.0958 2.97917 11.2875 2.7875C11.4792 2.59583 11.7167 2.5 12 2.5C12.2833 2.5 12.5208 2.59583 12.7125 2.7875C12.9042 2.97917 13 3.21667 13 3.5V5.5H16C16.2833 5.5 16.5208 5.59583 16.7125 5.7875C16.9042 5.97917 17 6.21667 17 6.5C17 6.78333 16.9042 7.02083 16.7125 7.2125C16.5208 7.40417 16.2833 7.5 16 7.5H8ZM9 22.5C8.45 22.5 7.97917 22.3042 7.5875 21.9125C7.19583 21.5208 7 21.05 7 20.5V11.5C7 10.6667 7.29167 9.95833 7.875 9.375C8.45833 8.79167 9.16667 8.5 10 8.5H14C14.8333 8.5 15.5417 8.79167 16.125 9.375C16.7083 9.95833 17 10.6667 17 11.5V20.5C17 21.05 16.8042 21.5208 16.4125 21.9125C16.0208 22.3042 15.55 22.5 15 22.5H9ZM9 20.5H15V11.5C15 11.2167 14.9042 10.9792 14.7125 10.7875C14.5208 10.5958 14.2833 10.5 14 10.5H10C9.71667 10.5 9.47917 10.5958 9.2875 10.7875C9.09583 10.9792 9 11.2167 9 11.5V12.5H11C11.2833 12.5 11.5208 12.5958 11.7125 12.7875C11.9042 12.9792 12 13.2167 12 13.5C12 13.7833 11.9042 14.0208 11.7125 14.2125C11.5208 14.4042 11.2833 14.5 11 14.5H9V16.5H11C11.2833 16.5 11.5208 16.5958 11.7125 16.7875C11.9042 16.9792 12 17.2167 12 17.5C12 17.7833 11.9042 18.0208 11.7125 18.2125C11.5208 18.4042 11.2833 18.5 11 18.5H9V20.5Z" fill="white"/>
</g>
</svg>
