<svg width="32" height="38" viewBox="0 0 32 38" fill="none" xmlns="http://www.w3.org/2000/svg">
<path d="M26.7545 20.0809C26.7375 16.9674 28.1488 14.6174 31.0053 12.8867C29.407 10.6046 26.9925 9.34899 23.8045 9.10298C20.7864 8.86548 17.4878 10.8591 16.2806 10.8591C15.0053 10.8591 12.0808 9.18787 9.78533 9.18787C5.04145 9.26418 0 12.9631 0 20.4881C0 22.7109 0.408077 25.0071 1.22423 27.3769C2.31243 30.4904 6.24017 38.1257 10.338 37.9984C12.4804 37.9476 13.9936 36.4799 16.7822 36.4799C19.4856 36.4799 20.8884 37.9984 23.2774 37.9984C27.4092 37.9391 30.9628 30.9994 32 27.8774C26.457 25.2729 26.7545 20.2421 26.7545 20.0809ZM21.9426 6.15068C24.2636 3.40196 24.051 0.899271 23.983 0C21.9341 0.118771 19.5622 1.39133 18.2105 2.96081C16.7227 4.64058 15.847 6.71908 16.034 9.06057C18.2529 9.23028 20.2763 8.09347 21.9426 6.15068Z" fill="white"/>
</svg>
