<svg width="38" height="38" viewBox="0 0 38 38" fill="none" xmlns="http://www.w3.org/2000/svg">
<path d="M38 19.4222C38 17.86 37.8707 16.7199 37.5907 15.5377H19.3875V22.5888H30.0724C29.857 24.3412 28.6937 26.9801 26.1086 28.7533L26.0723 28.9895L31.8279 33.359L32.2266 33.3979C35.8888 30.0835 38 25.2067 38 19.4222Z" fill="#4285F4"/>
<path d="M19.3863 38.0002C24.621 38.0002 29.0155 36.3112 32.2255 33.3979L26.1074 28.7532C24.4702 29.8722 22.2729 30.6532 19.3863 30.6532C14.2594 30.6532 9.90785 27.3389 8.35668 22.7577L8.12931 22.7765L2.14467 27.3155L2.06641 27.5288C5.25462 33.7356 11.8035 38.0002 19.3863 38.0002Z" fill="#34A853"/>
<path d="M8.35829 22.7581C7.949 21.5759 7.71212 20.3091 7.71212 19.0003C7.71212 17.6913 7.949 16.4247 8.33676 15.2424L8.32591 14.9906L2.26627 10.3788L2.06801 10.4712C0.753997 13.0468 0 15.9391 0 19.0003C0 22.0614 0.753997 24.9536 2.06801 27.5292L8.35829 22.7581Z" fill="#FBBC05"/>
<path d="M19.3865 7.34671C23.0271 7.34671 25.4828 8.88783 26.8832 10.1757L32.3548 4.94006C28.9944 1.87892 24.6212 0 19.3865 0C11.8035 0 5.25466 4.26447 2.06643 10.4711L8.3352 15.2424C9.90793 10.6612 14.2594 7.34671 19.3865 7.34671Z" fill="#EB4335"/>
</svg>
