<svg width="16" height="22" viewBox="0 0 16 22" fill="none" xmlns="http://www.w3.org/2000/svg">
<path d="M2 21.7397C1.45 21.7397 0.979167 21.5439 0.5875 21.1522C0.195833 20.7606 0 20.2897 0 19.7397V9.73975C0 9.18975 0.195833 8.71891 0.5875 8.32725C0.979167 7.93558 1.45 7.73975 2 7.73975H3V5.73975C3 4.35641 3.4875 3.17725 4.4625 2.20225C5.4375 1.22725 6.61667 0.739746 8 0.739746C9.38333 0.739746 10.5625 1.22725 11.5375 2.20225C12.5125 3.17725 12.9959 4.18733 12.9959 5.57066H10.9959L13 7.73975H14C14.55 7.73975 15.0208 7.93558 15.4125 8.32725C15.8042 8.71891 16 9.18975 16 9.73975V19.7397C16 20.2897 15.8042 20.7606 15.4125 21.1522C15.0208 21.5439 14.55 21.7397 14 21.7397H2ZM2 19.7397H14V9.73975H2V19.7397ZM8 16.7397C8.55 16.7397 9.02083 16.5439 9.4125 16.1522C9.80417 15.7606 10 15.2897 10 14.7397C10 14.1897 9.80417 13.7189 9.4125 13.3272C9.02083 12.9356 8.55 12.7397 8 12.7397C7.45 12.7397 6.97917 12.9356 6.5875 13.3272C6.19583 13.7189 6 14.1897 6 14.7397C6 15.2897 6.19583 15.7606 6.5875 16.1522C6.97917 16.5439 7.45 16.7397 8 16.7397ZM5 7.73975H11H13L10.9959 5.57066C10.9959 4.73733 10.7083 4.19808 10.125 3.61475C9.54167 3.03141 8.83333 2.73975 8 2.73975C7.16667 2.73975 6.45833 3.03141 5.875 3.61475C5.29167 4.19808 5 4.90641 5 5.73975V7.73975Z" fill="white"/>
</svg>
