<svg width="625" height="540" viewBox="0 0 625 540" fill="none" xmlns="http://www.w3.org/2000/svg">
<path d="M312.5 540C485.089 540 625 469.037 625 381.5C625 293.963 485.089 223 312.5 223C139.911 223 0 293.963 0 381.5C0 469.037 139.911 540 312.5 540Z" fill="url(#paint0_linear_940_1528)"/>
<path d="M404.912 348.247C419.719 348.247 431.722 342.124 431.722 334.571C431.722 327.018 419.719 320.895 404.912 320.895C390.105 320.895 378.101 327.018 378.101 334.571C378.101 342.124 390.105 348.247 404.912 348.247Z" fill="#262626" fill-opacity="0.85"/>
<path d="M101.843 354.88C112.619 354.88 121.355 350.424 121.355 344.928C121.355 339.431 112.619 334.976 101.843 334.976C91.0676 334.976 82.3322 339.431 82.3322 344.928C82.3322 350.424 91.0676 354.88 101.843 354.88Z" fill="#262626" fill-opacity="0.85"/>
<path d="M116.753 336.531L126.238 330.674C131.534 326.048 135.565 319.977 137.905 313.102C140.834 304.459 140.425 297.89 138.325 294.593C135.747 290.534 129.062 291.246 128.793 299.788C128.233 316.624 123.648 328.301 116.753 336.531Z" fill="#3FCFFF"/>
<path opacity="0.2" d="M116.753 336.531L126.238 330.674C131.534 326.048 135.565 319.977 137.905 313.102C140.834 304.459 140.425 297.89 138.325 294.593C135.747 290.534 129.062 291.246 128.793 299.788C128.233 316.624 123.648 328.301 116.753 336.531Z" fill="white"/>
<path d="M116.752 337.156C116.628 337.154 116.508 337.111 116.409 337.031C116.31 336.952 116.238 336.841 116.201 336.715C116.165 336.589 116.167 336.453 116.207 336.328C116.247 336.203 116.324 336.095 116.425 336.019C138.359 319.783 134.112 297.141 134.065 296.916C134.049 296.834 134.049 296.749 134.063 296.667C134.077 296.585 134.107 296.506 134.15 296.436C134.192 296.366 134.248 296.305 134.312 296.258C134.377 296.211 134.45 296.178 134.526 296.16C134.603 296.143 134.682 296.142 134.759 296.158C134.836 296.173 134.909 296.205 134.975 296.25C135.04 296.296 135.097 296.356 135.141 296.425C135.185 296.494 135.216 296.572 135.232 296.654C135.232 296.891 139.712 320.308 117.125 337.043C117.015 337.124 116.884 337.163 116.752 337.156Z" fill="white"/>
<path d="M97.747 348.284C97.747 348.284 94.4452 345.411 95.2386 341.514C96.032 337.618 98.167 334.82 94.5153 329.8C90.8635 324.779 89.8485 318.085 94.2119 314.463C97.537 311.653 102.729 315.625 104.596 308.219C105.972 302.798 105.506 290.796 111.957 286.8C118.409 282.803 122.458 288.823 121.443 296.966C120.556 304.247 119.296 311.253 120.276 313.202C122.166 316.948 125.398 316.436 125.246 323.28C125.118 329.65 119.483 334.92 119.483 334.92L97.747 348.284Z" fill="#3FCFFF"/>
<path d="M108.585 342.177C108.443 342.175 108.305 342.119 108.198 342.018C108.091 341.917 108.022 341.778 108.002 341.627C106.334 326.827 110.335 301.275 113.602 293.681C113.63 293.597 113.674 293.52 113.731 293.456C113.789 293.391 113.859 293.341 113.936 293.308C114.014 293.274 114.097 293.259 114.18 293.264C114.263 293.268 114.345 293.291 114.419 293.332C114.488 293.365 114.551 293.413 114.603 293.473C114.655 293.533 114.695 293.604 114.721 293.681C114.747 293.757 114.759 293.839 114.755 293.921C114.751 294.002 114.732 294.082 114.699 294.156C111.467 301.649 107.605 327.277 109.204 341.427C109.22 341.591 109.175 341.755 109.079 341.884C108.983 342.013 108.843 342.095 108.69 342.114L108.585 342.177Z" fill="white"/>
<path d="M108.271 330.649C108.181 330.654 108.093 330.632 108.014 330.587C103.966 328.476 101.399 320.945 101.294 320.595C101.265 320.518 101.252 320.435 101.253 320.351C101.255 320.268 101.273 320.186 101.305 320.109C101.337 320.033 101.383 319.965 101.44 319.908C101.498 319.851 101.565 319.808 101.638 319.779C101.712 319.751 101.789 319.738 101.867 319.743C101.945 319.747 102.021 319.768 102.092 319.805C102.162 319.841 102.224 319.893 102.276 319.955C102.327 320.018 102.366 320.091 102.391 320.171C102.391 320.246 104.899 327.539 108.527 329.425C108.646 329.487 108.742 329.59 108.799 329.718C108.856 329.845 108.871 329.99 108.841 330.128C108.812 330.266 108.739 330.389 108.635 330.477C108.531 330.565 108.403 330.612 108.271 330.612V330.649Z" fill="white"/>
<path d="M108.2 335.645C108.083 335.645 107.969 335.607 107.873 335.535C107.777 335.464 107.704 335.362 107.663 335.245C107.605 335.093 107.605 334.922 107.664 334.77C107.723 334.618 107.836 334.497 107.978 334.433C114.791 331.511 119.038 322.831 119.085 322.731C119.156 322.584 119.279 322.472 119.427 322.422C119.574 322.372 119.735 322.386 119.872 322.463C120.01 322.539 120.114 322.67 120.161 322.828C120.208 322.986 120.194 323.158 120.123 323.306C119.937 323.68 115.632 332.497 108.456 335.595C108.376 335.635 108.288 335.653 108.2 335.645Z" fill="white"/>
<path d="M346.358 268.453C346.358 268.453 341.26 259.611 340.758 250.007C340.256 240.403 342.228 236.406 344.935 235.257C347.642 234.108 347.852 237.643 349.24 239.728C350.628 241.814 353.463 240.628 354.514 234.121C355.564 227.614 359.39 216.636 367.347 214.5C376.097 212.177 371.407 223.168 369.202 227.452C366.997 231.735 365.294 237.58 366.74 239.166C368.187 240.753 370.439 237.818 372.574 240.54C375.176 243.825 367.091 255.652 362.447 258.512L346.358 268.453Z" fill="#3FCFFF"/>
<path d="M353.348 264.744C353.271 264.741 353.196 264.721 353.126 264.687C353.057 264.653 352.994 264.604 352.942 264.544C352.89 264.483 352.85 264.413 352.823 264.335C352.797 264.258 352.785 264.177 352.788 264.095C353.578 248.645 358.079 233.675 365.855 220.632C365.899 220.564 365.955 220.507 366.021 220.463C366.086 220.419 366.159 220.39 366.236 220.377C366.312 220.364 366.39 220.368 366.465 220.388C366.54 220.408 366.61 220.445 366.671 220.495C366.794 220.592 366.876 220.737 366.9 220.898C366.924 221.059 366.888 221.224 366.8 221.357C359.163 234.209 354.743 248.948 353.966 264.157C353.962 264.239 353.942 264.319 353.909 264.393C353.875 264.467 353.828 264.533 353.771 264.588C353.713 264.642 353.646 264.684 353.574 264.711C353.501 264.738 353.424 264.749 353.348 264.744Z" fill="white"/>
<path d="M354.013 257.363C353.915 257.362 353.819 257.336 353.733 257.288C350.466 255.352 348.658 249.607 348.588 249.37C348.562 249.292 348.551 249.209 348.555 249.127C348.559 249.044 348.579 248.964 348.613 248.889C348.646 248.815 348.693 248.748 348.751 248.694C348.809 248.639 348.876 248.597 348.949 248.57C349.096 248.519 349.256 248.533 349.394 248.608C349.532 248.682 349.636 248.813 349.684 248.97C349.684 248.97 351.434 254.503 354.351 256.189C354.483 256.272 354.58 256.407 354.621 256.566C354.663 256.724 354.645 256.893 354.573 257.038C354.52 257.146 354.439 257.234 354.339 257.292C354.239 257.349 354.126 257.374 354.013 257.363Z" fill="white"/>
<path d="M354.584 253.579C354.455 253.577 354.33 253.53 354.229 253.444C354.127 253.358 354.055 253.239 354.024 253.104C354.005 253.025 354.001 252.943 354.012 252.863C354.022 252.782 354.048 252.705 354.087 252.635C354.126 252.565 354.178 252.505 354.239 252.456C354.301 252.408 354.37 252.374 354.444 252.355C362.868 250.069 365.785 245.348 365.808 245.298C365.849 245.229 365.903 245.168 365.966 245.121C366.029 245.074 366.101 245.04 366.176 245.022C366.251 245.004 366.329 245.002 366.405 245.016C366.481 245.03 366.554 245.061 366.619 245.105C366.684 245.149 366.74 245.207 366.785 245.274C366.829 245.342 366.86 245.418 366.877 245.499C366.894 245.579 366.896 245.663 366.882 245.744C366.869 245.825 366.841 245.903 366.8 245.973C366.671 246.185 363.638 251.143 354.736 253.566L354.584 253.579Z" fill="white"/>
<path d="M219.422 249.045C219.422 249.045 208.233 246.123 207.65 223.692C207.032 199.488 210.392 171.238 197.15 168.953C183.908 166.667 176.558 183.939 176.721 204.109C176.873 221.769 183.523 260.111 219.375 267.629L219.422 249.045Z" fill="#3FCFFF"/>
<path opacity="0.2" d="M219.422 249.045C219.422 249.045 208.233 246.123 207.65 223.692C207.032 199.488 210.392 171.238 197.15 168.953C183.908 166.667 176.558 183.939 176.721 204.109C176.873 221.769 183.523 260.111 219.375 267.629L219.422 249.045Z" fill="white"/>
<path d="M219.422 265.331H219.317C211.255 263.757 204.686 258.999 199.798 251.206C185.307 228.064 189.869 184.851 191.374 177.308C191.408 177.147 191.498 177.007 191.627 176.916C191.755 176.825 191.911 176.791 192.063 176.821C192.214 176.86 192.345 176.959 192.43 177.098C192.514 177.238 192.546 177.407 192.518 177.57C191.036 185.064 186.497 227.726 200.766 250.506C202.843 254.039 205.583 257.071 208.813 259.41C212.042 261.75 215.691 263.345 219.527 264.095C219.603 264.11 219.675 264.141 219.74 264.186C219.805 264.231 219.861 264.29 219.904 264.358C219.948 264.427 219.978 264.504 219.993 264.585C220.008 264.667 220.008 264.75 219.993 264.831C219.968 264.974 219.897 265.102 219.793 265.193C219.688 265.285 219.557 265.333 219.422 265.331Z" fill="white"/>
<path d="M219.421 322.894C207.859 324.567 189.087 324.542 178.248 315.4C167.409 306.258 169.673 298.39 173.838 295.105C178.003 291.821 181.62 288.074 174.456 280.78C167.293 273.487 155.789 261.772 152.056 244.2C148.322 226.627 150.166 215.637 157.492 211.978C164.598 208.431 166.476 214.076 170.828 225.716C175.18 237.356 184.968 227.377 193.345 231.011C201.722 234.645 201.384 241.839 201.909 248.021C202.434 254.203 205.199 255.914 209.947 255.914C214.696 255.914 219.421 258.837 219.421 264.657V322.894Z" fill="#3FFF79"/>
<path d="M219.423 302.486C219.373 302.498 219.321 302.498 219.271 302.486C218.769 302.336 206.811 298.615 189.392 281.492C170.841 263.258 162.091 235.907 161.998 235.632C161.953 235.475 161.967 235.305 162.037 235.158C162.106 235.011 162.226 234.899 162.371 234.845C162.517 234.793 162.675 234.805 162.813 234.877C162.95 234.95 163.056 235.077 163.106 235.232C163.188 235.507 171.857 262.558 190.185 280.568C207.359 297.466 219.458 301.25 219.586 301.287C219.66 301.31 219.728 301.348 219.788 301.4C219.848 301.451 219.897 301.515 219.934 301.586C219.971 301.658 219.994 301.737 220.003 301.819C220.011 301.9 220.004 301.983 219.983 302.062C219.945 302.188 219.87 302.297 219.769 302.374C219.668 302.45 219.546 302.49 219.423 302.486Z" fill="white"/>
<path d="M194.256 285.838C194.139 285.84 194.024 285.802 193.928 285.731C193.832 285.659 193.759 285.557 193.72 285.438C189.975 275.147 189.123 253.129 189.053 252.192C189.05 252.028 189.106 251.868 189.21 251.747C189.315 251.626 189.459 251.553 189.613 251.543C189.765 251.545 189.911 251.608 190.023 251.718C190.135 251.829 190.205 251.98 190.22 252.142C190.22 252.367 191.095 274.885 194.77 284.989C194.798 285.066 194.811 285.148 194.809 285.231C194.808 285.313 194.79 285.395 194.759 285.47C194.728 285.546 194.682 285.614 194.626 285.671C194.57 285.727 194.504 285.772 194.431 285.801C194.375 285.822 194.316 285.835 194.256 285.838Z" fill="white"/>
<path d="M194.163 300.638C193.088 300.647 192.012 300.588 190.943 300.463C190.867 300.453 190.793 300.427 190.725 300.387C190.658 300.346 190.599 300.292 190.551 300.227C190.504 300.162 190.468 300.088 190.448 300.008C190.427 299.929 190.421 299.845 190.43 299.763C190.439 299.681 190.463 299.602 190.501 299.53C190.539 299.458 190.59 299.395 190.65 299.344C190.711 299.293 190.78 299.255 190.855 299.233C190.929 299.211 191.007 299.204 191.083 299.214C191.188 299.214 202.05 300.538 207.032 295.105C207.084 295.039 207.148 294.986 207.22 294.948C207.292 294.91 207.371 294.888 207.451 294.884C207.531 294.88 207.612 294.894 207.687 294.925C207.762 294.956 207.83 295.003 207.887 295.063C207.944 295.124 207.989 295.196 208.019 295.276C208.049 295.356 208.063 295.442 208.061 295.528C208.058 295.614 208.039 295.698 208.005 295.776C207.97 295.854 207.921 295.923 207.86 295.979C204.255 299.963 197.967 300.638 194.163 300.638Z" fill="white"/>
<path d="M237.865 64.1441L236.605 56.3633L230.118 60.9343C229.526 59.6855 228.686 58.5901 227.657 57.7247L230.76 48.7325L224.927 47.3462L220.656 56.0886C219.112 56.3676 217.614 56.8894 216.211 57.6372L214.356 51.043L207.426 56.8754L207.881 64.6186C206.47 66.3109 205.19 68.1237 204.054 70.0389L198.338 69.7267L194.324 79.3558L199.236 81.6038C198.723 83.5955 198.399 85.6374 198.268 87.6985L192.026 93.8432L193.274 101.636L199.773 97.0654C200.362 98.3131 201.203 99.4051 202.234 100.263L199.189 109.267L205.023 110.641L211.136 104.272C212.548 104.034 212.198 101.187 213.738 100.375L215.593 106.944L222.511 101.124L222.336 98.077C223.737 96.4034 229.033 92.7191 230.177 90.7958L231.612 88.298L235.625 78.6689L233.758 75.047L231.682 70.3262L237.865 64.1441ZM216.69 89.7592C211.37 94.2303 209.689 95.217 208.791 89.2347C207.893 83.2524 210.938 74.1603 216.258 69.6767C221.578 65.1931 223.608 64.8809 224.565 70.8507C225.522 76.8205 222.021 85.3381 216.69 89.7592Z" fill="#E0E0E0"/>
<path d="M224.974 47.3462L232.545 52.0171L228.275 60.7345L220.704 56.0636L224.974 47.3462Z" fill="#F5F5F5"/>
<path d="M244.177 61.0343L237.69 65.6054L230.119 60.9344L236.605 56.3634L244.177 61.0343Z" fill="#F5F5F5"/>
<path d="M243.138 83.3024L238.227 81.0668L230.655 76.3959L235.567 78.6314L243.138 83.3024Z" fill="#E0E0E0"/>
<path d="M199.178 109.267L206.75 113.926L209.853 104.933L202.282 100.262L199.178 109.267Z" fill="#E0E0E0"/>
<path d="M223.095 111.615L215.535 106.944L213.68 100.375L221.252 105.046L223.095 111.615Z" fill="#E0E0E0"/>
<path d="M245.426 68.8151L244.177 61.0344L237.691 65.6054C237.094 64.356 236.25 63.2607 235.217 62.3957L238.321 53.4035L232.545 52.0172L228.264 60.7596C226.719 61.0386 225.221 61.5604 223.819 62.3082L221.975 55.739L215.045 61.5714L215.5 69.3146C214.087 71.0188 212.807 72.8442 211.673 74.7724L205.945 74.4601L201.931 84.0893L206.843 86.3373C206.335 88.3343 206.011 90.3798 205.875 92.4445L199.645 98.5017L200.893 106.295L207.38 101.724C207.977 102.97 208.821 104.061 209.853 104.921L206.75 113.913L212.583 115.3L216.853 106.557C218.404 106.281 219.907 105.755 221.31 104.996L223.154 111.565L230.084 105.745L229.629 98.0021C231.04 96.3099 232.32 94.4971 233.456 92.5818L239.184 92.8816L243.197 83.2525L238.216 81.0169C238.732 79.0214 239.06 76.9754 239.196 74.9098L245.426 68.8151ZM224.274 94.4802C218.965 98.9513 213.878 97.7399 212.91 91.7701C211.942 85.8003 215.477 77.3202 220.797 72.8491C226.117 68.378 231.192 69.6019 232.16 75.5717C233.129 81.5415 229.594 90.0091 224.274 94.4802Z" fill="#EBEBEB"/>
<path d="M221.976 55.7139L214.404 51.043L207.474 56.8754L215.046 61.5463L221.976 55.7139Z" fill="#F5F5F5"/>
<path d="M207.474 56.8755L207.929 64.6187L215.501 69.2897L215.046 61.5464L207.474 56.8755Z" fill="#E0E0E0"/>
<path d="M211.673 74.7099L204.102 70.039L198.385 69.7393L205.945 74.4102L211.673 74.7099Z" fill="#F5F5F5"/>
<path d="M198.384 69.7393L194.37 79.3559L201.93 84.0268L205.944 74.4102L198.384 69.7393Z" fill="#E0E0E0"/>
<path d="M205.875 92.3694L198.315 87.6985L192.073 93.8431L199.633 98.514L205.875 92.3694Z" fill="#F5F5F5"/>
<path d="M200.893 106.307L193.321 101.636L192.073 93.8431L199.633 98.5141L200.893 106.307Z" fill="#E0E0E0"/>
<path d="M232.546 52.0171L224.974 47.3462L230.761 48.7325L238.321 53.4034L232.546 52.0171Z" fill="#F5F5F5"/>
<path d="M203.961 28.8249V17.1975L195.316 21.3689C194.858 19.3962 194.068 17.5296 192.983 15.8612L198.431 4.10892L191.781 0L184.991 10.928C183.099 10.751 181.192 10.95 179.367 11.515L178.411 1.41128L169.007 7.2312L168.062 18.4714C166.016 20.4126 164.134 22.5441 162.439 24.8408L155.649 22.343L148.998 34.6823L154.435 39.6779C153.431 42.3974 152.65 45.2057 152.102 48.0706L143.457 54.5774V66.2173L152.102 62.0459C152.56 64.0186 153.35 65.8852 154.435 67.5536L149.022 79.3184L155.672 83.4273L162.462 72.4993C164.354 72.6757 166.261 72.4767 168.086 71.9123L169.031 82.016L178.434 76.1961L179.391 64.9559C182.326 63.8096 184.926 61.8535 186.928 59.2858L191.804 61.1217L198.455 48.795L194.371 45.0482C195.258 41.9239 195.586 38.6487 195.34 35.3942L203.961 28.8249ZM173.709 57.8746C166.499 62.3332 162.042 59.1235 162.042 50.2437C162.042 41.3639 168.004 30.386 175.226 25.9274C182.448 21.4688 186.811 24.6785 186.811 33.6332C186.811 42.5879 180.931 53.4035 173.709 57.8746Z" fill="#E0E0E0"/>
<path d="M199.341 4.65844L191.781 0L184.991 10.928L192.551 15.5989L199.341 4.65844Z" fill="#F5F5F5"/>
<path d="M211.533 21.8684L203.962 17.1975L195.316 21.3689L202.888 26.0398L211.533 21.8684Z" fill="#F5F5F5"/>
<path d="M176.568 86.6868L169.007 82.0159L168.062 71.9122L175.623 76.5831L176.568 86.6868Z" fill="#E0E0E0"/>
<path d="M148.987 79.3184L156.559 83.9894L162.008 72.2371L154.436 67.5662L148.987 79.3184Z" fill="#E0E0E0"/>
<path d="M211.534 33.5583V21.9309L202.889 26.0648C202.436 24.0903 201.645 22.2229 200.556 20.5571L206.004 8.80488L199.354 4.68347L192.564 15.6239C190.671 15.4408 188.764 15.6399 186.94 16.2109L185.984 6.08226L176.58 11.9022L175.623 23.1424C173.58 25.0868 171.698 27.218 170 29.5118L163.21 27.014L156.559 39.3532L162.008 44.3489C160.998 47.0664 160.217 49.8752 159.675 52.7416L151.029 59.2484V70.8883L159.675 66.7169C160.127 68.6915 160.919 70.559 162.008 72.2246L156.559 83.9768L163.21 88.0858L170 77.1578C171.892 77.3348 173.799 77.1357 175.623 76.5708L176.58 86.6745L185.984 80.8546L186.929 69.6144C188.975 67.6732 190.857 65.5417 192.552 63.2449L199.342 65.7427L205.992 53.416L200.544 48.4203C201.554 45.7027 202.334 42.894 202.877 40.0277L211.534 33.5583ZM181.282 62.608C174.06 67.0666 168.203 63.4447 168.203 54.5275C168.203 45.6103 174.037 34.7573 181.282 30.2862C188.527 25.815 194.349 29.4494 194.349 38.3666C194.349 47.2838 188.492 58.0744 181.282 62.5455V62.608Z" fill="#EBEBEB"/>
<path d="M162.438 24.8658L169.998 29.5367L163.208 27.0014L155.648 22.318L162.438 24.8658Z" fill="#F0F0F0"/>
<path d="M155.647 22.3309L148.995 34.6743L156.564 39.3487L163.216 27.0052L155.647 22.3309Z" fill="#F5F5F5"/>
<path d="M148.987 34.6573L156.559 39.3283L162.008 44.3489L154.436 39.6905L148.987 34.6573Z" fill="#E0E0E0"/>
<path d="M152.102 48.083L159.674 52.7539L151.028 59.2608L143.457 54.5898L152.102 48.083Z" fill="#F5F5F5"/>
<path d="M143.457 54.59L151.028 59.2609V70.9007L143.457 66.2298V54.59Z" fill="#E0E0E0"/>
<path d="M185.982 6.0823L178.41 1.41138L169.007 7.2313L176.567 11.9022L185.982 6.0823Z" fill="#F5F5F5"/>
<path d="M226.461 339.604L336.13 271.813C336.372 271.722 336.581 271.553 336.729 271.329C336.877 271.105 336.957 270.838 336.957 270.564C336.957 270.29 336.877 270.022 336.729 269.799C336.581 269.575 336.372 269.406 336.13 269.315L325.992 263.07C325.364 262.732 324.67 262.556 323.967 262.556C323.264 262.556 322.571 262.732 321.943 263.07L212.239 330.799C211.997 330.89 211.788 331.059 211.64 331.283C211.492 331.506 211.412 331.774 211.412 332.048C211.412 332.322 211.492 332.589 211.64 332.813C211.788 333.037 211.997 333.206 212.239 333.297L222.412 339.541C223.036 339.889 223.726 340.076 224.429 340.087C225.132 340.098 225.828 339.932 226.461 339.604Z" fill="#262626" fill-opacity="0.85"/>
<path d="M333.119 10.0785L234.23 71.2002C232.76 72.2271 231.537 73.6103 230.659 75.2376C229.781 76.865 229.274 78.6907 229.178 80.567V331.686C229.178 335.133 231.442 336.531 234.23 334.808L333.119 273.686C334.591 272.661 335.816 271.279 336.694 269.651C337.572 268.023 338.078 266.196 338.171 264.319V13.2007C338.171 9.75375 335.919 8.35497 333.119 10.0785Z" fill="#455A64"/>
<path d="M234.231 71.2002L333.12 10.0785C335.617 8.52982 337.682 9.49149 338.102 12.1766C337.868 10.4884 337.304 8.8722 336.445 7.43429C335.587 5.99637 334.453 4.76934 333.12 3.83392L329.013 1.3361C327.448 0.485838 325.717 0.0427246 323.961 0.0427246C322.206 0.0427246 320.475 0.485838 318.91 1.3361L220.009 62.4079C218.519 63.4077 217.291 64.7956 216.439 66.4418L230.661 75.1842C231.512 73.551 232.742 72.1792 234.231 71.2002Z" fill="#37474F"/>
<path d="M214.935 322.893C215.03 324.77 215.538 326.595 216.415 328.223C217.293 329.85 218.516 331.233 219.986 332.26L224.105 334.758C225.53 335.521 227.09 335.954 228.683 336.027C230.275 336.1 231.864 335.812 233.345 335.183C231.012 336.157 229.157 334.721 229.157 331.636V80.5671C229.215 78.6828 229.725 76.8464 230.638 75.2342L216.416 66.4918C215.516 68.0918 215.006 69.9086 214.935 71.7747V322.893Z" fill="#263238"/>
<path d="M236.95 104.658L330.437 46.8964C332.117 45.8723 333.471 46.709 333.471 48.7697V234.633C333.415 235.759 333.11 236.855 332.583 237.832C332.056 238.809 331.321 239.638 330.437 240.253L236.985 298.015C235.305 299.052 233.951 298.215 233.951 296.142V110.279C234.004 109.156 234.303 108.062 234.824 107.086C235.345 106.109 236.073 105.278 236.95 104.658Z" fill="white"/>
<path d="M283.676 50.156C283.16 50.5187 282.73 51.0059 282.422 51.5786C282.114 52.1513 281.936 52.7933 281.902 53.4531C281.902 54.702 282.696 55.1642 283.676 54.5522C284.194 54.1918 284.624 53.705 284.933 53.1319C285.241 52.5588 285.418 51.9156 285.449 51.2551C285.449 50.0436 284.656 49.5565 283.676 50.156Z" fill="#37474F"/>
<path d="M283.674 278.02C281.635 279.448 279.938 281.371 278.722 283.632C277.506 285.893 276.804 288.428 276.674 291.034C276.674 295.817 279.812 297.765 283.674 295.367C285.713 293.938 287.409 292.016 288.625 289.755C289.841 287.494 290.543 284.959 290.674 282.354C290.698 277.57 287.548 275.622 283.674 278.02Z" fill="#37474F"/>
<path d="M266.887 69.4893C265.862 70.2179 265.011 71.1943 264.403 72.3398C263.795 73.4852 263.447 74.7676 263.387 76.0835C263.387 78.5064 264.974 79.493 266.887 78.2816C267.923 77.5599 268.785 76.5865 269.404 75.4406C270.022 74.2947 270.379 73.0088 270.445 71.6874C270.445 69.2645 268.859 68.2778 266.887 69.4893Z" fill="#37474F"/>
<path d="M275.603 68.6648C275.603 70.2884 276.769 70.9003 278.134 70.0386L301.468 55.5887C302.191 55.1055 302.797 54.4464 303.237 53.6651C303.677 52.8839 303.938 52.0025 304 51.0926C304 49.4815 302.833 48.8695 301.468 49.7313L278.134 64.1812C277.413 64.6632 276.808 65.3203 276.368 66.0992C275.928 66.8782 275.666 67.7571 275.603 68.6648Z" fill="#37474F"/>
<path d="M222.821 112.702C223.649 113.279 224.338 114.057 224.832 114.973C225.327 115.888 225.613 116.916 225.667 117.972C225.667 119.92 224.396 120.707 222.821 119.733C221.996 119.154 221.309 118.375 220.817 117.459C220.324 116.544 220.04 115.517 219.986 114.463C219.986 112.527 221.257 111.74 222.821 112.702Z" fill="#37474F"/>
<path d="M222.821 136.156C223.649 136.733 224.338 137.511 224.832 138.427C225.327 139.343 225.613 140.37 225.667 141.427C225.667 143.362 224.396 144.149 222.821 143.188C221.996 142.608 221.309 141.829 220.817 140.914C220.324 139.998 220.04 138.972 219.986 137.917C219.986 135.969 221.257 135.182 222.821 136.156Z" fill="#37474F"/>
<path d="M221.933 113.176C222.761 113.753 223.45 114.532 223.945 115.447C224.44 116.363 224.726 117.39 224.78 118.447C224.78 120.382 223.508 121.169 221.933 120.208C221.105 119.63 220.416 118.852 219.922 117.937C219.427 117.021 219.141 115.993 219.087 114.937C219.098 112.989 220.37 112.24 221.933 113.176Z" fill="#455A64"/>
<path d="M221.933 136.618C222.763 137.197 223.453 137.977 223.948 138.895C224.442 139.813 224.728 140.843 224.78 141.901C224.78 143.837 223.508 144.624 221.933 143.65C221.103 143.075 220.413 142.297 219.918 141.381C219.423 140.465 219.138 139.436 219.087 138.379C219.098 136.444 220.37 135.657 221.933 136.618Z" fill="#455A64"/>
<path d="M352.394 54.6521C352.394 52.5789 351.041 51.7421 349.361 52.7787L338.172 59.6852L255.908 110.541C255.025 111.155 254.289 111.985 253.762 112.962C253.235 113.938 252.931 115.035 252.875 116.161V301.974C252.875 304.047 254.228 304.884 255.908 303.847L338.207 252.979L349.361 246.085C350.244 245.471 350.98 244.641 351.507 243.664C352.034 242.688 352.338 241.592 352.394 240.465V54.6521Z" fill="white"/>
<path d="M353.561 54.6522C353.634 54.0259 353.534 53.3903 353.271 52.825C353.009 52.2596 352.597 51.7896 352.086 51.4737C351.576 51.1578 350.99 51.0101 350.401 51.0489C349.813 51.0878 349.248 51.3116 348.777 51.6923L338.102 58.2991L255.325 109.504C254.259 110.225 253.373 111.211 252.743 112.38C252.113 113.548 251.758 114.863 251.708 116.211V301.974C251.661 302.598 251.773 303.223 252.032 303.784C252.291 304.345 252.687 304.82 253.178 305.159C253.596 305.419 254.072 305.553 254.555 305.546C255.239 305.523 255.906 305.312 256.492 304.934L339.327 253.729L349.979 247.147C351.039 246.42 351.92 245.431 352.549 244.264C353.179 243.098 353.538 241.786 353.596 240.44L353.561 54.6522ZM338.125 251.593L337.169 252.193L255.372 302.748C255.234 302.862 255.075 302.94 254.905 302.979C254.736 303.018 254.56 303.016 254.392 302.973C254.24 302.873 254.088 302.524 254.088 301.949V116.161C254.149 115.254 254.401 114.374 254.825 113.587C255.249 112.799 255.835 112.125 256.538 111.615L338.254 61.0342L349.921 53.803C350.058 53.6899 350.218 53.6111 350.387 53.5722C350.557 53.5333 350.732 53.5353 350.901 53.5782C351.052 53.6781 351.204 54.0278 351.204 54.6023V240.465C351.144 241.372 350.892 242.252 350.467 243.04C350.043 243.827 349.457 244.501 348.754 245.011L338.102 251.593H338.125Z" fill="#3FCFFF"/>
<path d="M302.635 97.8269C313.135 91.3575 321.593 96.5779 321.593 109.554C321.593 122.53 313.1 138.279 302.635 144.699C292.169 151.118 283.676 145.947 283.676 132.984C283.676 120.02 292.169 104.309 302.635 97.8269Z" fill="#3FCFFF"/>
<path d="M302.633 108.018C306.028 105.92 308.781 107.618 308.781 111.765C308.666 114.049 308.049 116.272 306.981 118.253C305.912 120.234 304.423 121.918 302.633 123.167C299.238 125.266 296.484 123.567 296.484 119.421C296.6 117.136 297.216 114.914 298.285 112.932C299.353 110.951 300.843 109.268 302.633 108.018Z" fill="#3FCFFF"/>
<path d="M314.617 130.399C314.617 123.505 310.101 120.707 304.513 124.154L301.013 126.315C295.436 129.762 290.909 138.155 290.909 145.049V146.909C294.141 148.046 298.201 147.434 302.576 144.699C307.423 141.499 311.521 137.154 314.558 131.997L314.617 130.399Z" fill="#3FCFFF"/>
<path opacity="0.7" d="M302.633 108.018C306.028 105.92 308.781 107.618 308.781 111.765C308.666 114.049 308.049 116.272 306.981 118.253C305.912 120.234 304.423 121.918 302.633 123.167C299.238 125.266 296.484 123.567 296.484 119.421C296.6 117.136 297.216 114.914 298.285 112.932C299.353 110.951 300.843 109.268 302.633 108.018Z" fill="white"/>
<path opacity="0.7" d="M314.617 130.399C314.617 123.505 310.101 120.707 304.513 124.154L301.013 126.315C295.436 129.762 290.909 138.155 290.909 145.049V146.909C294.141 148.046 298.201 147.434 302.576 144.699C307.423 141.499 311.521 137.154 314.558 131.997L314.617 130.399Z" fill="white"/>
<path d="M265.954 173.236L290.349 158.162C291.516 157.475 292.368 158.025 292.368 159.411V160.273C292.331 161.023 292.129 161.754 291.778 162.405C291.427 163.056 290.938 163.609 290.349 164.019L265.954 179.094C264.845 179.781 263.935 179.219 263.935 177.845V176.983C263.973 176.233 264.176 175.503 264.526 174.852C264.877 174.201 265.366 173.647 265.954 173.236Z" fill="#3FCFFF"/>
<path opacity="0.1" d="M265.954 173.236L290.349 158.162C291.516 157.475 292.368 158.025 292.368 159.411V160.273C292.331 161.023 292.129 161.754 291.778 162.405C291.427 163.056 290.938 163.609 290.349 164.019L265.954 179.094C264.845 179.781 263.935 179.219 263.935 177.845V176.983C263.973 176.233 264.176 175.503 264.526 174.852C264.877 174.201 265.366 173.647 265.954 173.236Z" fill="white"/>
<path d="M264.95 191.433L338.756 145.823C339.304 145.473 339.759 145.748 339.759 146.447V155.664C339.738 156.038 339.637 156.402 339.463 156.727C339.289 157.052 339.047 157.329 338.756 157.537L264.95 203.148C264.39 203.497 263.935 203.21 263.935 202.523V193.306C263.955 192.931 264.058 192.565 264.234 192.24C264.41 191.914 264.656 191.638 264.95 191.433Z" fill="#3FCFFF"/>
<path opacity="0.2" d="M264.95 191.433L338.756 145.823C339.304 145.473 339.759 145.748 339.759 146.447V155.664C339.738 156.038 339.637 156.402 339.463 156.727C339.289 157.052 339.047 157.329 338.756 157.537L264.95 203.148C264.39 203.497 263.935 203.21 263.935 202.523V193.306C263.955 192.931 264.058 192.565 264.234 192.24C264.41 191.914 264.656 191.638 264.95 191.433Z" fill="white"/>
<path d="M265.954 214.238L290.349 199.164C291.516 198.477 292.368 199.039 292.368 200.413V201.274C292.332 202.025 292.13 202.756 291.779 203.407C291.428 204.059 290.938 204.612 290.349 205.021L265.954 220.095C264.845 220.795 263.935 220.233 263.935 218.846V217.985C263.975 217.235 264.178 216.505 264.529 215.855C264.879 215.204 265.367 214.65 265.954 214.238Z" fill="#3FCFFF"/>
<path opacity="0.1" d="M265.954 214.238L290.349 199.164C291.516 198.477 292.368 199.039 292.368 200.413V201.274C292.332 202.025 292.13 202.756 291.779 203.407C291.428 204.059 290.938 204.612 290.349 205.021L265.954 220.095C264.845 220.795 263.935 220.233 263.935 218.846V217.985C263.975 217.235 264.178 216.505 264.529 215.855C264.879 215.204 265.367 214.65 265.954 214.238Z" fill="white"/>
<path d="M264.95 232.435L338.756 186.824C339.304 186.475 339.759 186.762 339.759 187.449V196.666C339.738 197.04 339.637 197.404 339.463 197.729C339.289 198.054 339.047 198.331 338.756 198.539L264.95 244.149C264.39 244.499 263.935 244.224 263.935 243.525V234.308C263.955 233.932 264.058 233.567 264.234 233.242C264.41 232.916 264.656 232.64 264.95 232.435Z" fill="#3FCFFF"/>
<path opacity="0.2" d="M264.95 232.435L338.756 186.824C339.304 186.475 339.759 186.762 339.759 187.449V196.666C339.738 197.04 339.637 197.404 339.463 197.729C339.289 198.054 339.047 198.331 338.756 198.539L264.95 244.149C264.39 244.499 263.935 244.224 263.935 243.525V234.308C263.955 233.932 264.058 233.567 264.234 233.242C264.41 232.916 264.656 232.64 264.95 232.435Z" fill="white"/>
<path d="M294.386 237.667L323.553 219.671C324.72 218.971 325.583 219.533 325.583 220.92V230.561C325.545 231.313 325.341 232.044 324.988 232.695C324.635 233.347 324.143 233.899 323.553 234.308L294.386 252.317C293.219 253.004 292.367 252.442 292.367 251.068V241.414C292.408 240.665 292.611 239.935 292.962 239.285C293.312 238.634 293.8 238.081 294.386 237.667Z" fill="#3FCFFF"/>
<path opacity="0.1" d="M294.386 237.667L323.553 219.671C324.72 218.971 325.583 219.533 325.583 220.92V230.561C325.545 231.313 325.341 232.044 324.988 232.695C324.635 233.347 324.143 233.899 323.553 234.308L294.386 252.317C293.219 253.004 292.367 252.442 292.367 251.068V241.414C292.408 240.665 292.611 239.935 292.962 239.285C293.312 238.634 293.8 238.081 294.386 237.667Z" fill="white"/>
<path d="M359.141 196.978C359.141 196.978 344.814 175.822 343.974 173.249C343.309 171.35 343.974 168.528 344.184 167.217C344.394 165.905 344.58 162.983 344.79 162.221C345.14 160.797 343.425 161.084 342.457 162.383C341.489 163.682 341.162 166.28 340.66 166.704C340.159 167.129 336.344 161.172 334.348 158.424C332.353 155.677 331.105 154.003 329.88 155.027C329.005 155.764 329.658 157.363 331.105 159.711C331.95 160.975 332.729 162.288 333.438 163.645C333.66 164.157 332.47 164.194 331.828 165.256C331.327 166.08 331.828 167.416 331.128 168.053C330.698 168.404 330.402 168.913 330.299 169.481C330.196 170.05 330.292 170.64 330.568 171.138C331.867 173.321 333.542 175.22 335.504 176.733C337.65 178.319 338.514 178.881 339.785 181.042C341.057 183.203 352.467 205.271 353.237 206.595C354.007 207.919 355.489 210.616 357.741 210.691C359.992 210.766 378.426 193.781 379.371 192.932C382.405 190.221 383.373 189.834 383.886 192.27C384.064 193.135 384.196 194.011 384.283 194.892C384.645 197.99 386.617 209.055 386.617 209.055C386.617 209.055 395.95 213.888 403.615 211.553C411.281 209.217 413.871 205.733 413.871 205.733L410.032 199.039C411.07 196.279 415.866 185.088 417.417 177.258L393.383 173.099C392.893 172.987 392.1 172.774 391.05 172.487C389.732 172.112 386.383 170.876 383.851 173.249C375.591 180.955 359.164 196.978 359.164 196.978" fill="#FFA8A7"/>
<path d="M406.789 326.79L402.484 333.197C404.44 334.175 406.578 334.666 408.737 334.633C412.599 334.783 413.661 333.384 413.801 333.11C414.454 331.611 413.439 328.913 413.159 326.59L406.789 326.79Z" fill="#37474F"/>
<path d="M402.729 330.125C402.729 330.125 397.502 329.762 393.897 329.288C390.292 328.813 387.434 330.687 388.274 332.273C389.114 333.859 391.109 335.183 394.212 336.294C396.861 337.256 400.046 337.943 402.799 338.792C405.553 339.641 407.466 340.753 409.064 340.153C410.849 339.491 411.619 338.73 411.468 337.331C411.078 335.341 410.595 333.374 410.021 331.436L402.729 330.125Z" fill="#37474F"/>
<path d="M413.801 320.358C413.801 320.358 413.147 326.178 413.101 327.427C413.054 328.676 407.792 329.075 406.789 326.79L406.625 319.671L413.801 320.358Z" fill="#F28F8F"/>
<path d="M408.504 323.93L410.382 332.772C410.382 332.772 410.557 333.846 406.264 334.533C401.97 335.22 395.227 332.123 394.072 331.499C392.917 330.874 392.789 329.613 397.012 329.862C401.235 330.112 402.729 330.125 402.729 330.125L401.352 326.216L408.504 323.93Z" fill="#FFA8A7"/>
<path d="M417.348 177.183L420.323 176.296C420.323 176.296 426.541 197.365 427.23 199.401C427.918 201.437 428.7 203.585 427.358 206.095C425.76 209.08 417.348 221.082 417.348 221.082L412.004 215.487L418.071 203.597L412.704 191.982L417.348 177.183Z" fill="#F28F8F"/>
<path d="M386.791 149.819C386.093 148.418 385.739 146.85 385.762 145.262C385.784 143.674 386.182 142.118 386.919 140.74C389.882 134.857 396.486 131.997 404.35 133.084C407.99 133.596 412.283 136.831 414.628 141.664C417.218 147.022 417.463 157.812 418.128 161.896L386.791 149.819Z" fill="#37474F"/>
<path d="M386.58 152.13C386.58 152.13 384.715 155.939 385.041 156.289C385.525 156.591 386.053 156.802 386.604 156.913L386.58 152.13Z" fill="#FFA8A7"/>
<path d="M392.251 140.09C390.221 141.502 386.721 144.099 386.57 152.654C386.406 161.397 387.573 164.282 388.786 165.293C389.603 165.98 394.398 165.63 396.451 165.118C398.505 164.606 404.42 161.472 406.555 156.713C409.063 151.118 408.55 142.975 404.828 140.477C402.934 139.278 400.786 138.614 398.587 138.546C396.387 138.478 394.207 139.01 392.251 140.09Z" fill="#FFA8A7"/>
<path d="M413.8 205.683C417.394 211.678 420.8 216.923 421.547 223.692C423.087 237.917 418.047 254.178 416.962 264.707C419.002 267.701 420.179 271.27 420.345 274.973C420.345 279.331 413.8 320.358 413.8 320.358C413.8 320.358 409.04 321.907 406.625 319.671L402.133 244.199L404.467 235.007L413.8 205.683Z" fill="#3FCFFF"/>
<path opacity="0.2" d="M413.8 205.683C417.394 211.678 420.8 216.923 421.547 223.692C423.087 237.917 418.047 254.178 416.962 264.707C419.002 267.701 420.179 271.27 420.345 274.973C420.345 279.331 413.8 320.358 413.8 320.358C413.8 320.358 409.04 321.907 406.625 319.671L402.133 244.199L404.467 235.007L413.8 205.683Z" fill="white"/>
<path d="M402.133 244.199L404.467 235.007C408.934 233.748 413.243 231.916 417.3 229.55C417.3 229.55 414.874 234.283 407.897 236.881L404.292 248.683L403.988 275.722L402.133 244.199Z" fill="#3FCFFF"/>
<path opacity="0.3" d="M402.133 244.199L404.467 235.007C408.934 233.748 413.243 231.916 417.3 229.55C417.3 229.55 414.874 234.283 407.897 236.881L404.292 248.683L403.988 275.722L402.133 244.199Z" fill="white"/>
<path d="M413.801 205.683C415.726 209.055 420.322 214.8 419.342 220.333C418.176 227.027 414.792 231.735 404.502 235.007L394.842 272.475C394.842 272.475 399.87 277.47 401.41 282.304C402.95 287.137 408.504 323.955 408.504 323.955C408.504 323.955 406.777 326.965 401.352 326.24C401.352 326.24 382.44 280.031 381.11 277.021C379.495 273.973 378.93 270.415 379.511 266.967C380.106 262.121 386.512 209.08 386.512 209.08L413.801 205.683Z" fill="#3FCFFF"/>
<path opacity="0.2" d="M413.801 205.683C415.726 209.055 420.322 214.8 419.342 220.333C418.176 227.027 414.792 231.735 404.502 235.007L394.842 272.475C394.842 272.475 399.87 277.47 401.41 282.304C402.95 287.137 408.504 323.955 408.504 323.955C408.504 323.955 406.777 326.965 401.352 326.24C401.352 326.24 382.44 280.031 381.11 277.021C379.495 273.973 378.93 270.415 379.511 266.967C380.106 262.121 386.512 209.08 386.512 209.08L413.801 205.683Z" fill="white"/>
<path d="M417.347 177.183L393.313 173.024C392.823 172.912 392.029 172.699 390.979 172.412C390.979 172.412 389.953 188.548 383.781 192.245C383.932 193.019 384.061 193.881 384.177 194.868C384.539 197.965 386.511 209.03 386.511 209.03C386.511 209.03 395.844 213.863 403.51 211.528C411.175 209.193 413.765 205.708 413.765 205.708L409.926 199.014C411 196.229 415.83 185.039 417.347 177.183Z" fill="#3FCFFF"/>
<path opacity="0.7" d="M417.347 177.183L393.313 173.024C392.823 172.912 392.029 172.699 390.979 172.412C390.979 172.412 389.953 188.548 383.781 192.245C383.932 193.019 384.061 193.881 384.177 194.868C384.539 197.965 386.511 209.03 386.511 209.03C386.511 209.03 395.844 213.863 403.51 211.528C411.175 209.193 413.765 205.708 413.765 205.708L409.926 199.014C411 196.229 415.83 185.039 417.347 177.183Z" fill="white"/>
<path d="M411.012 196.354C407.82 198.405 404.476 200.172 401.014 201.637C404.157 201.57 407.233 200.659 409.962 198.989L411.012 196.354Z" fill="#3FCFFF"/>
<path d="M391.657 140.515C391.657 140.515 390.49 148.633 393.243 153.404C393.243 153.404 394.27 150.169 396.825 150.781C399.38 151.393 399.52 155.002 397.723 157.025C397.267 157.593 396.67 158.011 396.001 158.232C395.333 158.453 394.619 158.468 393.943 158.274C393.943 158.274 393.535 164.144 393.313 169.065C393.092 173.986 391.878 184.714 397.047 189.048C402.215 193.381 415.189 194.905 421.267 185.813C424.651 180.755 420.159 171.813 418.071 161.784C416.146 152.567 415.061 138.904 405.925 136.706C396.79 134.508 391.657 140.515 391.657 140.515Z" fill="#37474F"/>
<path d="M486.081 29.5991L484.156 30.848C484.317 30.1148 484.407 29.3656 484.424 28.6125C484.424 24.4286 481.682 22.7426 478.299 24.8657C477.269 25.5306 476.35 26.3748 475.58 27.3636C475.58 21.7435 471.894 19.458 467.343 22.268C464.946 23.9419 462.95 26.1972 461.519 28.851C460.088 31.5049 459.262 34.4824 459.107 37.5422C459.107 37.8294 459.107 38.1042 459.107 38.379C457.935 38.2211 456.748 38.5131 455.758 39.2032C453.975 40.4468 452.492 42.1229 451.427 44.0954C450.363 46.068 449.748 48.2813 449.633 50.5558C449.632 51.0846 449.683 51.612 449.785 52.1295L448.758 52.7664C445.97 54.4899 443.706 57.8495 443.706 60.2599C443.706 62.6703 445.97 63.2448 448.758 61.5088L486.092 38.4664C488.881 36.7429 491.144 33.3833 491.144 30.9729C491.144 28.5625 488.869 27.8631 486.081 29.5991Z" fill="#EBEBEB"/>
<defs>
<linearGradient id="paint0_linear_940_1528" x1="7.77041e-07" y1="381.5" x2="625" y2="381.5" gradientUnits="userSpaceOnUse">
<stop stop-color="#3FCFFF" stop-opacity="0.968627"/>
<stop offset="1" stop-color="#00E45F"/>
</linearGradient>
</defs>
</svg>
