<svg width="626" height="541" viewBox="0 0 626 541" fill="none" xmlns="http://www.w3.org/2000/svg">
<path d="M312.593 540.21C485.182 540.21 625.093 471.117 625.093 385.887C625.093 300.657 485.182 231.564 312.593 231.564C140.004 231.564 0.0925903 300.657 0.0925903 385.887C0.0925903 471.117 140.004 540.21 312.593 540.21Z" fill="url(#paint0_linear_940_2591)" fill-opacity="0.968627"/>
<path d="M436.236 355.915C421.312 347.296 421.312 333.325 436.236 324.707C451.161 316.088 475.36 316.088 490.285 324.707C505.21 333.325 505.21 347.296 490.285 355.915C475.36 364.533 451.161 364.533 436.236 355.915Z" fill="#262626" fill-opacity="0.77"/>
<path d="M132.677 357.113L93.4185 334.446C91.2064 333.171 91.2064 331.093 93.4185 329.818L321.774 197.951C323.015 197.322 324.387 196.995 325.778 196.995C327.169 196.995 328.541 197.322 329.782 197.951L369.05 220.618C371.262 221.894 371.262 223.971 369.05 225.246L140.695 357.113C139.452 357.742 138.079 358.07 136.686 358.07C135.293 358.07 133.92 357.742 132.677 357.113Z" fill="#262626" fill-opacity="0.85"/>
<path d="M273.792 316.707L307.544 297.189C311.022 295.18 312.761 292.552 312.761 289.914C312.761 287.276 312.761 285.218 312.761 285.218L277.753 265.469C276.775 264.837 275.96 263.982 275.376 262.974C274.792 261.967 274.454 260.835 274.391 259.672V218.039L215.464 252.107V293.721C215.532 294.883 215.872 296.013 216.456 297.019C217.039 298.026 217.851 298.882 218.826 299.518L248.618 316.678C255.554 320.726 266.837 320.726 273.792 316.707Z" fill="#3FCFFF"/>
<g opacity="0.6">
<path d="M273.792 316.707L307.544 297.189C311.022 295.18 312.761 292.552 312.761 289.914C312.761 287.276 312.761 285.218 312.761 285.218L277.753 265.469C276.775 264.837 275.96 263.982 275.376 262.974C274.792 261.967 274.454 260.835 274.391 259.672V218.039L215.464 252.107V293.721C215.532 294.883 215.872 296.013 216.456 297.019C217.039 298.026 217.851 298.882 218.826 299.518L248.618 316.678C255.554 320.726 266.837 320.726 273.792 316.707Z" fill="white"/>
</g>
<path opacity="0.3" d="M229.597 301.093V305.769L218.797 299.537C217.823 298.902 217.011 298.046 216.429 297.039C215.847 296.032 215.51 294.902 215.445 293.74V252.107L226.67 245.623C226.902 248.474 227.153 251.421 227.395 254.319L219.502 258.86V291.373C219.565 292.536 219.902 293.668 220.486 294.676C221.071 295.683 221.886 296.538 222.864 297.17L229.597 301.093Z" fill="white"/>
<path d="M219.502 291.383C219.569 292.545 219.908 293.675 220.492 294.682C221.076 295.689 221.888 296.545 222.864 297.18L248.579 312.001C255.534 316.011 266.817 316.021 273.782 312.001L307.593 292.484C314.558 288.465 314.558 281.952 307.593 277.933L281.858 263.112C280.885 262.475 280.074 261.619 279.492 260.612C278.91 259.605 278.572 258.476 278.506 257.314V224.792L219.58 258.86L219.502 291.383Z" fill="#3FCFFF"/>
<path opacity="0.3" d="M219.502 291.383C219.569 292.545 219.908 293.675 220.492 294.682C221.076 295.689 221.888 296.545 222.864 297.18L248.579 312.001C255.534 316.011 266.817 316.021 273.782 312.001L307.593 292.484C314.558 288.465 314.558 281.952 307.593 277.933L281.858 263.112C280.885 262.475 280.074 261.619 279.492 260.612C278.91 259.605 278.572 258.476 278.506 257.314V224.792L219.58 258.86L219.502 291.383Z" fill="white"/>
<path opacity="0.5" d="M288.669 267.083L281.82 263.131C280.846 262.494 280.036 261.638 279.454 260.631C278.871 259.625 278.534 258.495 278.468 257.334V224.792L219.541 258.86V291.383C219.607 292.545 219.946 293.675 220.53 294.682C221.114 295.689 221.927 296.545 222.903 297.18L229.665 301.044L288.669 267.083Z" fill="white"/>
<path d="M312.771 285.228V289.924C312.771 292.561 311.022 295.18 307.554 297.199L273.744 316.706C270.044 318.682 265.911 319.708 261.717 319.692V315.016C265.911 315.031 270.044 314.006 273.744 312.03L307.554 292.503C311.022 290.503 312.771 287.866 312.771 285.228Z" fill="#3FCFFF"/>
<path opacity="0.5" d="M312.771 285.228V289.924C312.771 292.561 311.022 295.18 307.554 297.199L273.744 316.706C270.044 318.682 265.911 319.708 261.717 319.692V315.016C265.911 315.031 270.044 314.006 273.744 312.03L307.554 292.503C311.022 290.503 312.771 287.866 312.771 285.228Z" fill="white"/>
<path d="M124.833 331.799C126.107 332.414 127.508 332.721 128.922 332.696C130.337 332.671 131.725 332.314 132.977 331.654L360.955 200.009C362.178 199.212 363.195 198.138 363.925 196.874C364.655 195.61 365.077 194.191 365.157 192.734V8.26755C365.114 6.84953 364.736 5.46189 364.054 4.21772C363.373 2.97354 362.407 1.90803 361.235 1.10803C359.963 0.491939 358.563 0.184843 357.15 0.211705C355.737 0.238567 354.35 0.598629 353.102 1.26262L125.123 132.946C123.905 133.748 122.894 134.827 122.172 136.095C121.45 137.363 121.038 138.783 120.969 140.24V324.678C121.012 326.084 121.384 327.461 122.055 328.697C122.726 329.934 123.678 330.996 124.833 331.799Z" fill="#3FCFFF"/>
<path d="M133.006 331.644L360.984 200C362.208 199.204 363.227 198.13 363.957 196.866C364.687 195.601 365.109 194.182 365.186 192.724V8.26759C365.186 5.59122 363.303 4.49942 360.984 5.84243L133.006 137.487C131.783 138.284 130.765 139.358 130.035 140.622C129.305 141.886 128.883 143.304 128.803 144.762V329.219C128.803 331.895 130.687 332.987 133.006 331.644Z" fill="#3FCFFF"/>
<path opacity="0.5" d="M133.006 331.644L360.984 200C362.208 199.204 363.227 198.13 363.957 196.866C364.687 195.601 365.109 194.182 365.186 192.724V8.26759C365.186 5.59122 363.303 4.49942 360.984 5.84243L133.006 137.487C131.783 138.284 130.765 139.358 130.035 140.622C129.305 141.886 128.883 143.304 128.803 144.762V329.219C128.803 331.895 130.687 332.987 133.006 331.644Z" fill="white"/>
<path d="M132.387 336.436C131.192 336.958 129.898 337.215 128.593 337.188C127.289 337.161 126.006 336.852 124.833 336.282C123.675 335.477 122.722 334.412 122.051 333.172C121.38 331.932 121.009 330.551 120.969 329.142V312.349L128.842 316.909V333.702C128.794 336.146 130.349 337.258 132.387 336.436Z" fill="#3FCFFF"/>
<path opacity="0.5" d="M132.387 336.436C131.192 336.958 129.898 337.215 128.593 337.188C127.289 337.161 126.006 336.852 124.833 336.282C123.675 335.477 122.722 334.412 122.051 333.172C121.38 331.932 121.009 330.551 120.969 329.142V312.349L128.842 316.909V333.702C128.794 336.146 130.349 337.258 132.387 336.436Z" fill="white"/>
<path d="M128.794 316.909V333.702C128.794 336.378 130.726 337.46 132.996 336.127L360.974 204.483C362.192 203.689 363.206 202.621 363.936 201.364C364.666 200.107 365.091 198.697 365.177 197.246V180.376L128.794 316.909Z" fill="#3FCFFF"/>
<path opacity="0.3" d="M128.803 316.871V333.702C128.803 336.378 130.735 337.46 133.006 336.127L360.984 204.483C362.2 203.688 363.212 202.619 363.94 201.363C364.668 200.106 365.092 198.696 365.177 197.246V180.376L128.803 316.871Z" fill="white"/>
<path d="M136.677 295.798V147.38C136.721 146.506 136.972 145.655 137.409 144.896C137.845 144.137 138.455 143.492 139.188 143.013L354.744 18.4995C356.135 17.6975 357.265 18.3449 357.265 19.9487V168.444C357.218 169.319 356.965 170.17 356.527 170.929C356.089 171.688 355.478 172.333 354.744 172.811L139.198 297.296C137.807 298.097 136.677 297.44 136.677 295.798Z" fill="#3FCFFF"/>
<path d="M136.677 295.798V147.38C136.721 146.506 136.972 145.655 137.409 144.896C137.845 144.137 138.455 143.492 139.188 143.013L354.744 18.4995C356.135 17.6975 357.265 18.3449 357.265 19.9487V168.444C357.218 169.319 356.965 170.17 356.527 170.929C356.089 171.688 355.478 172.333 354.744 172.811L139.198 297.296C137.807 298.097 136.677 297.44 136.677 295.798Z" fill="#263238"/>
<path d="M246.985 253.991C245.838 254.737 244.883 255.744 244.198 256.929C243.513 258.115 243.118 259.445 243.044 260.812C243.044 263.324 244.812 264.348 246.985 263.092C248.134 262.345 249.09 261.336 249.775 260.149C250.46 258.962 250.854 257.63 250.927 256.261C250.927 253.749 249.159 252.735 246.985 253.991Z" fill="#3FCFFF"/>
<path opacity="0.7" d="M130.04 140.608C129.291 141.866 128.863 143.29 128.794 144.752V316.909L120.969 312.349V140.24C121.02 138.773 121.446 137.342 122.206 136.086L130.04 140.608Z" fill="white"/>
<path opacity="0.3" d="M365.138 7.57192C364.839 5.40763 363.09 4.67333 360.975 5.84243L132.996 137.487C131.76 138.26 130.74 139.334 130.03 140.608L122.148 136.057C122.862 134.783 123.885 133.71 125.123 132.936L353.102 1.3013C354.351 0.637217 355.74 0.277139 357.155 0.250279C358.57 0.223419 359.971 0.530536 361.245 1.14671C362.316 1.87653 363.218 2.82785 363.889 3.93633C364.561 5.04482 364.987 6.28462 365.138 7.57192Z" fill="white"/>
<path d="M377.436 30.2773C377.097 30.1073 376.718 30.0328 376.341 30.0618C375.963 30.0907 375.6 30.222 375.291 30.4415L160.18 154.733C159.331 155.295 158.626 156.048 158.123 156.933C157.619 157.817 157.331 158.808 157.282 159.825V307.334C157.252 307.832 157.35 308.329 157.569 308.778C157.787 309.227 158.117 309.611 158.528 309.895C159.001 310.155 161.532 311.624 162.286 312.03C162.552 312.166 162.85 312.228 163.149 312.211C163.448 312.194 163.736 312.098 163.986 311.933L379.049 187.642C379.898 187.08 380.602 186.327 381.106 185.442C381.609 184.557 381.897 183.567 381.947 182.55V34.2773C381.99 33.9027 381.928 33.5234 381.768 33.182C381.607 32.8407 381.355 32.5508 381.039 32.345C380.556 32.0261 377.977 30.5961 377.436 30.2773Z" fill="#3FCFFF"/>
<path d="M163.937 156.82L379.058 32.5771C380.681 31.6109 381.956 32.4032 381.956 34.2776V182.55C381.907 183.567 381.619 184.558 381.115 185.442C380.612 186.327 379.907 187.08 379.058 187.642L163.937 311.934C162.314 312.9 161.039 311.344 161.039 309.47V161.912C161.09 160.896 161.379 159.906 161.882 159.021C162.386 158.137 163.09 157.383 163.937 156.82Z" fill="#FAFAFA"/>
<path d="M380.372 33.1376C380.942 33.1376 381.029 33.8526 381.029 34.2777V182.55C380.977 183.402 380.727 184.229 380.3 184.967C379.872 185.705 379.278 186.333 378.566 186.801L163.474 311.093C163.329 311.187 163.163 311.24 162.991 311.248C162.45 311.248 162.025 310.417 162.025 309.47V161.912C162.071 161.061 162.313 160.232 162.732 159.49C163.151 158.748 163.735 158.112 164.44 157.632L379.541 33.4081C379.79 33.2475 380.076 33.1543 380.372 33.1376ZM380.372 32.1714C379.906 32.1912 379.454 32.331 379.058 32.5772L163.937 156.82C163.09 157.383 162.386 158.137 161.882 159.021C161.379 159.906 161.09 160.896 161.039 161.912V309.47C161.039 310.958 161.87 312.214 162.971 312.214C163.312 312.207 163.646 312.111 163.937 311.934L379.049 187.642C379.897 187.08 380.602 186.327 381.106 185.442C381.609 184.558 381.897 183.567 381.947 182.55V34.2777C381.947 32.9443 381.29 32.1714 380.324 32.1714H380.372Z" fill="#E0E0E0"/>
<path d="M158.47 309.895C158.789 310.059 161.078 311.364 162.083 311.943C161.722 311.644 161.436 311.264 161.248 310.835C161.06 310.405 160.976 309.938 161.001 309.47V171.545L157.233 169.342V307.335C157.202 307.832 157.299 308.328 157.516 308.777C157.733 309.225 158.061 309.61 158.47 309.895Z" fill="#F0F0F0"/>
<path d="M381.995 34.2488C381.995 32.3937 380.672 31.64 379.097 32.5772L163.937 156.82C163.09 157.383 162.386 158.137 161.882 159.021C161.379 159.906 161.09 160.896 161.039 161.912V171.574L381.995 43.9107V34.2488Z" fill="#3FCFFF"/>
<g opacity="0.4">
<path d="M379.058 32.5772L163.937 156.811C163.074 157.355 162.363 158.11 161.87 159.004L158.132 156.83C158.623 155.967 159.329 155.245 160.18 154.733L375.291 30.4419C375.599 30.2208 375.961 30.0878 376.339 30.0571C376.717 30.0265 377.096 30.0994 377.435 30.2679C377.957 30.5965 380.401 31.9781 381.029 32.3163C380.704 32.1958 380.355 32.1566 380.011 32.2021C379.668 32.2475 379.341 32.3763 379.058 32.5772Z" fill="white"/>
</g>
<path opacity="0.15" d="M157.233 169.352V159.777C157.273 158.734 157.582 157.718 158.132 156.83L161.88 158.994C161.338 159.867 161.035 160.867 161.001 161.893V171.555L157.233 169.352Z" fill="white"/>
<path d="M336.631 145.477L207.794 219.874C207.168 220.281 206.646 220.83 206.272 221.476C205.897 222.123 205.681 222.848 205.64 223.594V260.542C205.681 261.288 205.897 262.013 206.272 262.66C206.646 263.306 207.168 263.855 207.794 264.261L211.552 266.426C212.22 266.764 212.958 266.94 213.706 266.94C214.455 266.94 215.193 266.764 215.86 266.426L344.678 192.029C345.305 191.62 345.826 191.069 346.201 190.421C346.575 189.773 346.791 189.046 346.832 188.299V151.342C346.791 150.596 346.575 149.871 346.2 149.224C345.826 148.578 345.304 148.029 344.678 147.622L340.91 145.458C340.246 145.126 339.512 144.954 338.768 144.957C338.025 144.961 337.293 145.139 336.631 145.477Z" fill="#3FCFFF"/>
<path opacity="0.5" d="M346.832 151.013C346.678 149.902 345.779 149.497 344.697 150.125L215.86 224.522C215.225 224.917 214.703 225.469 214.344 226.126L206.278 221.469C206.639 220.822 207.157 220.277 207.785 219.884L336.631 145.487C337.297 145.148 338.033 144.972 338.78 144.972C339.527 144.972 340.264 145.148 340.93 145.487L344.697 147.651C345.272 148.028 345.759 148.522 346.127 149.102C346.495 149.682 346.736 150.333 346.832 151.013Z" fill="white"/>
<path d="M215.493 266.609C214.863 266.858 214.186 266.971 213.509 266.941C212.832 266.911 212.168 266.739 211.562 266.435L207.794 264.271C207.169 263.863 206.648 263.314 206.274 262.668C205.9 262.022 205.682 261.297 205.64 260.551V223.604C205.669 222.85 205.888 222.115 206.278 221.469L214.344 226.126C213.952 226.764 213.732 227.493 213.706 228.242V265.199C213.706 266.426 214.479 266.996 215.493 266.609Z" fill="#263238"/>
<path d="M215.86 224.522L344.697 150.125C345.885 149.439 346.851 149.989 346.851 151.361V188.318C346.811 189.065 346.594 189.793 346.22 190.44C345.846 191.088 345.324 191.639 344.697 192.048L215.88 266.445C214.692 267.131 213.726 266.571 213.726 265.199V228.251C213.764 227.506 213.978 226.78 214.349 226.132C214.719 225.484 215.237 224.933 215.86 224.522Z" fill="#3FCFFF"/>
<path d="M302.473 165.207L207.804 219.884C207.177 220.278 206.658 220.822 206.297 221.469L214.363 226.126C214.722 225.469 215.244 224.917 215.88 224.522L310.549 169.854L302.473 165.207Z" fill="#455A64"/>
<path d="M310.529 169.854L215.86 224.522C215.234 224.931 214.712 225.481 214.338 226.129C213.964 226.777 213.747 227.504 213.706 228.251V265.189C213.706 266.561 214.672 267.121 215.86 266.435L310.529 211.768V169.854Z" fill="#37474F"/>
<path d="M237.692 220.019L286.543 191.816C288.562 190.647 290.205 191.478 290.205 193.671C290.114 194.903 289.735 196.096 289.097 197.154C288.459 198.211 287.581 199.104 286.534 199.758L237.692 227.971C235.673 229.14 234.021 228.309 234.021 226.116C234.112 224.883 234.492 223.689 235.13 222.63C235.768 221.571 236.645 220.677 237.692 220.019Z" fill="#3FCFFF"/>
<path d="M247.7 229.362C247.709 229.352 247.72 229.344 247.733 229.338C247.745 229.333 247.759 229.33 247.773 229.33C247.786 229.33 247.8 229.333 247.812 229.338C247.825 229.344 247.836 229.352 247.845 229.362C247.888 229.428 247.909 229.506 247.903 229.585V235.082C247.904 235.613 247.858 236.143 247.768 236.667C247.688 237.145 247.552 237.612 247.362 238.058C247.189 238.467 246.961 238.85 246.686 239.198C246.414 239.521 246.087 239.792 245.72 240C245.432 240.188 245.097 240.288 244.754 240.29C244.623 240.28 244.495 240.242 244.379 240.181C244.262 240.12 244.16 240.035 244.078 239.932C243.866 239.648 243.726 239.317 243.672 238.966C243.579 238.499 243.537 238.023 243.546 237.546V232.039C243.546 231.942 243.566 231.847 243.604 231.758C243.628 231.679 243.679 231.61 243.749 231.565L244.358 231.208C244.377 231.189 244.403 231.179 244.43 231.179C244.457 231.179 244.483 231.189 244.503 231.208C244.547 231.273 244.568 231.351 244.561 231.43V236.86C244.553 237.159 244.582 237.457 244.647 237.749C244.674 237.935 244.755 238.11 244.879 238.251C244.923 238.303 244.978 238.344 245.04 238.371C245.102 238.398 245.169 238.41 245.237 238.406C245.402 238.395 245.562 238.342 245.7 238.251C245.872 238.149 246.028 238.022 246.164 237.874C246.315 237.701 246.439 237.505 246.531 237.295C246.64 237.047 246.721 236.788 246.773 236.522C246.829 236.203 246.855 235.879 246.85 235.556V230.116C246.853 230.019 246.876 229.923 246.918 229.836C246.941 229.756 246.993 229.688 247.062 229.642L247.7 229.362Z" fill="#FAFAFA"/>
<path d="M251.487 234.561C251.492 234.49 251.475 234.419 251.439 234.358C251.416 234.333 251.387 234.313 251.355 234.302C251.323 234.29 251.289 234.286 251.255 234.29C251.136 234.274 251.016 234.274 250.898 234.29L250.337 234.396C250.157 234.441 249.968 234.441 249.787 234.396C249.645 234.351 249.522 234.259 249.439 234.135C249.344 233.979 249.282 233.805 249.255 233.623C249.161 233.106 249.161 232.576 249.255 232.058C249.328 231.761 249.432 231.473 249.565 231.198C249.697 230.924 249.859 230.665 250.048 230.425C250.23 230.197 250.453 230.004 250.704 229.855C250.908 229.731 251.135 229.652 251.371 229.623C251.542 229.606 251.715 229.643 251.864 229.73C252.005 229.816 252.117 229.944 252.182 230.097C252.26 230.277 252.303 230.471 252.308 230.667C252.318 230.764 252.298 230.862 252.25 230.947C252.226 231.027 252.175 231.095 252.105 231.14L251.526 231.478C251.499 231.494 251.469 231.502 251.439 231.502C251.408 231.502 251.378 231.494 251.352 231.478L251.226 231.382C251.176 231.342 251.116 231.319 251.052 231.314C250.928 231.328 250.809 231.371 250.704 231.44C250.553 231.531 250.419 231.649 250.308 231.788C250.191 231.94 250.13 232.127 250.134 232.319C250.121 232.392 250.121 232.468 250.134 232.541C250.153 232.569 250.177 232.591 250.206 232.608C250.234 232.625 250.266 232.635 250.299 232.638C250.404 232.656 250.512 232.656 250.618 232.638L251.158 232.541C251.612 232.454 251.922 232.541 252.124 232.792C252.338 233.15 252.435 233.565 252.405 233.981C252.402 234.268 252.363 234.554 252.289 234.831C252.212 235.132 252.102 235.424 251.96 235.701C251.818 235.987 251.64 236.253 251.429 236.493C251.229 236.728 250.99 236.927 250.724 237.082C250.511 237.218 250.27 237.301 250.019 237.324C249.837 237.33 249.658 237.28 249.507 237.179C249.357 237.077 249.243 236.932 249.178 236.764C249.1 236.58 249.061 236.383 249.062 236.184C249.053 236.084 249.073 235.983 249.12 235.894C249.144 235.814 249.195 235.746 249.265 235.701L249.845 235.363C249.922 235.363 249.98 235.314 250.019 235.363L250.144 235.498C250.17 235.527 250.201 235.55 250.236 235.567C250.271 235.583 250.308 235.593 250.347 235.594C250.483 235.595 250.615 235.551 250.724 235.469C250.898 235.37 251.055 235.243 251.187 235.092C251.253 235.013 251.308 234.925 251.352 234.831C251.42 234.755 251.467 234.661 251.487 234.561Z" fill="#FAFAFA"/>
<path d="M253.458 231.942C253.456 231.44 253.498 230.939 253.583 230.445C253.664 229.979 253.79 229.523 253.96 229.082C254.102 228.687 254.297 228.314 254.54 227.971C254.742 227.677 255.006 227.43 255.312 227.246C255.536 227.096 255.809 227.037 256.075 227.082C256.312 227.137 256.518 227.278 256.655 227.478C256.837 227.74 256.965 228.036 257.032 228.348C257.124 228.754 257.17 229.169 257.167 229.585V230.184C257.17 230.285 257.147 230.384 257.099 230.474C257.076 230.553 257.024 230.622 256.955 230.667L254.443 232.126C254.437 232.296 254.46 232.466 254.511 232.628C254.548 232.738 254.615 232.835 254.704 232.908C254.783 232.971 254.883 233.002 254.984 232.995C255.101 232.982 255.213 232.942 255.312 232.879C255.458 232.8 255.589 232.695 255.699 232.57C255.798 232.459 255.882 232.335 255.95 232.203C255.991 232.127 256.036 232.053 256.085 231.981C256.127 231.932 256.175 231.889 256.23 231.855L256.829 231.507C256.85 231.491 256.875 231.482 256.901 231.482C256.928 231.482 256.953 231.491 256.974 231.507C256.999 231.538 257.018 231.574 257.028 231.612C257.038 231.65 257.039 231.691 257.032 231.73C257.021 231.918 256.982 232.104 256.916 232.28C256.833 232.548 256.723 232.807 256.587 233.053C256.436 233.336 256.255 233.602 256.046 233.846C255.839 234.095 255.59 234.307 255.312 234.474C255.084 234.623 254.811 234.688 254.54 234.657C254.302 234.6 254.095 234.455 253.96 234.251C253.77 233.958 253.642 233.63 253.583 233.285C253.495 232.843 253.453 232.393 253.458 231.942ZM255.312 228.86C255.164 228.94 255.035 229.052 254.936 229.188C254.828 229.324 254.741 229.473 254.675 229.633C254.607 229.793 254.552 229.957 254.511 230.126C254.477 230.278 254.454 230.433 254.443 230.589L256.143 229.623C256.133 229.49 256.114 229.358 256.085 229.227C256.07 229.11 256.024 229 255.95 228.908C255.921 228.867 255.884 228.831 255.841 228.805C255.797 228.778 255.749 228.761 255.699 228.754C255.561 228.742 255.424 228.78 255.312 228.86Z" fill="#FAFAFA"/>
<path d="M260.2 226.164C259.908 226.332 259.677 226.589 259.543 226.899C259.393 227.306 259.324 227.74 259.341 228.174V231.662C259.342 231.762 259.322 231.861 259.283 231.952C259.259 232.032 259.208 232.1 259.138 232.145L258.568 232.474C258.559 232.484 258.548 232.492 258.535 232.498C258.523 232.503 258.509 232.506 258.495 232.506C258.482 232.506 258.468 232.503 258.456 232.498C258.443 232.492 258.432 232.484 258.423 232.474C258.38 232.408 258.359 232.33 258.365 232.251V226C258.365 225.901 258.385 225.802 258.423 225.71C258.45 225.632 258.501 225.565 258.568 225.517L259.138 225.189C259.157 225.17 259.183 225.16 259.21 225.16C259.237 225.16 259.263 225.17 259.283 225.189C259.327 225.25 259.348 225.326 259.341 225.401V225.71C259.456 225.451 259.598 225.205 259.766 224.976C259.918 224.764 260.116 224.589 260.345 224.464L260.693 224.261C260.711 224.243 260.735 224.233 260.761 224.233C260.786 224.233 260.81 224.243 260.828 224.261C260.875 224.325 260.899 224.404 260.896 224.483V225.362C260.894 225.463 260.871 225.562 260.828 225.652C260.804 225.729 260.757 225.796 260.693 225.846L260.2 226.164Z" fill="#FAFAFA"/>
<path d="M267.407 225.701C267.416 225.69 267.427 225.682 267.439 225.676C267.452 225.671 267.465 225.668 267.479 225.668C267.493 225.668 267.506 225.671 267.519 225.676C267.531 225.682 267.543 225.69 267.552 225.701C267.595 225.766 267.615 225.844 267.61 225.923V226.889C267.609 226.988 267.589 227.087 267.552 227.179C267.518 227.251 267.469 227.313 267.407 227.362L264.103 229.295C264.083 229.313 264.057 229.323 264.031 229.323C264.004 229.323 263.978 229.313 263.958 229.295C263.915 229.233 263.894 229.158 263.9 229.082V220.386C263.901 220.287 263.92 220.189 263.958 220.097C263.985 220.021 264.036 219.957 264.103 219.913L264.712 219.556C264.731 219.537 264.757 219.527 264.784 219.527C264.811 219.527 264.837 219.537 264.856 219.556C264.9 219.618 264.92 219.693 264.914 219.768V227.121L267.407 225.701Z" fill="#FAFAFA"/>
<path d="M270.372 218.551C270.59 218.4 270.852 218.329 271.116 218.348C271.342 218.366 271.553 218.469 271.705 218.638C271.886 218.844 272.018 219.089 272.092 219.353C272.195 219.695 272.254 220.049 272.266 220.406C272.266 220.483 272.266 220.589 272.266 220.715V221.459C272.266 221.575 272.266 221.681 272.266 221.768C272.247 222.188 272.188 222.605 272.092 223.015C272.003 223.413 271.873 223.802 271.705 224.174C271.552 224.521 271.354 224.845 271.116 225.14C270.912 225.407 270.66 225.633 270.372 225.807C270.149 225.952 269.885 226.023 269.619 226.01C269.396 225.99 269.189 225.887 269.039 225.72C268.854 225.52 268.721 225.278 268.653 225.015C268.55 224.672 268.491 224.318 268.479 223.961C268.479 223.884 268.479 223.787 268.479 223.662V222.918C268.479 222.792 268.479 222.686 268.479 222.609C268.49 222.185 268.545 221.765 268.643 221.353C268.737 220.951 268.87 220.56 269.039 220.184C269.193 219.839 269.387 219.515 269.619 219.217C269.824 218.948 270.08 218.721 270.372 218.551ZM271.28 221.043C271.28 220.83 271.244 220.617 271.174 220.415C271.138 220.292 271.064 220.184 270.962 220.106C270.879 220.051 270.78 220.027 270.682 220.039C270.571 220.059 270.466 220.102 270.372 220.164C270.259 220.226 270.155 220.305 270.063 220.396C269.952 220.511 269.858 220.641 269.783 220.783C269.686 220.958 269.614 221.147 269.571 221.343C269.507 221.59 269.468 221.842 269.455 222.097C269.455 222.174 269.455 222.261 269.455 222.367V223.053C269.455 223.159 269.455 223.246 269.455 223.304C269.464 223.518 269.503 223.73 269.571 223.932C269.606 224.056 269.681 224.164 269.783 224.242C269.823 224.27 269.869 224.29 269.917 224.3C269.965 224.31 270.015 224.31 270.063 224.3C270.173 224.281 270.278 224.242 270.372 224.184C270.484 224.119 270.588 224.041 270.682 223.952C270.789 223.834 270.883 223.704 270.962 223.565C271.055 223.388 271.126 223.199 271.174 223.005C271.237 222.758 271.273 222.506 271.28 222.251C271.286 222.161 271.286 222.071 271.28 221.981V221.304C271.286 221.217 271.286 221.13 271.28 221.043Z" fill="#FAFAFA"/>
<path d="M275.222 224.203C275.345 224.127 275.456 224.033 275.55 223.923C275.667 223.786 275.767 223.637 275.85 223.478C275.946 223.284 276.02 223.08 276.072 222.87C276.131 222.633 276.16 222.389 276.159 222.145V221.652C276.159 221.749 276.062 221.865 275.995 222C275.928 222.141 275.851 222.277 275.763 222.406C275.662 222.542 275.552 222.671 275.434 222.792C275.313 222.919 275.173 223.027 275.019 223.111C274.92 223.179 274.808 223.226 274.69 223.249C274.572 223.272 274.451 223.271 274.333 223.246C274.118 223.179 273.934 223.039 273.811 222.85C273.654 222.601 273.54 222.326 273.473 222.039C273.391 221.674 273.346 221.301 273.338 220.927C273.338 220.802 273.338 220.647 273.338 220.464C273.338 220.28 273.338 220.126 273.338 219.99C273.35 219.565 273.395 219.142 273.473 218.725C273.553 218.313 273.666 217.909 273.811 217.517C273.948 217.176 274.123 216.852 274.333 216.551C274.511 216.284 274.745 216.06 275.019 215.894C275.147 215.816 275.288 215.761 275.434 215.729C275.543 215.709 275.654 215.709 275.763 215.729C275.848 215.753 275.928 215.796 275.995 215.855C276.056 215.902 276.112 215.957 276.159 216.019V215.71C276.159 215.611 276.179 215.512 276.217 215.42C276.244 215.345 276.295 215.28 276.362 215.237L276.932 214.898C276.951 214.88 276.977 214.87 277.004 214.87C277.031 214.87 277.057 214.88 277.076 214.898C277.123 214.963 277.147 215.041 277.144 215.121V221.401C277.17 222.342 276.996 223.277 276.632 224.145C276.347 224.827 275.853 225.402 275.222 225.787C275.006 225.921 274.76 225.998 274.507 226.01C274.306 226.022 274.107 225.971 273.937 225.865C273.774 225.742 273.641 225.584 273.551 225.401C273.456 225.181 273.404 224.945 273.396 224.705C273.387 224.605 273.407 224.504 273.454 224.415C273.478 224.336 273.529 224.267 273.599 224.222L274.111 223.932C274.123 223.92 274.137 223.91 274.153 223.903C274.168 223.896 274.185 223.892 274.203 223.892C274.22 223.892 274.237 223.896 274.253 223.903C274.268 223.91 274.283 223.92 274.294 223.932C274.342 223.982 274.384 224.038 274.42 224.097C274.479 224.2 274.576 224.277 274.69 224.309C274.806 224.396 274.98 224.299 275.222 224.203ZM274.314 219.517C274.314 219.774 274.314 220.026 274.314 220.27C274.286 220.656 274.396 221.04 274.623 221.353C274.709 221.427 274.818 221.467 274.932 221.467C275.045 221.467 275.155 221.427 275.241 221.353C275.521 221.17 275.74 220.908 275.869 220.599C276.045 220.196 276.143 219.763 276.159 219.324C276.159 219.179 276.159 219.005 276.159 218.802C276.159 218.599 276.159 218.425 276.159 218.299C276.178 217.953 276.076 217.611 275.869 217.333C275.783 217.254 275.671 217.211 275.555 217.211C275.439 217.211 275.327 217.254 275.241 217.333C274.966 217.515 274.751 217.774 274.623 218.077C274.424 218.532 274.319 219.021 274.314 219.517Z" fill="#FAFAFA"/>
<path d="M279.395 210.937C279.414 210.921 279.438 210.913 279.463 210.913C279.487 210.913 279.511 210.921 279.53 210.937C279.581 210.999 279.605 211.079 279.598 211.159V212.212C279.598 212.313 279.575 212.412 279.53 212.502C279.503 212.575 279.456 212.638 279.395 212.686L278.748 213.063C278.739 213.073 278.727 213.081 278.715 213.087C278.703 213.092 278.689 213.095 278.675 213.095C278.662 213.095 278.648 213.092 278.636 213.087C278.623 213.081 278.612 213.073 278.603 213.063C278.578 213.034 278.559 213 278.547 212.963C278.535 212.927 278.531 212.888 278.535 212.85V211.797C278.535 211.696 278.558 211.597 278.603 211.507C278.63 211.432 278.681 211.367 278.748 211.324L279.395 210.937ZM279.559 220.01C279.559 220.106 279.54 220.201 279.501 220.29C279.47 220.366 279.42 220.432 279.356 220.483L278.777 220.812C278.769 220.822 278.758 220.83 278.747 220.835C278.735 220.841 278.722 220.844 278.709 220.844C278.696 220.844 278.683 220.841 278.672 220.835C278.66 220.83 278.65 220.822 278.641 220.812C278.591 220.749 278.567 220.669 278.574 220.589V214.338C278.573 214.237 278.596 214.138 278.641 214.048C278.669 213.973 278.715 213.906 278.777 213.855L279.356 213.526C279.376 213.508 279.402 213.498 279.429 213.498C279.456 213.498 279.482 213.508 279.501 213.526C279.544 213.588 279.565 213.664 279.559 213.739V220.01Z" fill="#FAFAFA"/>
<path d="M284.64 217.063C284.64 217.162 284.62 217.261 284.582 217.353C284.555 217.428 284.505 217.492 284.438 217.536L283.858 217.874C283.84 217.892 283.816 217.902 283.79 217.902C283.765 217.902 283.741 217.892 283.723 217.874C283.672 217.812 283.648 217.732 283.655 217.652V214.251C283.685 213.85 283.612 213.447 283.443 213.082C283.307 212.84 283.095 212.802 282.795 212.976C282.497 213.176 282.275 213.473 282.167 213.816C282.006 214.272 281.928 214.753 281.936 215.237V218.647C281.935 218.747 281.915 218.845 281.878 218.937C281.854 219.017 281.803 219.085 281.733 219.13L281.163 219.459C281.154 219.469 281.143 219.477 281.13 219.483C281.118 219.489 281.104 219.492 281.09 219.492C281.077 219.492 281.063 219.489 281.051 219.483C281.038 219.477 281.027 219.469 281.018 219.459C280.973 219.398 280.952 219.322 280.96 219.246V212.995C280.958 212.895 280.978 212.797 281.018 212.705C281.041 212.626 281.093 212.557 281.163 212.512L281.733 212.183C281.742 212.173 281.753 212.165 281.765 212.159C281.778 212.154 281.791 212.151 281.805 212.151C281.819 212.151 281.832 212.154 281.845 212.159C281.857 212.165 281.869 212.173 281.878 212.183C281.921 212.249 281.941 212.327 281.936 212.406V212.705C282.063 212.411 282.218 212.129 282.399 211.865C282.558 211.621 282.774 211.419 283.027 211.275C283.247 211.115 283.52 211.045 283.79 211.082C283.897 211.109 283.997 211.158 284.084 211.226C284.17 211.295 284.242 211.38 284.293 211.478C284.433 211.74 284.524 212.024 284.563 212.319C284.615 212.703 284.64 213.09 284.64 213.478V217.063Z" fill="#FAFAFA"/>
<path d="M333.366 188.937L323.986 194.347L325.445 181.188C324.314 180.589 323.6 179.13 323.6 177.033C323.6 173.294 325.879 168.956 328.681 167.371C331.482 165.787 333.752 167.468 333.752 171.236C333.694 173.453 333.062 175.617 331.917 177.516L333.366 188.937Z" fill="#455A64"/>
<path d="M333.376 188.937L325.116 184.173L323.986 194.357L333.376 188.937Z" fill="#37474F"/>
<path d="M328.661 167.342C326.619 168.723 325.095 170.746 324.334 173.091L331.898 177.458C333.043 175.559 333.675 173.395 333.733 171.178C333.752 167.439 331.482 165.729 328.661 167.342Z" fill="#37474F"/>
<path d="M283.066 123.525C279.849 121.67 275.415 121.931 270.508 124.762C260.712 130.424 252.772 144.173 252.772 155.487C252.772 161.168 254.781 165.149 258.007 166.985L264.258 170.618C267.465 172.473 271.899 172.202 276.816 169.371C286.611 163.719 294.552 149.96 294.552 138.646C294.552 132.994 292.562 128.984 289.354 127.178" fill="#3FCFFF"/>
<path d="M276.806 128.405C267.011 134.066 259.07 147.825 259.07 159.13C259.07 170.434 267.011 175.033 276.806 169.371C286.601 163.709 294.552 149.96 294.542 138.646C294.532 127.332 286.592 122.752 276.806 128.405Z" fill="#3FCFFF"/>
<path d="M286.592 153.506V154.801C284.245 158.991 280.879 162.52 276.806 165.062C272.99 167.255 269.542 167.497 267.011 166.096V163.429C267.14 160.655 267.932 157.952 269.32 155.546C270.709 153.141 272.653 151.103 274.99 149.603L277.569 148.115C279.849 146.801 282.071 146.627 283.81 147.642C285.548 148.656 286.592 150.791 286.592 153.506Z" fill="#3FCFFF"/>
<path opacity="0.4" d="M283.066 123.525L289.345 127.178C286.138 125.313 281.704 125.574 276.787 128.405C270.372 132.115 264.75 139.294 261.64 146.985L255.351 143.342C258.471 135.612 264.045 128.472 270.498 124.762C275.425 121.941 279.859 121.67 283.066 123.525Z" fill="white"/>
<path opacity="0.2" d="M264.035 170.473L258.017 166.985C254.791 165.149 252.781 161.188 252.781 155.487L259.07 159.139C259.109 164.647 260.963 168.569 264.035 170.473Z" fill="white"/>
<path opacity="0.1" d="M255.37 143.342L261.659 146.985C260.048 150.835 259.182 154.956 259.109 159.13L252.82 155.477C252.897 151.308 253.763 147.19 255.37 143.342Z" fill="white"/>
<path d="M274.565 147.506C273.966 147.513 273.375 147.359 272.855 147.062C272.228 146.644 271.725 146.064 271.401 145.383C271.076 144.703 270.941 143.948 271.01 143.197C271.092 141.437 271.594 139.722 272.475 138.195C273.356 136.669 274.589 135.376 276.072 134.424C276.668 133.948 277.393 133.664 278.153 133.607C278.913 133.55 279.673 133.724 280.332 134.106C280.992 134.488 281.521 135.061 281.85 135.748C282.179 136.436 282.293 137.207 282.177 137.96C282.094 139.72 281.591 141.435 280.71 142.961C279.829 144.487 278.597 145.78 277.115 146.733C276.348 147.212 275.468 147.479 274.565 147.506Z" fill="white"/>
<path d="M283.81 147.632C282.071 146.617 279.849 146.791 277.569 148.105L274.99 149.593C272.651 151.094 270.707 153.134 269.318 155.541C267.93 157.948 267.139 160.653 267.011 163.429V166.106C269.542 167.507 272.99 167.265 276.806 165.072C280.879 162.53 284.245 159 286.592 154.811V153.516C286.592 150.791 285.587 148.656 283.81 147.632Z" fill="white"/>
<path d="M482.402 314.784C482.402 314.784 483.687 303.499 489.299 294.735C494.912 285.972 502.621 280.513 509.817 279.943C517.014 279.373 522.83 286.001 515.13 290.571C507.431 295.141 493.753 299.759 487.454 316.765L482.402 314.784Z" fill="#3FCFFF"/>
<path opacity="0.1" d="M482.402 314.784C482.402 314.784 483.687 303.499 489.299 294.735C494.912 285.972 502.621 280.513 509.817 279.943C517.014 279.373 522.83 286.001 515.13 290.571C507.431 295.141 493.753 299.759 487.454 316.765L482.402 314.784Z" fill="white"/>
<path d="M484.518 311.847H484.44C484.346 311.808 484.27 311.733 484.23 311.639C484.19 311.545 484.19 311.439 484.228 311.344C491.821 292.648 506.272 284.832 512.86 283.324C512.91 283.313 512.961 283.311 513.011 283.32C513.061 283.328 513.109 283.346 513.152 283.373C513.195 283.4 513.233 283.435 513.262 283.477C513.292 283.518 513.313 283.565 513.324 283.614C513.335 283.664 513.337 283.715 513.329 283.765C513.32 283.815 513.302 283.863 513.275 283.906C513.248 283.949 513.213 283.987 513.172 284.016C513.13 284.046 513.084 284.067 513.034 284.078C506.581 285.566 492.41 293.238 484.943 311.644C484.905 311.721 484.843 311.783 484.766 311.82C484.688 311.857 484.601 311.866 484.518 311.847Z" fill="white"/>
<path d="M522.946 312.069C522.298 313.538 520.695 314.31 519.207 314.91C517.719 315.509 516.097 316.156 515.285 317.547C513.662 320.349 516.328 324.311 514.59 327.026C514.18 327.572 513.665 328.03 513.073 328.372C512.482 328.714 511.828 328.933 511.151 329.016C510.04 329.219 508.909 329.219 507.789 329.316C507.252 329.308 506.717 329.267 506.185 329.19C504.624 328.842 502.992 329.015 501.539 329.683C499.307 330.939 498.641 333.75 497.269 335.924C496.431 337.204 495.326 338.288 494.031 339.102C492.736 339.916 491.28 340.44 489.763 340.639C488.797 340.765 486.865 340.949 485.899 340.378C485.823 340.341 485.752 340.296 485.687 340.243C485.542 340.089 485.368 339.886 485.29 339.779C485.285 339.757 485.285 339.734 485.29 339.712C484.894 338.253 485.542 336.746 485.571 335.238V334.968C485.503 333.219 485.455 331.48 485.416 329.741C485.332 326.52 485.3 323.299 485.319 320.079C485.319 317.992 485.088 315.711 485.976 313.75C486.942 311.586 489.377 311.538 490.294 309.422C490.661 308.571 490.855 307.673 491.212 306.813C491.764 305.563 492.649 304.488 493.77 303.706C494.891 302.924 496.205 302.465 497.568 302.378C501.809 302.165 505.606 305.595 509.846 305.277C510.938 305.19 512.01 304.851 513.092 304.658C516.522 304.011 520.492 304.987 522.424 307.895C522.848 308.494 523.117 309.188 523.208 309.916C523.299 310.645 523.209 311.384 522.946 312.069Z" fill="#009BCE"/>
<path d="M484.865 333.016C484.774 332.989 484.697 332.928 484.65 332.845C484.603 332.762 484.59 332.664 484.614 332.572C490.468 310.6 513.594 307.45 519.033 307.818C519.081 307.82 519.128 307.832 519.171 307.853C519.214 307.874 519.252 307.903 519.284 307.939C519.316 307.975 519.34 308.017 519.354 308.063C519.369 308.108 519.375 308.156 519.371 308.204C519.361 308.298 519.316 308.385 519.244 308.446C519.172 308.507 519.079 308.538 518.985 308.533C513.681 308.156 491.038 311.257 485.31 332.765C485.283 332.856 485.221 332.933 485.138 332.98C485.055 333.027 484.958 333.04 484.865 333.016Z" fill="white"/>
<path d="M510.59 321.885C510.517 321.875 510.449 321.841 510.397 321.789C508.259 319.935 505.738 318.577 503.015 317.81C500.291 317.044 497.432 316.888 494.641 317.354C494.547 317.363 494.453 317.336 494.378 317.278C494.303 317.221 494.252 317.138 494.236 317.045C494.222 316.95 494.245 316.854 494.301 316.776C494.357 316.699 494.441 316.646 494.535 316.629C497.446 316.145 500.427 316.31 503.267 317.114C506.106 317.917 508.732 319.339 510.957 321.277C510.991 321.31 511.019 321.35 511.037 321.394C511.056 321.438 511.065 321.485 511.065 321.533C511.065 321.58 511.056 321.628 511.037 321.672C511.019 321.716 510.991 321.755 510.957 321.789C510.914 321.841 510.855 321.878 510.789 321.896C510.723 321.913 510.654 321.909 510.59 321.885Z" fill="white"/>
<path d="M429.243 49.4179L432.314 50.5966V43.8333C432.314 38.4612 436.594 37.1762 441.24 39.8622C445.897 42.5482 449.664 49.07 449.664 54.4421V55.4083C450.312 55.2104 450.995 55.1615 451.665 55.2652C452.334 55.369 452.971 55.6227 453.528 56.0073C455.292 57.158 456.76 58.7088 457.813 60.5337C458.865 62.3586 459.472 64.4062 459.585 66.5099V66.9543L463.874 69.4278C465.034 70.1854 466 71.2055 466.693 72.4057C467.386 73.6058 467.787 74.9523 467.864 76.3361C467.864 78.8869 466.077 79.9207 463.874 78.6453L429.243 58.6354C428.081 57.8796 427.115 56.8597 426.424 55.659C425.732 54.4583 425.334 53.111 425.263 51.7271C425.263 49.186 427.03 48.1522 429.243 49.4179Z" fill="#E6E6E6"/>
<path d="M470.385 44.0651L475.959 47.2826C475.928 47.0389 475.912 46.7937 475.91 46.5482V44.9347C475.91 42.0361 477.92 40.896 480.412 42.3356C481.483 42.9915 482.399 43.8716 483.098 44.9154C483.503 41.3018 486.343 39.9588 489.782 41.9395C491.748 43.2185 493.384 44.9425 494.559 46.972C495.734 49.0015 496.414 51.2793 496.544 53.6208V56.0363C496.569 57.0014 496.374 57.9596 495.975 58.8383L500.611 61.505C501.334 61.9843 501.934 62.6265 502.364 63.3799C502.793 64.1334 503.04 64.977 503.084 65.8432C503.084 67.4374 501.964 68.0848 500.582 67.2925L470.385 49.9009C469.655 49.425 469.047 48.783 468.612 48.0273C468.177 47.2716 467.928 46.4238 467.883 45.5531C467.883 43.9202 469.004 43.2728 470.385 44.0651Z" fill="#E6E6E6"/>
<path d="M448.804 190.705C444.747 197.565 440.844 203.526 438.101 206.386C432.894 208.802 420.664 212.531 415.883 213.15C415.043 213.257 414.192 213.058 413.487 212.589C411.603 211.352 410.144 211.149 408.164 210.463C406.609 209.932 405.952 209.188 405.662 209.497C405.363 209.848 405.212 210.302 405.243 210.763C405.274 211.223 405.483 211.653 405.826 211.961C406.569 212.667 407.393 213.283 408.28 213.797C406.159 214.323 403.946 214.363 401.808 213.913C397.664 212.821 395.712 214.811 398.514 219.314C399.48 220.918 403.46 223.498 411.458 222.802C414.312 222.648 417.153 222.325 419.969 221.836C427.639 220.193 436.169 218.609 441.414 217.005C443.365 216.237 445.112 215.027 446.515 213.468C455.334 203.41 458.261 196.241 462.125 189.729L461.797 179.101C455.537 178.888 452.195 184.966 448.804 190.705Z" fill="#FFA8A7"/>
<path d="M462.869 178.888C461.054 178.633 459.204 178.879 457.518 179.599C455.833 180.32 454.376 181.487 453.306 182.975C449.017 188.473 441.424 201.671 441.424 201.671C441.424 201.671 443.907 208.29 450.611 209.401L461.382 194.85C461.382 194.85 466.482 184.743 462.869 178.888Z" fill="#455A64"/>
<path d="M486.16 327.238H479.137V339.76H486.16V327.238Z" fill="#FFA8A7"/>
<path d="M461.816 326.571L454.803 326.823L454.446 313.566L461.816 313.315V326.571Z" fill="#FFA8A7"/>
<path d="M487.145 218.84C487.145 225.816 486.121 282.02 486.121 282.02C486.276 284.03 488.053 287.74 487.696 295.46C487.165 305.943 486.459 333.499 486.459 333.499C485.254 334.116 483.924 334.451 482.57 334.477C481.216 334.504 479.873 334.222 478.644 333.654C478.644 333.654 472.945 295.006 471.689 284.658C470.588 275.585 467.767 245.556 467.767 245.556L463.971 281.054C464.775 284.863 465.068 288.762 464.84 292.648C464.512 297.479 462.251 322.484 462.251 322.484C461.038 323.2 459.678 323.631 458.273 323.743C456.869 323.855 455.458 323.646 454.146 323.132C454.146 323.132 450.147 285.45 450.07 281.025C449.973 276.001 452.407 218.782 452.407 218.782L487.145 218.84Z" fill="#37474F"/>
<path d="M479.137 336.146V335.103C478.461 335.402 476.905 341.605 474.114 344.253C471.901 346.359 468.888 348.784 468.115 351.132C467.342 353.48 472.317 354.92 474.394 354.543C476.789 354.098 480.963 352.33 482.006 350.678C483.049 349.026 483.542 346.63 484.392 345.432C485.242 344.234 487.203 342.9 487.657 341.509C487.799 340.207 487.664 338.89 487.261 337.644C486.933 336.349 486.585 334.929 486.16 335.055V335.847C485.17 336.66 483.925 337.098 482.644 337.084C481.62 337.171 479.127 336.958 479.137 336.146Z" fill="#263238"/>
<path d="M454.726 324.562C454.359 324.562 454.059 325.112 453.258 326.021C452.065 327.275 450.671 328.32 449.133 329.112C446.505 330.484 441.405 332.591 439.076 333.683C437.627 334.359 437.695 336.175 439.192 337.209C440.69 338.243 444.293 338.987 448.621 337.982C450.978 337.431 454.05 335.161 456.001 335.286C457.952 335.412 461.575 335.373 463.014 334.32C464.454 333.267 463.874 331.083 463.468 329.199C463.024 327.132 462.502 323.914 461.816 324.059V324.784C460.976 326.117 456.619 326.658 454.765 325.682L454.726 324.562Z" fill="#263238"/>
<path d="M467.767 245.556C464.114 244.36 460.774 242.363 457.991 239.71C457.991 239.71 459.923 243.392 465.487 246.822L464.289 278.522L467.767 245.556Z" fill="#263238"/>
<path d="M483.223 179.912C483.223 179.912 489.019 181.246 488.604 191.719L487.396 208.386V233.411C482.238 239.266 459.382 238.841 451.509 232.947C451.509 232.947 452.398 203.333 452.929 191.932C453.306 183.835 455.17 179.758 463.13 178.869L472.916 179.294L483.223 179.912Z" fill="#3FCFFF"/>
<path d="M475.843 158.154C475.876 159.556 475.632 160.951 475.123 162.258C474.615 163.565 473.853 164.759 472.882 165.77C471.91 166.782 470.748 167.591 469.462 168.151C468.177 168.711 466.793 169.011 465.391 169.033C459.595 169.033 456.194 164.028 454.938 158.154C452.62 147.4 459.614 147.265 465.391 147.265C468.22 147.323 470.911 148.503 472.871 150.545C474.831 152.587 475.9 155.324 475.843 158.154Z" fill="#263238"/>
<path d="M481.175 162.55C481.175 162.55 479.572 170.395 478.924 171.69C478.517 172.469 477.825 173.061 476.992 173.342L477.108 167.825L481.175 162.55Z" fill="#263238"/>
<path d="M479.156 151.313C479.156 151.313 480.306 151.023 481.533 152.936C482.576 154.569 482.818 158.241 481.175 162.598L478.152 162.965L479.156 151.313Z" fill="#263238"/>
<path d="M480.267 152.907L483.977 152.975C484.002 152.735 483.978 152.493 483.905 152.263C483.832 152.033 483.712 151.821 483.554 151.639C483.395 151.458 483.2 151.311 482.982 151.208C482.764 151.106 482.527 151.049 482.286 151.042C481.779 151.05 481.292 151.244 480.92 151.588C480.547 151.932 480.315 152.402 480.267 152.907Z" fill="#263238"/>
<path d="M480.721 152.028L483.465 149.39C483.307 149.204 483.112 149.052 482.892 148.945C482.672 148.838 482.433 148.777 482.189 148.767C481.945 148.757 481.701 148.798 481.473 148.887C481.246 148.976 481.039 149.111 480.866 149.284C480.502 149.64 480.285 150.119 480.259 150.628C480.232 151.136 480.397 151.636 480.721 152.028Z" fill="#263238"/>
<path d="M477.244 162.917C477.852 163.294 478.712 162.086 479.465 161.265C480.219 160.444 482.557 159.69 483.774 162.357C484.991 165.023 482.914 167.661 481.175 168.531C478.055 170.077 477.07 167.825 477.07 167.825L476.809 180.251C472.423 187.014 462.473 186.801 466.057 179.922V176.144C464.583 176.389 463.086 176.467 461.594 176.376C459.16 175.99 457.633 173.99 456.89 171.246C455.711 166.84 455.257 163.284 456.262 154.617C457.363 145.129 467.97 145.023 473.65 148.82C479.33 152.617 477.244 162.917 477.244 162.917Z" fill="#FFA8A7"/>
<path d="M464.029 153.139C466.559 152.888 469.061 152.366 471.602 152.173C472.15 152.107 472.705 152.133 473.244 152.25C475.176 152.782 474.944 155.043 475.254 156.617C475.785 159.342 476.22 163.951 477.244 163.97C477.553 163.97 478.712 161.97 479.465 161.255C479.88 160.639 480.114 159.92 480.142 159.178C480.335 158.057 480.431 156.907 480.518 155.767C480.596 154.801 480.692 153.835 480.692 152.869C480.736 151.777 480.649 150.683 480.431 149.612C480.189 148.701 479.724 147.865 479.079 147.178L478.886 146.965C477.612 145.634 476.067 144.592 474.355 143.912C471.892 142.989 469.309 142.426 466.685 142.24C464.065 142.055 461.456 141.732 458.87 141.274C458.722 141.231 458.564 141.231 458.416 141.274C458.311 141.332 458.223 141.416 458.158 141.517C458.094 141.618 458.057 141.734 458.049 141.854C457.943 142.454 458.009 143.072 458.24 143.637C458.471 144.201 458.857 144.688 459.353 145.042C457.605 145.178 455.595 144.269 453.914 143.806C453.778 143.748 453.632 143.718 453.485 143.718C453.337 143.718 453.191 143.748 453.055 143.806C452.886 143.924 452.766 144.099 452.717 144.298C452.594 144.752 452.578 145.228 452.668 145.69C452.822 147.088 453.342 148.421 454.175 149.555C455.477 151.25 457.317 152.453 459.392 152.965C460.919 153.26 462.483 153.318 464.029 153.139Z" fill="#263238"/>
<path d="M466.067 176.144C466.067 176.144 471.496 175.004 473.389 173.951C474.517 173.334 475.433 172.391 476.017 171.246C475.732 172.396 475.223 173.48 474.519 174.434C473.138 176.289 466.067 177.642 466.067 177.642V176.144Z" fill="#F28F8F"/>
<path d="M467.371 161.497C467.36 161.795 467.468 162.085 467.671 162.304C467.874 162.523 468.155 162.653 468.453 162.666C468.69 162.685 468.927 162.633 469.133 162.515C469.339 162.398 469.505 162.22 469.609 162.007C469.713 161.793 469.75 161.553 469.715 161.318C469.681 161.084 469.576 160.865 469.414 160.69C469.253 160.516 469.043 160.395 468.811 160.342C468.58 160.289 468.338 160.307 468.117 160.395C467.896 160.482 467.707 160.634 467.573 160.83C467.44 161.027 467.37 161.259 467.371 161.497Z" fill="#263238"/>
<path d="M469.11 156.811L471.438 158.154C471.607 157.823 471.646 157.44 471.545 157.082C471.445 156.723 471.214 156.416 470.897 156.221C470.743 156.135 470.572 156.081 470.396 156.064C470.219 156.047 470.042 156.067 469.874 156.122C469.705 156.178 469.551 156.268 469.419 156.386C469.288 156.505 469.182 156.649 469.11 156.811Z" fill="#263238"/>
<path d="M466.55 169.333L464.067 170.299C464.117 170.469 464.202 170.627 464.315 170.764C464.429 170.9 464.569 171.011 464.728 171.091C464.886 171.171 465.06 171.217 465.237 171.227C465.414 171.237 465.591 171.21 465.758 171.149C466.096 171.003 466.366 170.735 466.513 170.397C466.66 170.06 466.673 169.679 466.55 169.333Z" fill="#F28F8F"/>
<path d="M457.382 157.806L459.508 156.105C459.412 155.957 459.287 155.83 459.14 155.733C458.992 155.637 458.826 155.572 458.652 155.544C458.478 155.516 458.3 155.524 458.129 155.569C457.959 155.615 457.8 155.695 457.663 155.806C457.379 156.047 457.193 156.384 457.141 156.752C457.09 157.121 457.176 157.496 457.382 157.806Z" fill="#263238"/>
<path d="M458.319 161.178C458.336 161.389 458.414 161.591 458.544 161.759C458.674 161.927 458.85 162.053 459.05 162.122C459.25 162.192 459.467 162.201 459.672 162.15C459.878 162.099 460.064 161.988 460.208 161.833C460.352 161.677 460.448 161.483 460.484 161.274C460.519 161.065 460.493 160.85 460.409 160.655C460.324 160.461 460.185 160.295 460.007 160.179C459.83 160.062 459.623 160 459.411 159.999C459.262 160.004 459.115 160.039 458.979 160.101C458.843 160.163 458.721 160.251 458.619 160.361C458.518 160.47 458.439 160.599 458.388 160.739C458.336 160.879 458.313 161.029 458.319 161.178Z" fill="#263238"/>
<path d="M464.144 160.27L464.019 167.139L460.116 166.25L464.144 160.27Z" fill="#F28F8F"/>
<path d="M371.465 217.807L377.522 214.309L379.918 211.401L373.871 214.898L371.465 217.807Z" fill="#FFCE0C"/>
<path opacity="0.4" d="M371.465 217.807L377.522 214.309L379.918 211.401L373.871 214.898L371.465 217.807Z" fill="black"/>
<path d="M387.936 227.314L393.993 223.816L399.045 219.343L392.998 222.831L387.936 227.314Z" fill="#FFCE0C"/>
<path opacity="0.4" d="M387.936 227.314L393.993 223.816L399.045 219.343L392.998 222.831L387.936 227.314Z" fill="black"/>
<path d="M439.386 239.382C440.818 241.302 441.684 243.584 441.888 245.971C440.462 244.048 439.596 241.767 439.386 239.382ZM453.46 239.565C451.422 225.7 443.974 211.99 435.106 206.86C430.846 204.396 426.905 204.309 423.746 206.154L418.046 209.439L417.728 209.633C417.474 209.772 417.229 209.927 416.993 210.096C416.525 210.419 416.086 210.781 415.68 211.179L415.486 211.362C415.313 211.536 415.129 211.739 414.965 211.932C414.801 212.125 414.549 212.425 414.356 212.686C413.946 213.226 413.575 213.794 413.245 214.386C413.071 214.686 412.907 215.005 412.753 215.352L362.974 186.618L356.927 190.106V193.971L357.439 194.26L357.922 194.541V195.314L356.956 195.884V198.125L364.269 213.584L371.494 217.768L373.9 214.869L380.275 218.686L383.937 224.956L387.974 227.285L393.027 222.802L399.228 226.386L401.315 234.995L411.738 241.024C412.253 243.215 412.899 245.374 413.67 247.488C413.738 247.701 413.825 247.923 413.912 248.165C417.37 257.247 422.867 265.025 429.069 268.609C429.812 269.05 430.591 269.428 431.397 269.74C431.823 269.909 432.258 270.054 432.701 270.174C433.087 270.278 433.474 270.365 433.86 270.435C435.08 270.658 436.33 270.658 437.55 270.435L438.052 270.31C438.293 270.261 438.528 270.193 438.758 270.107L439.299 269.894C439.49 269.825 439.674 269.738 439.849 269.633C440.028 269.556 440.202 269.469 440.371 269.373L440.622 269.218C440.668 269.203 440.71 269.18 440.748 269.15C442.129 268.358 445.529 266.387 446.457 265.865C451.055 263.199 454.03 256.454 454.03 246.918C454.022 244.456 453.832 241.999 453.46 239.565Z" fill="#FFCE0C"/>
<path d="M437.618 251.082C435.222 249.701 433.29 245.604 433.29 241.933C433.29 238.261 435.222 236.396 437.618 237.768C440.013 239.14 441.936 243.247 441.936 246.928C441.936 250.609 440.004 252.464 437.618 251.082ZM447.403 243.053C445.375 229.198 437.927 215.478 429.049 210.357C424.934 207.98 421.128 207.806 418.037 209.439L417.718 209.633C417.464 209.772 417.219 209.927 416.984 210.096C416.516 210.419 416.076 210.781 415.67 211.178L415.477 211.362C415.303 211.536 415.119 211.739 414.955 211.932C414.791 212.125 414.54 212.425 414.347 212.686C413.937 213.226 413.565 213.794 413.236 214.386C413.062 214.686 412.898 215.005 412.743 215.352C411.842 217.22 411.193 219.199 410.811 221.237L356.917 190.106V193.971L357.429 194.26L357.912 194.541V195.314L356.946 195.884V198.125L364.259 213.584L371.485 217.768L373.89 214.869L380.266 218.686L383.927 224.956L387.965 227.285L393.017 222.802L399.219 226.386L401.305 234.995L411.738 241.024C412.254 243.215 412.899 245.374 413.67 247.488C413.738 247.701 413.825 247.923 413.912 248.164C417.37 257.247 422.867 265.025 429.069 268.609C429.812 269.05 430.591 269.428 431.397 269.74C431.823 269.909 432.258 270.054 432.701 270.174C433.087 270.278 433.474 270.364 433.86 270.435C435.08 270.658 436.33 270.658 437.55 270.435L438.052 270.31C438.293 270.261 438.528 270.193 438.758 270.107L439.299 269.894C439.49 269.825 439.674 269.738 439.849 269.633C440.028 269.556 440.202 269.469 440.371 269.372L440.622 269.218C440.668 269.203 440.71 269.18 440.748 269.15C445.153 266.368 447.983 259.72 447.983 250.416C447.967 247.951 447.773 245.49 447.403 243.053Z" fill="#FFCE0C"/>
<path opacity="0.4" d="M441.936 246.918C441.936 250.599 440.004 252.464 437.618 251.082C435.232 249.701 433.29 245.614 433.29 241.933C433.29 238.251 435.222 236.387 437.618 237.768C438.308 238.188 438.908 238.74 439.386 239.391C439.593 241.777 440.459 244.059 441.888 245.981C441.923 246.292 441.939 246.605 441.936 246.918Z" fill="#5A4800"/>
<path opacity="0.4" d="M454.011 246.908C454.011 256.445 451.036 263.189 446.438 265.856C445.472 266.377 442.11 268.348 440.728 269.141C445.133 266.358 447.964 259.711 447.964 250.406C447.954 247.945 447.766 245.488 447.404 243.053C445.375 229.198 437.927 215.478 429.049 210.357C424.934 207.98 421.128 207.807 418.037 209.439L423.736 206.154C426.895 204.309 430.836 204.396 435.097 206.86C443.974 211.99 451.422 225.7 453.451 239.565C453.819 241.996 454.006 244.45 454.011 246.908Z" fill="white"/>
<path d="M447.964 250.387C447.964 259.691 445.133 266.339 440.728 269.121C442.11 268.329 445.51 266.358 446.438 265.836C451.036 263.17 454.011 256.425 454.011 246.889C454.011 246.541 454.011 246.184 454.011 245.826L447.964 249.324C447.954 249.701 447.964 250.049 447.964 250.387Z" fill="#AD8A00"/>
<path opacity="0.1" d="M447.964 250.387C447.964 259.691 445.133 266.339 440.728 269.121C442.11 268.329 445.51 266.358 446.438 265.836C451.036 263.17 454.011 256.425 454.011 246.889C454.011 246.541 454.011 246.184 454.011 245.826L447.964 249.324C447.954 249.701 447.964 250.049 447.964 250.387Z" fill="white"/>
<path opacity="0.15" d="M411.043 225.188V227.15L356.927 195.903L357.922 195.323V194.512L411.043 225.188Z" fill="white"/>
<path opacity="0.15" d="M411.043 226V227.15L356.927 195.903L357.922 195.323V195.314L411.043 226Z" fill="white"/>
<path opacity="0.15" d="M434.575 265.846C432.524 265.793 430.524 265.196 428.779 264.116C419.959 259.025 412.782 243.875 412.782 230.348C412.782 222.454 415.168 216.56 419.331 214.154C422.229 212.473 425.659 212.686 429.262 214.763C438.072 219.855 445.249 235.053 445.249 248.58C445.249 256.464 442.863 262.368 438.7 264.764C437.444 265.481 436.021 265.854 434.575 265.846ZM423.514 214.009C422.227 214.002 420.96 214.336 419.843 214.976C416.047 217.169 413.777 222.918 413.777 230.338C413.777 243.556 420.732 258.358 429.291 263.266C432.566 265.199 435.666 265.372 438.246 263.885C442.042 261.691 444.312 255.952 444.312 248.532C444.312 235.304 437.357 220.512 428.808 215.594C427.21 214.622 425.384 214.088 423.514 214.048V214.009Z" fill="white"/>
<path opacity="0.4" d="M412.704 215.333C411.804 217.201 411.154 219.179 410.772 221.217L356.879 190.086L362.926 186.598L412.704 215.333Z" fill="white"/>
<path d="M482.75 218.357C485.571 213.014 488.797 201.014 490.401 194.956C492.68 186.357 488.99 180.946 484.798 180.724C482.18 181.13 473.553 212.502 473.553 212.502C472.587 213.266 459.479 219.923 455.267 221.594C454.514 221.879 453.682 221.879 452.929 221.594C450.91 220.86 449.529 220.995 447.548 220.802C445.993 220.647 445.211 220.097 445.008 220.425C444.824 220.833 444.8 221.295 444.941 221.719C445.083 222.144 445.379 222.499 445.771 222.715C446.624 223.212 447.531 223.607 448.476 223.894C446.783 224.407 445.018 224.645 443.25 224.599C439.192 224.512 437.734 226.271 440.883 230.396C442.815 232.966 446.012 233.778 453.151 231.314C455.199 230.599 457.981 229.217 460.58 228.28C465.932 226.348 467.342 226.116 471.419 224.734C477.36 222.725 481.494 220.734 482.75 218.357Z" fill="#FFA8A7"/>
<path d="M483.223 179.912C485.687 180.251 488.053 180.801 489.512 182.811C490.971 184.821 492.14 187.642 490.71 195.323C489.615 200.725 488.15 206.045 486.324 211.246C486.324 211.246 480.586 213.7 474.49 207.478L478.683 191.265C478.683 191.265 479.359 180.724 483.223 179.912Z" fill="#455A64"/>
<defs>
<linearGradient id="paint0_linear_940_2591" x1="0.0925911" y1="385.887" x2="625.093" y2="385.887" gradientUnits="userSpaceOnUse">
<stop stop-color="#3FCFFF" stop-opacity="0.968627"/>
<stop offset="1" stop-color="#00E45F"/>
</linearGradient>
</defs>
</svg>
