<svg width="25" height="25" viewBox="0 0 25 25" fill="none" xmlns="http://www.w3.org/2000/svg">
<mask id="mask0_1126_181" style="mask-type:alpha" maskUnits="userSpaceOnUse" x="0" y="0" width="25" height="25">
<rect x="0.5" y="0.5" width="24" height="24" fill="#D9D9D9"/>
</mask>
<g mask="url(#mask0_1126_181)">
<path d="M5 21.5004C4.58333 21.5004 4.22917 21.3546 3.9375 21.0629C3.64583 20.7712 3.5 20.4171 3.5 20.0004V18.1004L7.5 14.5504V21.5004H5ZM8.5 21.5004V17.5004H16.5V21.5004H8.5ZM17.5 21.5004V13.3004L13.225 9.50039L16.25 6.82539L21 11.0504C21.1667 11.2004 21.2917 11.3712 21.375 11.5629C21.4583 11.7546 21.5 11.9587 21.5 12.1754V20.0004C21.5 20.4171 21.3542 20.7712 21.0625 21.0629C20.7708 21.3546 20.4167 21.5004 20 21.5004H17.5ZM3.5 16.7504V12.1754C3.5 11.9587 3.54167 11.7504 3.625 11.5504C3.70833 11.3504 3.83333 11.1837 4 11.0504L11.5 4.40039C11.6333 4.26706 11.7875 4.17122 11.9625 4.11289C12.1375 4.05456 12.3167 4.02539 12.5 4.02539C12.6833 4.02539 12.8625 4.05456 13.0375 4.11289C13.2125 4.17122 13.3667 4.26706 13.5 4.40039L15.5 6.17539L3.5 16.7504Z" fill="white"/>
</g>
</svg>
