<svg width="165" height="53" viewBox="0 0 165 53" fill="none" xmlns="http://www.w3.org/2000/svg">
<g clip-path="url(#clip0_466_1159)">
<mask id="mask0_466_1159" style="mask-type:luminance" maskUnits="userSpaceOnUse" x="-1" y="-1" width="168" height="41">
<path d="M166.086 -0.487305H-0.569824V39.9141H166.086V-0.487305Z" fill="white"/>
<path d="M5.10317 2.93632C5.55516 2.93632 6.02329 3.0655 6.50756 3.32377C7.02413 3.54971 7.41155 3.85646 7.66982 4.24391L19.4376 22.3557L17.0163 22.2589L29.0747 4.24391C29.6882 3.37215 30.4791 2.93632 31.4477 2.93632C32.2225 2.93632 32.9167 3.21074 33.53 3.7596C34.1434 4.30845 34.4502 5.01871 34.4502 5.89037V33.9299C34.4502 34.7692 34.1758 35.4796 33.6269 36.0606C33.0781 36.6095 32.3516 36.8839 31.4477 36.8839C30.5437 36.8839 29.8011 36.6095 29.22 36.0606C28.6712 35.4796 28.3967 34.7692 28.3967 33.9299V11.1205L30.2854 11.5564L20.4062 26.6173C20.1157 26.9724 19.7444 27.2792 19.2924 27.5375C18.8727 27.7957 18.4369 27.9087 17.9849 27.8764C17.5651 27.9087 17.1293 27.7957 16.6773 27.5375C16.2576 27.2792 15.9025 26.9724 15.6119 26.6173L6.36228 11.9923L7.6214 9.4256V33.9299C7.6214 34.7692 7.36311 35.4796 6.84656 36.0606C6.33 36.6095 5.65201 36.8839 4.81261 36.8839C4.00548 36.8839 3.34365 36.6095 2.82708 36.0606C2.31053 35.4796 2.05225 34.7692 2.05225 33.9299V5.89037C2.05225 5.08325 2.34281 4.38915 2.92395 3.80808C3.53735 3.22691 4.26377 2.93632 5.10317 2.93632ZM54.9028 37.3682C52.1585 37.3682 49.7695 36.8032 47.7355 35.6732C45.7338 34.5109 44.1842 32.9452 43.0865 30.9758C42.0211 29.0064 41.4884 26.7787 41.4884 24.2928C41.4884 21.3871 42.0695 18.9174 43.2317 16.8834C44.4263 14.8172 45.976 13.2352 47.8808 12.1375C49.7856 11.0398 51.8034 10.491 53.9342 10.491C55.5807 10.491 57.1304 10.83 58.5833 11.508C60.0683 12.1859 61.3759 13.1222 62.5058 14.3168C63.6359 15.479 64.5237 16.835 65.1694 18.3847C65.8473 19.9343 66.1863 21.5809 66.1863 23.3243C66.1541 24.0991 65.8474 24.7286 65.2662 25.213C64.6851 25.6972 64.0071 25.9394 63.2323 25.9394H44.7331L43.2802 21.0966H61.053L59.9876 22.0652V20.7576C59.9231 19.8214 59.5841 18.9819 58.9706 18.2394C58.3895 17.4968 57.647 16.9157 56.743 16.496C55.8713 16.0441 54.935 15.818 53.9342 15.818C52.9657 15.818 52.0617 15.9472 51.2223 16.2055C50.3829 16.4637 49.6565 16.8996 49.0431 17.513C48.4297 18.1263 47.9454 18.9496 47.5902 19.9828C47.2351 21.0159 47.0576 22.3234 47.0576 23.9054C47.0576 25.6488 47.4127 27.1338 48.1229 28.3607C48.8655 29.5552 49.8017 30.4753 50.9318 31.1211C52.094 31.7345 53.3208 32.0412 54.6122 32.0412C55.8068 32.0412 56.7592 31.9443 57.4694 31.7506C58.1797 31.5569 58.7447 31.3309 59.1643 31.0727C59.6163 30.7821 60.0199 30.5399 60.3751 30.3463C60.9562 30.0557 61.505 29.9103 62.0216 29.9103C62.7319 29.9103 63.313 30.1525 63.765 30.6367C64.2493 31.1211 64.4914 31.6861 64.4914 32.3318C64.4914 33.2034 64.0394 33.9944 63.1354 34.7047C62.296 35.4149 61.1177 36.0445 59.6002 36.5933C58.0828 37.1099 56.517 37.3682 54.9028 37.3682ZM84.9202 37.3682C82.176 37.3682 79.7868 36.8032 77.7529 35.6732C75.7513 34.5109 74.2016 32.9452 73.1038 30.9758C72.0385 29.0064 71.5058 26.7787 71.5058 24.2928C71.5058 21.3871 72.0869 18.9174 73.2492 16.8834C74.4437 14.8172 75.9934 13.2352 77.8982 12.1375C79.803 11.0398 81.8209 10.491 83.9516 10.491C85.5982 10.491 87.1478 10.83 88.6006 11.508C90.0858 12.1859 91.3933 13.1222 92.5233 14.3168C93.6532 15.479 94.541 16.835 95.1868 18.3847C95.8647 19.9343 96.2038 21.5809 96.2038 23.3243C96.1714 24.0991 95.8647 24.7286 95.2836 25.213C94.7024 25.6972 94.0245 25.9394 93.2497 25.9394H74.7504L73.2976 21.0966H91.0705L90.0051 22.0652V20.7576C89.9404 19.8214 89.6015 18.9819 88.9881 18.2394C88.4069 17.4968 87.6644 16.9157 86.7604 16.496C85.8887 16.0441 84.9525 15.818 83.9516 15.818C82.9831 15.818 82.0791 15.9472 81.2397 16.2055C80.4002 16.4637 79.6738 16.8996 79.0604 17.513C78.447 18.1263 77.9627 18.9496 77.6076 19.9828C77.2525 21.0159 77.0749 22.3234 77.0749 23.9054C77.0749 25.6488 77.43 27.1338 78.1403 28.3607C78.8829 29.5552 79.8192 30.4753 80.9491 31.1211C82.1113 31.7345 83.3382 32.0412 84.6296 32.0412C85.8241 32.0412 86.7765 31.9443 87.4869 31.7506C88.1971 31.5569 88.762 31.3309 89.1818 31.0727C89.6338 30.7821 90.0373 30.5399 90.3924 30.3463C90.9736 30.0557 91.5225 29.9103 92.039 29.9103C92.7492 29.9103 93.3304 30.1525 93.7824 30.6367C94.2666 31.1211 94.5088 31.6861 94.5088 32.3318C94.5088 33.2034 94.0568 33.9944 93.1528 34.7047C92.3134 35.4149 91.135 36.0445 89.6176 36.5933C88.1003 37.1099 86.5344 37.3682 84.9202 37.3682ZM119.199 37.3682C116.746 37.3682 114.453 36.9162 112.323 36.0123C110.192 35.1083 108.319 33.8653 106.705 32.2833C105.091 30.6691 103.815 28.8127 102.879 26.7142C101.975 24.6156 101.524 22.3557 101.524 19.9343C101.524 17.5129 101.975 15.253 102.879 13.1545C103.815 11.056 105.091 9.21571 106.705 7.63379C108.319 6.01955 110.192 4.76044 112.323 3.85646C114.453 2.95248 116.746 2.50049 119.199 2.50049C120.716 2.50049 122.186 2.66189 123.606 2.9848C125.026 3.30761 126.334 3.79192 127.529 4.43763C128.013 4.6959 128.368 5.05103 128.594 5.50302C128.852 5.92269 128.981 6.35852 128.981 6.81051C128.981 7.58541 128.723 8.27951 128.207 8.8929C127.69 9.5063 127.028 9.81304 126.221 9.81304C125.962 9.81304 125.689 9.78072 125.398 9.71618C125.139 9.65164 124.882 9.55478 124.623 9.4256C123.816 9.07047 122.961 8.79604 122.057 8.60231C121.153 8.40859 120.2 8.31173 119.199 8.31173C117.1 8.31173 115.179 8.84452 113.436 9.90991C111.725 10.943 110.353 12.3474 109.32 14.1231C108.319 15.8665 107.819 17.8035 107.819 19.9343C107.819 22.0329 108.319 23.9699 109.32 25.7457C110.353 27.5213 111.725 28.9418 113.436 30.0072C115.179 31.0404 117.1 31.5569 119.199 31.5569C120.168 31.5569 121.233 31.46 122.395 31.2663C123.558 31.0727 124.51 30.8143 125.252 30.4915L124.817 31.9443V23.6633L125.64 24.3897H120.265C119.425 24.3897 118.714 24.1153 118.134 23.5664C117.585 23.0175 117.31 22.3234 117.31 21.484C117.31 20.6446 117.585 19.9505 118.134 19.4016C118.714 18.8528 119.425 18.5783 120.265 18.5783H128.207C129.046 18.5783 129.74 18.8689 130.289 19.4501C130.838 19.999 131.113 20.693 131.113 21.5325V31.7991C131.113 32.4447 130.951 32.9774 130.628 33.3972C130.338 33.8168 129.999 34.1558 129.611 34.4141C128.126 35.3181 126.496 36.0445 124.72 36.5933C122.977 37.1099 121.136 37.3682 119.199 37.3682ZM163.04 23.9538C163.04 26.6011 162.443 28.9418 161.248 30.9758C160.085 32.9774 158.504 34.5433 156.502 35.6732C154.533 36.8032 152.321 37.3682 149.868 37.3682C147.414 37.3682 145.186 36.8032 143.185 35.6732C141.215 34.5433 139.633 32.9774 138.438 30.9758C137.277 28.9418 136.695 26.6011 136.695 23.9538C136.695 21.3064 137.277 18.9819 138.438 16.9803C139.633 14.9463 141.215 13.3643 143.185 12.2344C145.186 11.0722 147.414 10.491 149.868 10.491C152.321 10.491 154.533 11.0722 156.502 12.2344C158.504 13.3643 160.085 14.9463 161.248 16.9803C162.443 18.9819 163.04 21.3064 163.04 23.9538ZM157.229 23.9538C157.229 22.3073 156.89 20.8868 156.212 19.6922C155.566 18.4654 154.678 17.5129 153.549 16.835C152.451 16.157 151.223 15.818 149.868 15.818C148.511 15.818 147.269 16.157 146.139 16.835C145.041 17.5129 144.153 18.4654 143.475 19.6922C142.83 20.8868 142.507 22.3073 142.507 23.9538C142.507 25.5681 142.83 26.9886 143.475 28.2154C144.153 29.41 145.041 30.3463 146.139 31.0242C147.269 31.7022 148.511 32.0412 149.868 32.0412C151.223 32.0412 152.451 31.7022 153.549 31.0242C154.678 30.3463 155.566 29.41 156.212 28.2154C156.89 26.9886 157.229 25.5681 157.229 23.9538Z" fill="black"/>
</mask>
<g mask="url(#mask0_466_1159)">
<path d="M5.10335 0.884284C3.73506 0.884284 2.50448 1.37868 1.51275 2.31822L1.49278 2.33731L1.47324 2.35684C0.51518 3.31484 0.000244141 4.52785 0.000244141 5.89017V33.93C0.000244141 35.2286 0.415267 36.4359 1.29345 37.4238L1.31298 37.446L1.33296 37.4669C2.26697 38.4593 3.4845 38.9359 4.81257 38.9359C6.14662 38.9359 7.39051 38.4768 8.34102 37.4669L8.361 37.446L8.38053 37.4238C9.25875 36.4359 9.67373 35.2286 9.67373 33.93V21.0668L13.8779 27.7139L13.9449 27.82L14.0239 27.9168C14.4696 28.4615 15.0023 28.9159 15.6021 29.285L15.6305 29.3023L15.6594 29.3192C16.3015 29.6861 17.0409 29.9179 17.8392 29.9194L17.8387 29.9234C17.9035 29.9281 17.9655 29.9196 18.0296 29.9212C18.0677 29.9194 18.104 29.9255 18.1424 29.9225V29.9203C18.9225 29.9185 19.6557 29.7054 20.3088 29.3161L20.3106 29.3192C20.3197 29.314 20.3273 29.3067 20.3364 29.3015C20.3466 29.2953 20.3577 29.2913 20.3679 29.2851L20.3657 29.2815C20.9831 28.9208 21.5393 28.4731 21.9945 27.9168L22.0629 27.8329L22.1224 27.7428L26.3451 21.3052V33.93C26.3451 35.2643 26.8004 36.4869 27.7285 37.4695L27.7684 37.5121L27.811 37.5525C28.8238 38.509 30.094 38.9359 31.4478 38.9359C32.7992 38.9359 34.0809 38.5088 35.0779 37.5117L35.0988 37.4908L35.1187 37.4695C36.0468 36.4869 36.5025 35.2643 36.5025 33.93V5.89016C36.5025 4.47371 35.9752 3.19366 34.8986 2.23031C33.9344 1.36766 32.7608 0.884277 31.4478 0.884277C29.7367 0.884277 28.3494 1.70941 27.3968 3.06314L27.3831 3.08268L27.3697 3.10266L18.2387 16.7441L9.39054 3.12574L9.38428 3.11553L9.37721 3.10573C8.89036 2.37564 8.21501 1.86594 7.47225 1.51598L7.47359 1.51335C7.4633 1.5079 7.4515 1.50547 7.44118 1.50003C7.40359 1.4826 7.36812 1.46024 7.33019 1.44365L7.32575 1.45386C6.64424 1.11281 5.90146 0.884284 5.10335 0.884284ZM5.10335 4.98808C5.15361 4.98808 5.29179 5.00072 5.54197 5.13414L5.61211 5.17187L5.68536 5.20384C5.80446 5.25596 5.87447 5.30224 5.91222 5.33214C5.94797 5.36052 5.9594 5.37786 5.96238 5.38231L8.39696 9.12917L5.77948 8.52186L4.52001 11.0887L4.10449 11.9362V5.89017C4.10449 5.64813 4.17231 5.47627 4.35842 5.28197C4.58516 5.07501 4.80296 4.98808 5.10335 4.98808ZM31.4477 4.98808C31.6844 4.98808 31.8993 5.05394 32.162 5.28907C32.3121 5.42331 32.3982 5.56332 32.3982 5.89017V9.93803L30.7468 9.55713L28.8582 9.12118L28.357 9.00531L30.7548 5.42314C31.0279 5.0361 31.2223 4.98808 31.4477 4.98808ZM121.74 7.23398C121.748 7.425 121.701 7.6028 121.586 7.73342C121.736 7.71637 121.884 7.68657 122.032 7.65972C121.979 7.58193 121.923 7.49347 121.88 7.42976C121.834 7.36382 121.786 7.29993 121.74 7.23398ZM112.98 7.83463C112.779 7.94126 112.573 8.03369 112.376 8.15383C112.375 8.15439 112.374 8.1546 112.373 8.1552C112.371 8.15652 112.369 8.15743 112.366 8.15874C112.151 8.28872 111.959 8.4445 111.753 8.58448C111.919 8.50514 112.083 8.42525 112.255 8.35407C112.485 8.28367 112.712 8.20256 112.944 8.14276C112.951 8.08818 112.951 8.03351 112.959 7.97894C112.965 7.93078 112.973 7.88269 112.98 7.83463ZM53.9343 8.43884C51.4322 8.43884 49.0625 9.08856 46.8565 10.3598C44.6131 11.6527 42.8145 13.5056 41.4555 15.8562L41.4502 15.8655C40.0729 18.2757 39.4365 21.1151 39.4365 24.2929C39.4365 27.0814 40.037 29.6511 41.2819 31.9522L41.2882 31.9633L41.2944 31.9748C42.5768 34.2753 44.3934 36.1053 46.7052 37.4477L46.7221 37.4575L46.7394 37.4668C49.1287 38.7942 51.8729 39.4202 54.903 39.4202C56.7406 39.4202 58.53 39.1254 60.2618 38.5358L60.28 38.5296L60.2983 38.5229C61.9195 37.9365 63.3184 37.2166 64.4016 36.3156L64.4034 36.3183C64.4111 36.3122 64.417 36.3044 64.4247 36.2983C64.4361 36.2888 64.4499 36.2807 64.4611 36.2712L64.458 36.2677C65.6568 35.3062 66.5436 33.9949 66.5436 32.3317C66.5436 31.1307 66.0736 30.0755 65.2615 29.2401L65.2651 29.2365C65.2576 29.2286 65.2486 29.2236 65.2411 29.2157C65.2319 29.2063 65.2255 29.1952 65.2162 29.1859L65.2118 29.1904C64.6102 28.5662 63.8835 28.1752 63.0898 27.9913H63.2323C64.4744 27.9913 65.6204 27.5887 66.58 26.7891C67.6186 25.9236 68.1811 24.7463 68.2368 23.4094L68.2386 23.3667V23.3241C68.2386 21.319 67.8474 19.4036 67.0622 17.5964L67.064 17.5955C67.0608 17.5877 67.0566 17.5806 67.0534 17.5729C67.0518 17.5693 67.0509 17.5657 67.0493 17.5622C66.3115 15.8064 65.2943 14.2484 63.9958 12.9076L63.9967 12.9067C63.9934 12.9033 63.9901 12.9003 63.9869 12.8969C63.9835 12.8934 63.9805 12.8897 63.9771 12.8862L63.9762 12.8871C62.6746 11.5165 61.1626 10.4334 59.4506 9.64944C59.448 9.64822 59.4457 9.64663 59.4431 9.64542C59.4405 9.64421 59.4382 9.64259 59.4355 9.64138C57.7085 8.83876 55.8665 8.43884 53.9343 8.43884ZM83.9519 8.43884C81.4497 8.43884 79.0797 9.08856 76.8736 10.3598C74.6302 11.6527 72.8316 13.5056 71.4726 15.8562L71.4678 15.8655C70.0905 18.2757 69.4541 21.1151 69.4541 24.2929C69.4541 27.0814 70.0543 29.6511 71.2991 31.9522L71.3054 31.9633L71.3116 31.9748C72.5938 34.2753 74.411 36.1053 76.7228 37.4477L76.7397 37.4575L76.7566 37.4668C79.1459 38.7942 81.8901 39.4202 84.9202 39.4202C86.7577 39.4202 88.5473 39.1254 90.279 38.5358L90.2977 38.5296L90.3159 38.5229C91.9371 37.9365 93.336 37.2166 94.4192 36.3156L94.4211 36.3183C94.4287 36.3122 94.4347 36.3044 94.4424 36.2983C94.4537 36.2888 94.4675 36.2807 94.4788 36.2712L94.4756 36.2677C95.6744 35.3063 96.5611 33.995 96.5611 32.3318C96.5611 31.1308 96.0906 30.0756 95.2786 29.2402L95.2826 29.2366C95.2746 29.2281 95.2649 29.2229 95.2569 29.2144C95.2481 29.2055 95.2422 29.1949 95.2333 29.186L95.2293 29.1901C94.6276 28.5657 93.9007 28.1752 93.1068 27.9914H93.2498C94.4919 27.9914 95.638 27.5888 96.5975 26.7892C97.6361 25.9237 98.1982 24.7464 98.2539 23.4094L98.2561 23.3668V23.3242C98.2561 21.3189 97.8648 19.4034 97.0797 17.596L97.081 17.5956C97.0784 17.5895 97.0751 17.5839 97.0725 17.5778C97.0703 17.5728 97.0689 17.5674 97.0667 17.5623L97.0654 17.5627C96.3286 15.8062 95.312 14.2484 94.0133 12.9076L94.0142 12.9067C94.011 12.9032 94.0072 12.9003 94.004 12.8969C94.0007 12.8935 93.9979 12.8896 93.9947 12.8862L93.9938 12.8871C92.6917 11.5164 91.1802 10.4334 89.4683 9.64945C89.465 9.64794 89.4621 9.64604 89.4589 9.64452C89.4568 9.64355 89.4548 9.6424 89.4527 9.64139C87.7251 8.83886 85.8838 8.43884 83.9519 8.43884ZM9.67373 11.0945L15.7553 20.4541L15.3114 21.1174L14.926 21.6932L9.67373 13.3888V11.0945ZM26.3451 12.0112V13.8225L21.3192 21.485L21.1585 21.2377L20.6711 20.4879L26.3451 12.0112ZM32.3982 12.0769V33.93C32.3982 34.2583 32.3085 34.4507 32.1536 34.6239C32.0509 34.7212 31.8823 34.8321 31.4477 34.8321C31.0312 34.8321 30.8262 34.7254 30.6779 34.5994C30.5354 34.4317 30.4489 34.2442 30.4489 33.93V15.0487L32.0013 12.682L32.3982 12.0769ZM4.10449 12.2607L4.62834 13.0891L5.56949 14.5772V33.93C5.56949 34.2934 5.47282 34.5003 5.32932 34.6705C5.2477 34.7522 5.13409 34.8321 4.81257 34.8321C4.54564 34.8321 4.43913 34.7653 4.3451 34.6714C4.20125 34.5011 4.10449 34.2939 4.10449 33.93V12.2607ZM53.9343 12.5431C55.2893 12.5431 56.5421 12.8198 57.7158 13.3675L57.7234 13.371L57.7313 13.3746C58.9743 13.9421 60.0653 14.7229 61.0152 15.727L61.025 15.7372L61.0348 15.747C61.9463 16.6846 62.6703 17.7814 63.2145 19.0446H61.7096C61.4638 18.3015 61.0951 17.6053 60.5841 16.9767L60.5867 16.9745C60.58 16.9659 60.5721 16.9586 60.5654 16.9501C60.5607 16.9443 60.5572 16.9381 60.5525 16.9323L60.5507 16.9336C59.7822 15.9655 58.8154 15.2151 57.6865 14.6771L57.6878 14.6745C57.6754 14.6681 57.6624 14.6639 57.6501 14.6576C57.6354 14.6506 57.6222 14.6418 57.6074 14.635L57.6061 14.6381C56.4595 14.0592 55.2271 13.7662 53.9343 13.7662C52.7821 13.7662 51.6728 13.92 50.6189 14.2443C49.4638 14.5998 48.4452 15.2091 47.5921 16.0623C46.7741 16.8803 46.1832 17.9034 45.7569 19.0447H44.4712C44.6346 18.6469 44.8091 18.2602 45.0124 17.9042C46.0418 16.1258 47.3412 14.8167 48.9053 13.9154C50.5089 12.9913 52.1749 12.5431 53.9343 12.5431ZM83.9519 12.5431C85.3068 12.5431 86.5593 12.8198 87.7329 13.3675L87.7409 13.371L87.7485 13.3746C88.9915 13.9421 90.0829 14.7229 91.0327 15.727L91.0425 15.7372L91.0523 15.747C91.9639 16.6846 92.6878 17.7814 93.2321 19.0446H91.7266C91.481 18.3016 91.1127 17.6053 90.6017 16.9767L90.6043 16.9745C90.5976 16.9659 90.5897 16.9586 90.583 16.9501C90.5782 16.9443 90.5748 16.9381 90.5701 16.9323L90.5683 16.9336C89.7998 15.9656 88.8327 15.2151 87.704 14.6771L87.7053 14.6745C87.692 14.6676 87.6781 14.6631 87.6649 14.6563C87.651 14.6497 87.6384 14.6414 87.6245 14.635L87.6232 14.6381C86.4765 14.0593 85.2443 13.7662 83.9518 13.7662C82.7995 13.7662 81.6902 13.92 80.6364 14.2443C79.4812 14.5997 78.4627 15.2091 77.6096 16.0623C76.7915 16.8803 76.2007 17.9034 75.7743 19.0447H74.4887C74.6517 18.6478 74.8254 18.2621 75.0281 17.9068C76.0579 16.1269 77.3577 14.8172 78.9228 13.9153C80.5263 12.9913 82.1925 12.5431 83.9519 12.5431ZM53.9343 17.8699C54.6129 17.8699 55.2244 18.0198 55.7984 18.3174L55.8384 18.3383L55.8792 18.3569C56.2816 18.5438 56.6046 18.7826 56.8954 19.0446H50.4329C50.4537 19.0224 50.4734 18.9846 50.4942 18.9638C50.8679 18.5901 51.3024 18.328 51.826 18.1669C52.4509 17.9746 53.1495 17.8699 53.9343 17.8699ZM83.9519 17.8699C84.6305 17.8699 85.2419 18.0198 85.816 18.3174L85.8559 18.3383L85.8963 18.3569C86.2988 18.5438 86.6222 18.7826 86.9129 19.0446H80.4505C80.4712 19.0224 80.491 18.9846 80.5117 18.9638C80.8855 18.5901 81.3194 18.328 81.8431 18.1669C82.468 17.9746 83.167 17.8699 83.9519 17.8699ZM63.9314 21.2532C64.0609 21.9013 64.1274 22.5705 64.1312 23.2625C64.1187 23.4529 64.0703 23.5384 63.9527 23.6363C63.75 23.8053 63.5397 23.8871 63.2322 23.8871H61.0342L61.3681 23.5835L62.4335 22.6148L63.9314 21.2532ZM93.9485 21.2537C94.078 21.9016 94.1449 22.5707 94.1487 23.2625C94.1363 23.4529 94.0878 23.5384 93.9703 23.6363C93.7676 23.8053 93.5572 23.8871 93.2498 23.8871H91.0518L91.3857 23.5835L92.4511 22.6148L93.9485 21.2537ZM49.1553 23.1488H57.936V23.8871H49.1104C49.1107 23.6052 49.1429 23.4019 49.1553 23.1488ZM79.1728 23.1488H87.9531V23.8871H79.128C79.1283 23.6052 79.1605 23.4019 79.1728 23.1488ZM16.5713 24.2947L16.9344 24.3093L19.3557 24.4061L19.4018 24.4079L18.7901 25.3406C18.6785 25.4715 18.5238 25.6132 18.2742 25.7557L18.2454 25.7721L18.2169 25.7899C18.1647 25.8221 18.1382 25.8287 18.1357 25.8294C18.1369 25.8293 18.1363 25.8302 18.1312 25.8299L17.9794 25.8188L17.856 25.8285C17.8423 25.8249 17.7893 25.8011 17.7326 25.7726C17.5229 25.6403 17.3656 25.4982 17.2393 25.3513L16.5713 24.2947ZM125.734 27.4227C125.734 27.4255 125.734 27.428 125.734 27.4307C125.734 27.4339 125.735 27.4334 125.735 27.4364C125.735 27.4343 125.735 27.4323 125.735 27.4301C125.734 27.4276 125.734 27.4252 125.734 27.4227ZM44.081 27.9914H44.7331H45.6996C45.8801 28.474 46.0895 28.9435 46.3473 29.3889L46.3633 29.4169L46.3802 29.4439C47.2876 30.9038 48.4647 32.0746 49.9139 32.9027L49.9437 32.9196L49.9739 32.936C51.4259 33.7024 52.9809 34.0933 54.6122 34.0933C55.8909 34.0933 57.0488 33.9923 58.0097 33.7302C58.8251 33.5078 59.5934 33.218 60.24 32.8201L60.2573 32.8095L60.2742 32.7988C60.6813 32.5371 61.0236 32.3339 61.317 32.1724C61.6681 32.001 61.8983 31.9624 62.0216 31.9624C62.1403 31.9624 62.1905 31.9816 62.2009 31.9859C62.2081 31.9889 62.2274 31.9969 62.2648 32.037L62.2893 32.0628L62.3141 32.0876C62.3928 32.1662 62.4166 32.2152 62.4238 32.2319C62.4298 32.2461 62.4393 32.2725 62.4393 32.3318C62.4393 32.3848 62.4473 32.6358 61.8679 33.0909L61.8386 33.114L61.8102 33.138C61.2255 33.6328 60.2949 34.1564 58.9224 34.6549C57.6245 35.0947 56.2881 35.3159 54.9029 35.3159C52.4525 35.3159 50.4245 34.8142 48.749 33.8873C47.0703 32.9087 45.7957 31.6144 44.8863 29.9873C44.5495 29.3629 44.2931 28.6906 44.081 27.9914ZM50.3792 27.9914H60.9184C60.4121 28.1039 59.9218 28.2786 59.4574 28.5108L59.4249 28.5272L59.3926 28.545C58.9935 28.7627 58.5563 29.0267 58.0896 29.3258C57.8967 29.4445 57.5345 29.6061 56.9296 29.7711C56.4698 29.8965 55.7224 29.9891 54.6122 29.9891C53.6722 29.9891 52.784 29.7702 51.9215 29.321C51.3489 28.9891 50.8352 28.5502 50.3792 27.9914ZM74.0986 27.9914H74.7507H75.7172C75.8977 28.474 76.1066 28.9435 76.3644 29.3889L76.3809 29.4169L76.3977 29.4439C77.3052 30.9038 78.4817 32.0746 79.9311 32.9027L79.9608 32.9196L79.9914 32.936C81.4436 33.7024 82.9986 34.0933 84.6297 34.0933C85.9085 34.0933 87.0661 33.9923 88.0268 33.7302C88.8424 33.5078 89.6106 33.218 90.2572 32.8201L90.2745 32.8095L90.2918 32.7988C90.6989 32.5371 91.041 32.3339 91.3346 32.1724C91.6857 32.001 91.916 31.9624 92.0391 31.9624C92.158 31.9624 92.2081 31.9816 92.2185 31.9859C92.2257 31.9889 92.2449 31.9969 92.2824 32.037L92.3064 32.0628L92.3317 32.0876C92.4103 32.1662 92.4343 32.2152 92.4413 32.2319C92.4475 32.2461 92.4569 32.2725 92.4569 32.3318C92.4569 32.3848 92.4643 32.6358 91.8851 33.0909L91.8558 33.114L91.8274 33.138C91.2426 33.6328 90.3125 34.1564 88.94 34.6549C87.6421 35.0947 86.3052 35.3159 84.9201 35.3159C82.4697 35.3159 80.4421 34.8142 78.7666 33.8873C77.088 32.9087 75.8129 31.6144 74.9034 29.9873C74.5667 29.3629 74.3107 28.6906 74.0986 27.9914ZM80.3968 27.9914H90.9355C90.4293 28.1039 89.9392 28.2787 89.4749 28.5108L89.4421 28.5272L89.4101 28.545C89.0109 28.7627 88.5739 29.0271 88.1071 29.3263L88.1063 29.325C87.9134 29.4437 87.5521 29.6061 86.9471 29.7711C86.4873 29.8965 85.7401 29.9891 84.6297 29.9891C83.6898 29.9891 82.8015 29.7702 81.939 29.321C81.3664 28.9891 80.8527 28.5502 80.3968 27.9914Z" fill="white"/>
</g>
<path d="M100.958 19.1136C101.595 33.2649 113.392 37.8863 116.623 51.0929C125.045 31.8309 131.791 32.431 131.791 22.8659C131.841 16.9744 128.461 17.5424 124.245 17.5424C119.085 17.5424 116.288 17.7002 116.288 21.6522C116.288 24.3297 118.702 25.3162 120.074 25.2987C122.694 25.2654 120.876 25.2996 123.635 25.2996L123.661 29.7627C122.413 30.108 120.714 30.2879 118.783 30.2879C116.291 30.2879 108.987 28.4135 108.987 20.6873C108.987 13.6629 114.391 9.59129 119.254 9.65651C121.282 9.68372 123.719 10.5863 124.637 10.8377C126.432 11.3293 128.177 10.8746 129.029 9.40006C129.361 8.82436 130.534 6.53615 128.969 4.97179C127.033 3.03512 122.58 1.47738 116.989 2.13907C108.604 3.13142 100.958 9.94949 100.958 19.1136Z" stroke="url(#paint0_linear_466_1159)" stroke-width="2.04568" stroke-linecap="round" stroke-linejoin="round"/>
<path d="M149.738 31.0507C153.272 31.0507 156.137 27.8625 156.137 23.9296C156.137 19.9968 153.272 16.8086 149.738 16.8086C146.204 16.8086 143.339 19.9968 143.339 23.9296C143.339 27.8625 146.204 31.0507 149.738 31.0507Z" stroke="url(#paint1_linear_466_1159)" stroke-width="2.06341" stroke-linecap="round" stroke-linejoin="round"/>
<path d="M149.773 38.4362C157.644 38.4362 164.024 31.933 164.024 23.911C164.024 15.8889 157.644 9.38574 149.773 9.38574C141.902 9.38574 135.522 15.8889 135.522 23.911C135.522 31.933 141.902 38.4362 149.773 38.4362Z" stroke="url(#paint2_linear_466_1159)" stroke-width="1.95088" stroke-linecap="round" stroke-linejoin="round"/>
</g>
<defs>
<linearGradient id="paint0_linear_466_1159" x1="99.9347" y1="26.5354" x2="165" y2="26.5354" gradientUnits="userSpaceOnUse">
<stop stop-color="#00E45F"/>
<stop offset="1" stop-color="#3FCFFF"/>
</linearGradient>
<linearGradient id="paint1_linear_466_1159" x1="99.9347" y1="26.5353" x2="165" y2="26.5353" gradientUnits="userSpaceOnUse">
<stop stop-color="#00E45F"/>
<stop offset="1" stop-color="#3FCFFF"/>
</linearGradient>
<linearGradient id="paint2_linear_466_1159" x1="99.9345" y1="26.5355" x2="165" y2="26.5355" gradientUnits="userSpaceOnUse">
<stop stop-color="#00E45F"/>
<stop offset="1" stop-color="#3FCFFF"/>
</linearGradient>
<clipPath id="clip0_466_1159">
<rect width="165" height="51.2311" fill="white" transform="translate(0 0.884277)"/>
</clipPath>
</defs>
</svg>
