<svg width="25" height="25" viewBox="0 0 25 25" fill="none" xmlns="http://www.w3.org/2000/svg">
<mask id="mask0_1126_223" style="mask-type:alpha" maskUnits="userSpaceOnUse" x="0" y="0" width="25" height="25">
<rect x="0.5" y="0.5" width="24" height="24" fill="#D9D9D9"/>
</mask>
<g mask="url(#mask0_1126_223)">
<path d="M12.5 21.4999L11.05 20.1999C9.36667 18.6832 7.975 17.3749 6.875 16.2749C5.775 15.1749 4.9 14.1874 4.25 13.3124C3.6 12.4374 3.14583 11.6332 2.8875 10.8999C2.62917 10.1666 2.5 9.41657 2.5 8.6499C2.5 7.08324 3.025 5.7749 4.075 4.7249C5.125 3.6749 6.43333 3.1499 8 3.1499C8.86667 3.1499 9.69167 3.33324 10.475 3.6999C11.2583 4.06657 11.9333 4.58324 12.5 5.2499C13.0667 4.58324 13.7417 4.06657 14.525 3.6999C15.3083 3.33324 16.1333 3.1499 17 3.1499C18.5667 3.1499 19.875 3.6749 20.925 4.7249C21.975 5.7749 22.5 7.08324 22.5 8.6499C22.5 9.41657 22.3708 10.1666 22.1125 10.8999C21.8542 11.6332 21.4 12.4374 20.75 13.3124C20.1 14.1874 19.225 15.1749 18.125 16.2749C17.025 17.3749 15.6333 18.6832 13.95 20.1999L12.5 21.4999ZM12.5 18.7999C14.1 17.3666 15.4167 16.1374 16.45 15.1124C17.4833 14.0874 18.3 13.1957 18.9 12.4374C19.5 11.6791 19.9167 11.0041 20.15 10.4124C20.3833 9.82074 20.5 9.23324 20.5 8.6499C20.5 7.6499 20.1667 6.81657 19.5 6.1499C18.8333 5.48324 18 5.1499 17 5.1499C16.2167 5.1499 15.4917 5.37074 14.825 5.8124C14.1583 6.25407 13.7 6.81657 13.45 7.4999H11.55C11.3 6.81657 10.8417 6.25407 10.175 5.8124C9.50833 5.37074 8.78333 5.1499 8 5.1499C7 5.1499 6.16667 5.48324 5.5 6.1499C4.83333 6.81657 4.5 7.6499 4.5 8.6499C4.5 9.23324 4.61667 9.82074 4.85 10.4124C5.08333 11.0041 5.5 11.6791 6.1 12.4374C6.7 13.1957 7.51667 14.0874 8.55 15.1124C9.58333 16.1374 10.9 17.3666 12.5 18.7999Z" fill="white"/>
</g>
</svg>
