<svg width="528" height="518" viewBox="0 0 528 518" fill="none" xmlns="http://www.w3.org/2000/svg">
<g filter="url(#filter0_d_406_1332)">
<path d="M264 500C402.071 500 514 427.429 514 337.908C514 248.388 402.071 175.817 264 175.817C125.929 175.817 14 248.388 14 337.908C14 427.429 125.929 500 264 500Z" fill="url(#paint0_linear_406_1332)" fill-opacity="0.968627"/>
</g>
<path d="M154.541 437.043C167.885 437.043 178.702 430.032 178.702 421.383C178.702 412.735 167.885 405.723 154.541 405.723C141.198 405.723 130.38 412.735 130.38 421.383C130.38 430.032 141.198 437.043 154.541 437.043Z" fill="#1C1C1C" fill-opacity="0.735185"/>
<path d="M158.768 335.381L111.089 304.469L31.6338 355.986L79.3027 386.899L158.768 335.381Z" fill="#1C1C1C" fill-opacity="0.805556"/>
<path d="M226.795 410.936C209.131 422.384 209.131 440.953 226.795 452.401C244.46 463.849 273.097 463.849 290.761 452.401C308.426 440.953 308.374 422.384 290.761 410.936C273.149 399.487 244.46 399.487 226.795 410.936Z" fill="#1C1C1C" fill-opacity="0.72963"/>
<path d="M223.024 381.082L150.822 334.264C150.54 334.156 150.296 333.951 150.123 333.679C149.95 333.407 149.857 333.08 149.857 332.746C149.857 332.412 149.95 332.086 150.123 331.813C150.296 331.541 150.54 331.337 150.822 331.228L294.077 238.408C294.803 237.995 295.605 237.78 296.419 237.78C297.232 237.78 298.034 237.995 298.76 238.408L370.963 285.225C371.244 285.334 371.489 285.539 371.662 285.811C371.835 286.083 371.927 286.409 371.927 286.743C371.927 287.078 371.835 287.404 371.662 287.676C371.489 287.948 371.244 288.153 370.963 288.262L227.707 381.082C226.982 381.494 226.179 381.71 225.366 381.71C224.552 381.71 223.75 381.494 223.024 381.082Z" fill="#1C1C1C" fill-opacity="0.818519"/>
<path d="M404.914 451.226L477.117 404.409C477.398 404.3 477.642 404.095 477.815 403.823C477.988 403.551 478.081 403.225 478.081 402.89C478.081 402.556 477.988 402.23 477.815 401.958C477.642 401.686 477.398 401.481 477.117 401.372L388.979 344.247C388.255 343.828 387.452 343.61 386.638 343.61C385.823 343.61 385.021 343.828 384.296 344.247L312.094 391.052C311.812 391.161 311.568 391.366 311.395 391.638C311.222 391.91 311.129 392.236 311.129 392.571C311.129 392.905 311.222 393.231 311.395 393.503C311.568 393.775 311.812 393.98 312.094 394.089L400.231 451.226C400.957 451.639 401.759 451.854 402.572 451.854C403.386 451.854 404.188 451.639 404.914 451.226Z" fill="#1C1C1C" fill-opacity="0.783333"/>
<path d="M35.8612 310.864C37.3324 301.231 36.2549 296.379 37.2392 290.05C38.2234 283.721 42.5645 271.097 43.1861 256.892L44.3672 256.415L44.7195 254.088L47.2889 256.496C43.5695 270.097 43.8285 283.569 42.8339 289.945C41.8393 296.321 39.3631 300.416 37.8297 310.049V310.212C37.664 311.376 38.3685 313.819 38.0991 315.576C37.8297 317.333 36.6279 317.903 36.4829 318.834L36.1617 320.753L34.2035 321.556C34.2035 321.556 34.3382 320.66 34.4936 319.718C34.6491 318.775 33.6959 317.786 33.9653 316.03C34.2346 314.273 35.654 312.213 35.8405 311.085L35.8612 310.864Z" fill="#5A4141"/>
<path opacity="0.1" d="M35.8612 310.864C37.3324 301.231 36.2549 296.379 37.2392 290.05C38.2234 283.721 42.5645 271.097 43.1861 256.892L44.3672 256.415L44.7195 254.088L47.2889 256.496C43.5695 270.097 43.8285 283.569 42.8339 289.945C41.8393 296.321 39.3631 300.416 37.8297 310.049V310.212C37.664 311.376 38.3685 313.819 38.0991 315.576C37.8297 317.333 36.6279 317.903 36.4829 318.834L36.1617 320.753L34.2035 321.556C34.2035 321.556 34.3382 320.66 34.4936 319.718C34.6491 318.775 33.6959 317.786 33.9653 316.03C34.2346 314.273 35.654 312.213 35.8405 311.085L35.8612 310.864Z" fill="black"/>
<path d="M42.7609 254.902L32.5972 320.055L34.2031 321.556C34.2031 321.556 34.3377 320.66 34.4931 319.718C34.6486 318.775 35.8297 318.205 36.099 316.448C36.3684 314.691 35.6639 312.19 35.84 311.062C37.3734 301.347 39.8806 297.182 40.8752 290.817C41.8699 284.453 41.6108 270.969 45.3199 257.368L42.7609 254.902Z" fill="#5A4141"/>
<path d="M68.1861 336.518L34.908 305.221L34.4521 308.13L67.7406 339.426L68.1861 336.518Z" fill="#5A4141"/>
<path d="M36.6172 306.827L68.1858 336.518L70.1543 335.703L38.5857 306.012L36.6172 306.827Z" fill="#864C4C"/>
<path d="M76.0391 286.199L65.8857 351.294L67.8439 350.491L68.134 348.641C68.279 347.699 69.6777 345.756 69.9574 343.987C70.2372 342.219 69.3047 341.113 69.4809 339.985C71.0142 330.247 73.8841 323.697 74.8787 317.379C75.8733 311.062 75.1481 300.509 79.1783 284.907L76.0391 286.199Z" fill="#9B4E4E"/>
<path d="M76.0387 286.199L65.8854 351.294L64.2795 349.839C64.2795 349.839 64.4246 348.943 64.5696 348.001C64.7147 347.059 63.9894 344.685 64.2588 342.928C64.5282 341.172 65.7507 340.485 65.9165 339.357C67.4188 329.607 66.6935 322.405 67.6881 316.088C68.6828 309.77 72.5472 300.113 73.4797 283.895L76.0387 286.199Z" fill="#5A4141"/>
<path d="M114.467 228.096L104.313 293.191L106.272 292.377C106.272 292.377 106.417 291.492 106.562 290.538C106.707 289.584 108.116 287.653 108.385 285.885C108.655 284.116 107.732 283.023 107.909 281.894C109.452 272.144 112.312 265.606 113.306 259.288C114.301 252.971 113.586 242.418 117.606 226.816L114.467 228.096Z" fill="#8E4A4A"/>
<path d="M114.466 228.096L104.313 293.191L102.707 291.667L102.997 289.829C103.142 288.875 102.417 286.513 102.687 284.756C102.956 282.999 104.178 282.359 104.355 281.196C105.857 271.446 105.121 264.244 106.116 257.869C107.11 251.493 110.975 241.906 111.907 225.688L114.466 228.096Z" fill="#7F3636"/>
<path d="M137.643 311.573L106.075 281.882L105.619 284.791L137.187 314.482L137.643 311.573Z" fill="#5A4141"/>
<path d="M106.074 281.882L137.643 311.573L139.611 310.759L108.043 281.068L106.074 281.882Z" fill="#9B4E4E"/>
<path d="M137.695 311.876C139.228 302.266 141.715 298.112 142.699 291.771C143.683 285.431 143.434 271.923 147.154 258.322L146.19 257.427L146.553 255.1L143.445 256.391C142.823 270.597 138.492 283.15 137.508 289.538C136.524 295.925 137.591 300.73 136.12 310.352V310.526C135.933 311.69 134.524 313.714 134.245 315.471C133.965 317.228 134.918 318.205 134.773 319.147L134.483 320.997L136.089 322.498L136.368 320.66C136.524 319.706 137.705 319.147 137.985 317.391C138.264 315.634 137.55 313.156 137.715 312.027L137.695 311.876Z" fill="#5A4141"/>
<path opacity="0.1" d="M137.695 311.876C139.228 302.266 141.715 298.112 142.699 291.771C143.683 285.431 143.434 271.923 147.154 258.322L146.19 257.427L146.553 255.1L143.445 256.391C142.823 270.597 138.492 283.15 137.508 289.538C136.524 295.925 137.591 300.73 136.12 310.352V310.526C135.933 311.69 134.524 313.714 134.245 315.471C133.965 317.228 134.918 318.205 134.773 319.147L134.483 320.997L136.089 322.498L136.368 320.66C136.524 319.706 137.705 319.147 137.985 317.391C138.264 315.634 137.55 313.156 137.715 312.027L137.695 311.876Z" fill="black"/>
<path d="M148.19 256.624L138.027 321.707L136.068 322.51L136.348 320.672C136.503 319.718 135.55 318.74 135.83 316.983C136.11 315.227 137.529 313.144 137.705 312.016C139.208 302.289 138.109 297.426 139.104 291.073C140.099 284.721 144.419 272.133 145.051 257.915L148.19 256.624Z" fill="#9B4E4E"/>
<path d="M157.991 224.291L80.7632 255.949L43.3306 220.755L120.558 189.097L157.991 224.291Z" fill="#9B4E4E"/>
<path d="M120.444 189.795L156.903 224.082L80.8771 255.251L44.4494 220.976L120.475 189.795M120.703 188.399L42.2529 220.545L80.6491 256.612L159.068 224.455L120.672 188.388L120.703 188.399Z" fill="#5A4141"/>
<path d="M158.488 228.201L159.068 224.501L80.6494 256.659L80.0796 260.347L158.488 228.201Z" fill="#8E4A4A"/>
<path d="M80.0794 260.347L41.6729 224.234L42.253 220.545L80.6492 256.659L80.0794 260.347Z" fill="#5A4141"/>
<path d="M148.19 256.624L152.221 230.772L80.0802 260.347L76.0396 286.199L148.19 256.624Z" fill="#C46E6E"/>
<path d="M42.7612 254.902L76.0393 286.199L80.0799 260.347L46.8018 229.05L42.7612 254.902Z" fill="#7F3636"/>
<path opacity="0.1" d="M79.4998 264.047L46.2217 232.75L46.8019 229.05L80.0799 260.347L152.22 230.772L151.64 234.46L79.4998 264.047Z" fill="black"/>
<path d="M142.492 255.507L145.372 237.031L141.829 254.797L83.8927 278.613L85.7783 261.475L82.8877 279.939L142.492 255.507Z" fill="#5A4141"/>
<path d="M123.832 252.784L105.007 260.498L105.588 256.81L124.402 249.084L123.832 252.784Z" fill="#5A4141"/>
<path d="M95.0718 28.8153L33.354 75.1322L57.5873 177.562L119.305 131.245L95.0718 28.8153Z" fill="#FAFAFA"/>
<path d="M33.3537 75.1321L29.396 73.7942L53.6397 176.212L57.587 177.562L33.3537 75.1321Z" fill="#723131"/>
<path d="M29.396 73.7943L33.3537 75.1322L95.0715 28.8154L91.1241 27.4774L29.396 73.7943Z" fill="#B26E6E"/>
<g opacity="0.1">
<path d="M47.3097 64.6611L42.2227 68.4772L36.4312 88.1512L38.1924 95.5856L47.3097 64.6611Z" fill="#9B4E4E"/>
<path d="M40.5654 105.626L44.2952 121.379L64.9024 51.4561L54.1585 59.5304L40.5654 105.626Z" fill="#9B4E4E"/>
<path d="M54.7588 165.625L57.5872 177.562L63.3166 173.257L99.8893 49.1873L95.4965 30.6303L94.6262 30.386L54.7588 165.625Z" fill="#9B4E4E"/>
<path d="M49.6504 144.032L51.4117 151.478L85.4357 36.052L80.3591 39.8565L49.6504 144.032Z" fill="#9B4E4E"/>
<path d="M93.5796 150.559L107.452 140.146L115.192 113.863L110.384 93.5264L93.5796 150.559Z" fill="#9B4E4E"/>
<path d="M81.4482 159.657L86.5249 155.84L107.94 83.1948L106.179 75.7604L81.4482 159.657Z" fill="#9B4E4E"/>
</g>
<path d="M33.3438 75.1322L57.5874 177.516L119.316 131.187L95.0719 28.8037L33.3438 75.1322ZM114.902 129.744L60.0636 170.896L37.7573 76.6563L92.5957 35.4819L114.902 129.744Z" fill="#9B4E4E"/>
<path d="M60.063 170.896L59.2549 167.487L111.213 128.511L89.7149 37.6459L92.5951 35.4819L114.901 129.744L60.063 170.896Z" fill="#723131"/>
<path d="M60.063 170.896L59.2549 167.487L111.213 128.511L114.901 129.744L60.063 170.896Z" fill="#B26E6E"/>
<path d="M388.834 146.015L390.461 145.363L416.963 170.854L415.336 171.494L388.834 146.015Z" fill="#9B4E4E"/>
<path d="M421.657 136.055L396.439 111.832L390.461 145.363L415.679 169.609L421.657 136.055Z" fill="white"/>
<path d="M385.768 147.166L417.15 177.335L424.713 134.904L393.331 104.724L385.768 147.166ZM395.154 110.564L421.656 136.055L415.357 171.494L388.855 146.014L395.154 110.564Z" fill="#A86767"/>
<path d="M396.439 111.832L395.154 110.564L388.834 146.014L390.461 145.363L396.439 111.832Z" fill="#9B4E4E"/>
<path opacity="0.1" d="M396.439 111.832L395.154 110.564L388.834 146.014L390.461 145.363L396.439 111.832Z" fill="black"/>
<path d="M426.36 134.287L424.713 134.903L393.331 104.724L394.978 104.119L426.36 134.287Z" fill="#9B4E4E"/>
<path d="M417.15 177.335L418.797 176.73L426.36 134.287L424.713 134.904L417.15 177.335Z" fill="#9B4E4E"/>
<path opacity="0.1" d="M417.15 177.335L418.797 176.73L426.36 134.287L424.713 134.904L417.15 177.335Z" fill="black"/>
<g opacity="0.4">
<path d="M416.072 160.918L412.487 142.815L407.659 146.107L407.887 153.414L402.635 130.122L392.823 138.568L391.746 144.63L414.984 166.98L416.072 160.918Z" fill="#00E4D6"/>
<path d="M410.395 132.274C410.885 132.796 411.256 133.443 411.478 134.159C411.7 134.876 411.765 135.642 411.669 136.393C411.431 137.754 410.457 138.115 409.514 137.207C409.024 136.685 408.651 136.039 408.428 135.322C408.204 134.606 408.136 133.84 408.229 133.089C408.478 131.681 409.442 131.32 410.395 132.274Z" fill="#616161"/>
</g>
<path d="M452.552 193.227L453.992 191.994L489.601 205.979L488.161 207.2L452.552 193.227Z" fill="#9B4E4E"/>
<path d="M482.608 171.331L448.739 158.044L453.992 191.994L487.861 205.292L482.608 171.331Z" fill="white"/>
<path d="M449.827 195.473L492.025 212.029L485.374 169.074L443.217 152.53L449.827 195.473ZM446.998 157.347L482.608 171.308L488.161 207.177L452.552 193.216L446.998 157.347Z" fill="#A86767"/>
<path d="M448.739 158.045L446.999 157.347L452.552 193.227L453.992 191.994L448.739 158.045Z" fill="#9B4E4E"/>
<path opacity="0.1" d="M448.739 158.045L446.999 157.347L452.552 193.227L453.992 191.994L448.739 158.045Z" fill="black"/>
<path d="M486.804 167.864L485.332 169.074L443.175 152.53L444.646 151.32L486.804 167.864Z" fill="#9B4E4E"/>
<path d="M491.984 212.028L493.455 210.819L486.804 167.864L485.333 169.074L491.984 212.028Z" fill="#9B4E4E"/>
<path opacity="0.1" d="M491.984 212.028L493.455 210.819L486.804 167.864L485.333 169.074L491.984 212.028Z" fill="black"/>
<g opacity="0.4">
<path d="M485.332 196.927L475.562 181.209L471.76 186.142L474.454 192.96L461.234 172.972L454.105 184.676L455.048 190.807L486.275 203.07L485.332 196.927Z" fill="#00E400"/>
<path d="M469.843 172.006C470.503 172.29 471.092 172.748 471.561 173.341C472.03 173.934 472.365 174.646 472.537 175.415C472.755 176.788 471.895 177.497 470.62 176.997C469.962 176.714 469.374 176.258 468.905 175.667C468.436 175.076 468.101 174.367 467.927 173.6C467.709 172.215 468.569 171.506 469.843 172.006Z" fill="#616161"/>
</g>
<path d="M410.073 83.6886L411.98 82.7578L419.201 38.9773L417.295 39.9197L410.073 83.6886Z" fill="#9B4E4E"/>
<path opacity="0.1" d="M410.073 83.6886L411.98 82.7578L419.201 38.9773L417.295 39.9197L410.073 83.6886Z" fill="black"/>
<path d="M489.362 95.2183L482.473 136.858L411.979 82.7345L418.859 41.0947L489.362 95.2183Z" fill="white"/>
<path d="M484.348 145.247L492.906 93.4267L415.077 33.672L406.52 85.5036L484.348 145.247ZM410.073 83.6886L417.326 39.9197L489.383 95.23L482.131 139.011L410.073 83.6886Z" fill="#A86767"/>
<path d="M482.473 136.87L482.131 139.01L410.073 83.6886L411.98 82.7578L482.473 136.87Z" fill="#9B4E4E"/>
<path d="M494.812 92.4377L492.906 93.4151L484.348 145.247L486.254 144.269L494.812 92.4377Z" fill="#9B4E4E"/>
<path opacity="0.1" d="M494.812 92.4377L492.906 93.4151L484.348 145.247L486.254 144.269L494.812 92.4377Z" fill="black"/>
<path d="M415.078 33.672L416.974 32.6947L494.812 92.4377L492.906 93.415L415.078 33.672Z" fill="#9B4E4E"/>
<g opacity="0.2">
<path d="M485.602 96.0793L479.831 131.087L415.73 81.8853L421.511 46.8655L485.602 96.0793Z" fill="#00E4FF"/>
</g>
<path opacity="0.2" d="M444.999 64.9105C443.991 65.992 443.059 67.1589 442.212 68.4009C439.262 72.5997 436.881 77.2651 435.146 82.2459C433.84 86.0155 432.846 90.0294 430.401 93.2056L415.73 81.9318L416.517 77.1965C418.71 76.8217 420.81 75.9381 422.682 74.602C427.717 70.879 429.271 64.2706 432.638 59.0467C433.159 58.2366 433.719 57.4598 434.317 56.7198L444.999 64.9105Z" fill="#616161"/>
<path opacity="0.2" d="M456.188 73.4968C453.37 80.1518 450.168 86.7485 451.008 93.6827C451.671 99.2672 454.914 104.154 458.426 108.517C461.938 112.88 465.865 117.033 468.268 122.094L468.33 122.245L442.294 102.257C442.087 101.594 441.88 100.954 441.704 100.291C439.787 93.0195 440.036 84.6776 444.605 78.4415C446.76 75.5096 449.785 73.1013 452.054 70.2974L456.188 73.4968Z" fill="#616161"/>
<path opacity="0.2" d="M472.341 85.8642C472.568 89.5083 473.681 93.0125 475.559 95.9953C477.437 98.9781 480.008 101.325 482.991 102.781C483.457 103.013 483.934 103.234 484.421 103.432L482.204 116.905C481.613 116.393 481.023 115.893 480.432 115.416C476.951 112.577 473.252 109.936 470.424 106.481C468.1 103.686 466.423 100.294 465.54 96.6024C464.656 92.9104 464.594 89.0313 465.358 85.3058C465.65 83.9705 466.045 82.6664 466.539 81.4082L472.341 85.8642Z" fill="#616161"/>
<path d="M232.546 338.613C232.142 338.688 231.729 338.59 231.387 338.338C231.045 338.085 230.8 337.698 230.702 337.252L222.652 300.347C222.5 299.538 222.202 298.773 221.776 298.098C221.35 297.424 220.805 296.855 220.175 296.427L156.272 269.272C156.219 269.591 156.219 269.918 156.272 270.237L159.204 305.013C159.223 305.25 159.201 305.49 159.138 305.718C159.076 305.946 158.974 306.158 158.838 306.342C158.702 306.525 158.536 306.677 158.348 306.788C158.16 306.9 157.954 306.969 157.743 306.991C157.531 307.013 157.318 306.988 157.115 306.918C156.912 306.847 156.723 306.732 156.56 306.58C156.396 306.428 156.261 306.241 156.162 306.03C156.062 305.819 156.001 305.588 155.981 305.35L153.049 270.575C152.925 269.792 152.982 268.986 153.214 268.234C153.446 267.483 153.846 266.81 154.376 266.282C154.814 265.909 155.333 265.674 155.879 265.601C156.425 265.527 156.979 265.618 157.484 265.863L221.388 293.006C223.377 293.832 225.231 296.496 225.884 299.487L233.965 336.391C234.065 336.86 233.996 337.354 233.773 337.766C233.55 338.178 233.191 338.474 232.774 338.59L232.546 338.613Z" fill="#263238"/>
<path d="M358.292 221.035C357.888 221.116 357.472 221.02 357.129 220.767C356.786 220.514 356.542 220.123 356.448 219.674L348.367 182.781C348.225 181.969 347.937 181.198 347.52 180.516C347.103 179.833 346.566 179.254 345.942 178.814L281.987 151.705C281.922 152.022 281.904 152.348 281.935 152.671L284.815 187.435C284.855 187.915 284.724 188.393 284.45 188.764C284.176 189.135 283.782 189.368 283.354 189.413C282.927 189.458 282.501 189.31 282.171 189.002C281.841 188.695 281.633 188.252 281.593 187.772L278.651 153.009C278.525 152.224 278.58 151.415 278.813 150.661C279.045 149.908 279.446 149.234 279.977 148.704C280.419 148.339 280.937 148.109 281.482 148.035C282.026 147.962 282.579 148.048 283.085 148.285L346.979 175.44C348.968 176.254 350.812 178.93 351.465 181.909L359.546 218.813C359.597 219.045 359.607 219.285 359.575 219.521C359.544 219.757 359.471 219.983 359.361 220.187C359.251 220.392 359.107 220.57 358.936 220.711C358.765 220.853 358.571 220.955 358.365 221.012L358.292 221.035Z" fill="#263238"/>
<path d="M224.122 298.218L153.878 268.457C152.992 268.247 152.182 267.742 151.554 267.01C150.926 266.277 150.508 265.35 150.354 264.348C150.2 263.345 150.317 262.314 150.691 261.388C151.064 260.461 151.676 259.682 152.448 259.15L269.812 149.402C271.366 148.083 273.179 147.202 275.099 146.831C277.018 146.461 278.989 146.612 280.846 147.273L351.122 177.08C352.007 177.292 352.815 177.798 353.442 178.531C354.069 179.265 354.486 180.192 354.639 181.194C354.791 182.196 354.673 183.226 354.299 184.152C353.926 185.078 353.313 185.857 352.541 186.388L235.156 296.089C233.603 297.409 231.79 298.291 229.87 298.661C227.95 299.032 225.979 298.88 224.122 298.218ZM271.926 152.31L154.572 262.047C153.94 262.628 153.588 263.28 153.66 263.722C153.733 264.164 154.251 264.653 155.017 264.967L225.272 294.74C226.583 295.177 227.966 295.27 229.314 295.01C230.661 294.749 231.937 294.143 233.043 293.239L350.397 183.467C351.029 182.886 351.381 182.234 351.308 181.792C351.236 181.35 350.718 180.861 349.951 180.547L279.696 150.775C278.392 150.3 277.001 150.208 275.656 150.507C274.294 150.734 273.008 151.356 271.926 152.31Z" fill="#455A64"/>
<path d="M312.788 159.198C313.086 159.14 313.356 158.97 313.556 158.717C313.756 158.463 313.872 158.14 313.887 157.802L314.995 129.577C315.017 129.373 315.002 129.167 314.95 128.97C314.898 128.774 314.81 128.592 314.692 128.435C314.575 128.278 314.429 128.151 314.266 128.06C314.102 127.969 313.924 127.918 313.741 127.908C313.559 127.898 313.377 127.931 313.206 128.004C313.036 128.077 312.88 128.189 312.75 128.332C312.62 128.476 312.517 128.648 312.449 128.838C312.381 129.028 312.348 129.232 312.353 129.437L311.245 157.674C311.236 157.869 311.262 158.064 311.322 158.247C311.381 158.431 311.472 158.6 311.589 158.744C311.707 158.887 311.849 159.004 312.006 159.086C312.164 159.168 312.335 159.214 312.509 159.221C312.602 159.225 312.696 159.217 312.788 159.198Z" fill="#364045"/>
<path d="M297.827 153.009C298.124 152.951 298.395 152.781 298.595 152.527C298.794 152.273 298.911 151.951 298.925 151.612L300.034 123.376C300.056 123.172 300.04 122.965 299.987 122.768C299.935 122.572 299.847 122.39 299.728 122.233C299.61 122.077 299.464 121.949 299.3 121.859C299.136 121.769 298.957 121.718 298.774 121.709C298.592 121.7 298.41 121.734 298.239 121.808C298.069 121.882 297.914 121.994 297.784 122.139C297.654 122.283 297.552 122.456 297.485 122.647C297.417 122.838 297.386 123.042 297.392 123.248L296.283 151.484C296.272 151.706 296.306 151.928 296.382 152.134C296.459 152.339 296.576 152.522 296.725 152.669C296.873 152.815 297.05 152.922 297.241 152.981C297.432 153.04 297.632 153.049 297.827 153.009Z" fill="#364045"/>
<path d="M276.195 120.06C276.176 119.791 276.222 119.522 276.328 119.281C276.434 119.039 276.595 118.834 276.796 118.687L282.94 112.939C283.472 112.495 284.089 112.198 284.742 112.07C285.396 111.943 286.066 111.99 286.701 112.206L328.568 129.519C328.8 129.582 329.014 129.716 329.185 129.904C329.356 130.092 329.48 130.329 329.541 130.589C329.604 130.996 329.832 132.462 329.894 132.916C329.912 133.181 329.866 133.447 329.762 133.686C329.659 133.925 329.5 134.129 329.303 134.277L323.149 139.99C322.618 140.436 322 140.735 321.347 140.863C320.693 140.99 320.022 140.942 319.388 140.723L277.563 123.41C277.33 123.347 277.116 123.213 276.945 123.025C276.774 122.837 276.651 122.6 276.589 122.34C276.527 121.933 276.267 120.467 276.195 120.06Z" fill="#364045"/>
<path d="M276.796 118.687L282.939 112.939C283.471 112.495 284.089 112.198 284.742 112.07C285.395 111.943 286.066 111.99 286.7 112.206L319.004 125.563L321.346 140.862C320.693 140.999 320.02 140.951 319.388 140.723L277.562 123.41C277.329 123.347 277.116 123.213 276.945 123.025C276.773 122.837 276.65 122.6 276.588 122.34C276.526 121.933 276.309 120.467 276.236 120.013C276.22 119.757 276.264 119.5 276.362 119.268C276.46 119.036 276.609 118.836 276.796 118.687Z" fill="#263238"/>
<path d="M286.7 112.206L328.567 129.519C328.8 129.582 329.013 129.716 329.185 129.904C329.356 130.092 329.479 130.329 329.541 130.589C329.558 130.856 329.512 131.123 329.408 131.363C329.305 131.604 329.147 131.81 328.95 131.962L322.807 137.709C322.273 138.154 321.653 138.451 320.998 138.576C320.343 138.702 319.67 138.652 319.035 138.431L277.168 121.118C276.925 121.083 276.698 120.961 276.521 120.77C276.343 120.579 276.225 120.329 276.184 120.057C276.142 119.785 276.179 119.506 276.289 119.259C276.399 119.012 276.577 118.812 276.795 118.687L282.939 112.939C283.471 112.495 284.089 112.198 284.742 112.07C285.395 111.943 286.066 111.99 286.7 112.206Z" fill="#455A64"/>
<path d="M155.059 248.132L274.744 136.197C274.989 136.007 275.275 135.895 275.572 135.87C275.868 135.846 276.166 135.91 276.433 136.057L344.74 165.039C345.513 165.398 346.198 165.959 346.738 166.675C347.279 167.391 347.659 168.242 347.848 169.157L349.547 180.198C349.628 180.519 349.631 180.859 349.556 181.182C349.482 181.505 349.332 181.8 349.123 182.037L229.386 293.995C229.14 294.184 228.855 294.297 228.558 294.322C228.261 294.346 227.964 294.282 227.697 294.135L159.39 265.165C158.629 264.795 157.956 264.23 157.425 263.514C156.894 262.799 156.52 261.954 156.333 261.046L154.634 249.994C154.551 249.669 154.547 249.325 154.621 248.998C154.696 248.671 154.847 248.372 155.059 248.132Z" fill="white"/>
<g opacity="0.8">
<path d="M155.059 248.132L274.744 136.197C274.989 136.007 275.275 135.895 275.572 135.87C275.868 135.846 276.166 135.91 276.433 136.057L344.74 165.039C345.513 165.398 346.198 165.959 346.738 166.675C347.279 167.391 347.659 168.242 347.848 169.157L349.547 180.198C349.628 180.519 349.631 180.859 349.556 181.182C349.482 181.505 349.332 181.8 349.123 182.037L229.386 293.995C229.14 294.184 228.855 294.297 228.558 294.322C228.261 294.346 227.964 294.282 227.697 294.135L159.39 265.165C158.629 264.795 157.956 264.23 157.425 263.514C156.894 262.799 156.52 261.954 156.333 261.046L154.634 249.994C154.551 249.669 154.547 249.325 154.621 248.998C154.696 248.671 154.847 248.372 155.059 248.132Z" fill="#356B9D"/>
</g>
<path d="M229.386 293.995L349.05 182.036C349.259 181.799 349.408 181.504 349.482 181.181C349.557 180.858 349.554 180.519 349.475 180.198L347.776 169.157C347.593 168.173 347.174 167.264 346.564 166.528L226.899 278.451C227.502 279.193 227.92 280.1 228.112 281.081L229.811 292.133C229.895 292.458 229.9 292.802 229.825 293.13C229.751 293.457 229.599 293.756 229.386 293.995Z" fill="white"/>
<g opacity="0.6">
<path d="M229.386 293.995L349.05 182.036C349.259 181.799 349.408 181.504 349.482 181.181C349.557 180.858 349.554 180.519 349.475 180.198L347.776 169.157C347.593 168.173 347.174 167.264 346.564 166.528L226.899 278.451C227.502 279.193 227.92 280.1 228.112 281.081L229.811 292.133C229.895 292.458 229.9 292.802 229.825 293.13C229.751 293.457 229.599 293.756 229.386 293.995Z" fill="#356B9D"/>
</g>
<g opacity="0.4">
<path d="M229.811 292.134L228.111 281.081C227.92 280.168 227.538 279.319 226.998 278.603C226.457 277.887 225.774 277.325 225.003 276.962L156.696 247.993C156.438 247.83 156.141 247.76 155.847 247.792C155.552 247.824 155.273 247.957 155.048 248.172C154.822 248.388 154.661 248.675 154.585 248.997C154.509 249.318 154.523 249.658 154.624 249.97L156.323 261.023C156.51 261.931 156.884 262.776 157.414 263.491C157.945 264.207 158.618 264.772 159.38 265.142L227.687 294.112C227.945 294.274 228.241 294.344 228.536 294.312C228.831 294.28 229.109 294.147 229.335 293.932C229.561 293.716 229.722 293.429 229.798 293.107C229.874 292.786 229.86 292.446 229.759 292.134H229.811Z" fill="white"/>
</g>
<path d="M138.379 178.674L250.127 74.1849C250.356 74.038 250.615 73.9607 250.879 73.9607C251.142 73.9607 251.401 74.038 251.63 74.1849L261.006 78.0592C262.593 78.8273 263.853 80.2583 264.518 82.0498L283.509 141.863C283.778 142.712 283.696 143.34 283.364 143.654L171.615 248.109C171.385 248.256 171.124 248.333 170.859 248.333C170.594 248.333 170.333 248.256 170.103 248.109L160.726 244.234C159.139 243.466 157.879 242.035 157.214 240.244L138.223 180.431C137.954 179.628 138.037 179 138.379 178.674Z" fill="white"/>
<g opacity="0.8">
<path d="M138.379 178.674L250.127 74.1849C250.356 74.038 250.615 73.9607 250.879 73.9607C251.142 73.9607 251.401 74.038 251.63 74.1849L261.006 78.0592C262.593 78.8273 263.853 80.2583 264.518 82.0498L283.509 141.863C283.778 142.712 283.696 143.34 283.364 143.654L171.615 248.109C171.385 248.256 171.124 248.333 170.859 248.333C170.594 248.333 170.333 248.256 170.103 248.109L160.726 244.234C159.139 243.466 157.879 242.035 157.214 240.244L138.223 180.431C137.954 179.628 138.037 179 138.379 178.674Z" fill="#356B9D"/>
</g>
<path d="M171.771 246.294C172.03 247.143 171.957 247.771 171.615 248.097L283.364 143.608C283.706 143.294 283.778 142.654 283.509 141.816L264.518 81.9916C264.194 81.0815 263.699 80.2603 263.068 79.5833L151.319 184.072C151.957 184.745 152.456 185.567 152.78 186.481L171.771 246.294Z" fill="white"/>
<g opacity="0.6">
<path d="M171.771 246.294C172.03 247.143 171.957 247.771 171.615 248.097L283.364 143.608C283.706 143.294 283.778 142.654 283.509 141.816L264.518 81.9916C264.194 81.0815 263.699 80.2603 263.068 79.5833L151.319 184.072C151.957 184.745 152.456 185.567 152.78 186.481L171.771 246.294Z" fill="#356B9D"/>
</g>
<g opacity="0.4">
<path d="M170.103 248.155L160.726 244.281C159.139 243.513 157.879 242.082 157.214 240.29L138.223 180.478C137.954 179.628 138.037 179 138.379 178.674C138.607 178.527 138.866 178.45 139.13 178.45C139.393 178.45 139.652 178.527 139.881 178.674L149.267 182.548C150.853 183.32 152.112 184.75 152.78 186.539L171.76 246.294C172.03 247.143 171.957 247.771 171.615 248.097C171.389 248.253 171.131 248.34 170.866 248.35C170.601 248.361 170.338 248.293 170.103 248.155Z" fill="#356B9D"/>
</g>
<path d="M184.016 279.499C184.142 279.474 184.264 279.431 184.379 279.371C184.693 279.195 184.933 278.888 185.045 278.515C185.158 278.142 185.134 277.734 184.98 277.381L176.567 258.068C176.495 257.885 176.391 257.72 176.261 257.583C176.131 257.446 175.977 257.34 175.81 257.271C175.642 257.202 175.464 257.172 175.286 257.182C175.108 257.192 174.934 257.243 174.773 257.33C174.613 257.418 174.47 257.541 174.353 257.692C174.236 257.843 174.147 258.019 174.092 258.21C174.037 258.4 174.017 258.601 174.033 258.801C174.049 259 174.1 259.194 174.184 259.371L182.607 278.684C182.733 278.972 182.938 279.207 183.192 279.354C183.446 279.5 183.735 279.551 184.016 279.499Z" fill="#364045"/>
<path d="M169.046 273.309C169.168 273.284 169.286 273.241 169.398 273.181C169.714 273.008 169.955 272.701 170.07 272.328C170.185 271.955 170.163 271.546 170.009 271.191L161.586 251.878C161.51 251.703 161.404 251.547 161.274 251.418C161.144 251.289 160.992 251.19 160.828 251.127C160.664 251.064 160.491 251.037 160.318 251.049C160.145 251.062 159.975 251.112 159.819 251.197C159.664 251.283 159.524 251.402 159.41 251.548C159.295 251.694 159.207 251.864 159.151 252.048C159.094 252.233 159.071 252.428 159.082 252.622C159.092 252.816 159.137 253.006 159.213 253.181L167.637 272.495C167.761 272.784 167.965 273.02 168.22 273.167C168.474 273.314 168.764 273.364 169.046 273.309Z" fill="#364045"/>
<path d="M142.802 244.677C142.78 244.409 142.824 244.14 142.928 243.898C143.032 243.656 143.193 243.451 143.393 243.304L149.537 237.556C150.069 237.112 150.687 236.815 151.34 236.689C151.994 236.564 152.665 236.614 153.298 236.835L195.175 254.135C195.405 254.203 195.615 254.338 195.784 254.526C195.953 254.714 196.076 254.948 196.139 255.206C196.201 255.625 196.429 257.091 196.491 257.533C196.507 257.799 196.462 258.066 196.358 258.307C196.254 258.548 196.097 258.754 195.9 258.906L189.756 264.653C189.224 265.097 188.606 265.393 187.953 265.519C187.299 265.644 186.629 265.595 185.996 265.374L144.118 248.027C143.887 247.963 143.675 247.832 143.504 247.646C143.333 247.46 143.209 247.226 143.144 246.969L142.802 244.677Z" fill="#364045"/>
<path d="M143.393 243.304L149.537 237.556C150.069 237.112 150.687 236.815 151.34 236.689C151.994 236.564 152.665 236.614 153.298 236.835L185.602 250.18L187.954 265.479C187.302 265.629 186.626 265.581 185.996 265.339L144.118 248.027C143.887 247.963 143.675 247.832 143.504 247.646C143.333 247.46 143.209 247.226 143.144 246.969L142.803 244.642C142.786 244.38 142.832 244.118 142.936 243.883C143.04 243.648 143.198 243.448 143.393 243.304Z" fill="#263238"/>
<path d="M153.298 236.835L195.175 254.135C195.414 254.181 195.634 254.309 195.805 254.502C195.976 254.694 196.09 254.941 196.131 255.209C196.172 255.477 196.138 255.753 196.033 255.998C195.929 256.243 195.76 256.446 195.548 256.579L189.405 262.326C188.872 262.769 188.255 263.066 187.602 263.194C186.949 263.321 186.278 263.275 185.644 263.059L143.766 245.747C143.524 245.707 143.299 245.583 143.123 245.391C142.947 245.198 142.831 244.949 142.789 244.678C142.748 244.406 142.784 244.127 142.892 243.88C143.001 243.634 143.176 243.432 143.393 243.304L149.537 237.556C150.069 237.112 150.687 236.815 151.341 236.689C151.994 236.564 152.665 236.614 153.298 236.835Z" fill="#455A64"/>
<path d="M390.658 415.168C391.037 415.226 391.422 415.119 391.732 414.868C392.043 414.616 392.255 414.241 392.326 413.819L398.449 378.915C398.554 378.151 398.799 377.42 399.168 376.767C399.538 376.114 400.023 375.554 400.594 375.122L459.224 346.641C459.305 346.935 459.333 347.243 459.307 347.549L457.919 380.125C457.899 380.576 458.04 381.016 458.31 381.35C458.581 381.684 458.958 381.884 459.359 381.905C459.76 381.927 460.152 381.769 460.45 381.465C460.747 381.162 460.925 380.739 460.944 380.288L462.332 347.712C462.425 346.974 462.344 346.223 462.099 345.531C461.854 344.84 461.452 344.232 460.934 343.768C460.511 343.447 460.021 343.256 459.512 343.213C459.003 343.17 458.493 343.277 458.033 343.523L399.402 371.993C397.569 372.865 395.952 375.483 395.455 378.264L389.342 413.167C389.266 413.61 389.348 414.068 389.571 414.443C389.794 414.818 390.14 415.078 390.534 415.168H390.658Z" fill="#263238"/>
<path d="M321.843 356.624C322.223 356.679 322.608 356.571 322.919 356.32C323.231 356.07 323.446 355.696 323.522 355.274L329.635 320.371C329.741 319.609 329.987 318.88 330.356 318.229C330.725 317.578 331.209 317.02 331.779 316.589L390.409 288.178C390.489 288.472 390.521 288.779 390.503 289.086L389.104 321.662C389.085 322.113 389.226 322.553 389.496 322.887C389.766 323.221 390.143 323.421 390.544 323.442C390.945 323.464 391.338 323.305 391.635 323.002C391.932 322.699 392.11 322.275 392.129 321.825L393.518 289.248C393.609 288.51 393.528 287.757 393.283 287.064C393.038 286.37 392.637 285.76 392.119 285.293C391.694 284.977 391.204 284.79 390.696 284.749C390.188 284.708 389.679 284.815 389.218 285.06L330.608 313.483C328.775 314.356 327.158 316.973 326.661 319.754L320.548 354.657C320.472 355.1 320.554 355.558 320.777 355.933C321.001 356.308 321.346 356.569 321.74 356.659L321.843 356.624Z" fill="#263238"/>
<path d="M391.611 377.763C389.797 377.545 388.064 376.808 386.576 375.623L325.894 323.989C325.165 323.523 324.576 322.826 324.2 321.984C323.824 321.142 323.68 320.195 323.784 319.26C323.888 318.326 324.237 317.448 324.786 316.736C325.335 316.025 326.059 315.512 326.868 315.263L391.321 283.989C393.026 283.287 394.856 283.053 396.658 283.306C398.461 283.559 400.183 284.292 401.682 285.444L462.384 337.043C463.113 337.508 463.702 338.206 464.078 339.047C464.454 339.889 464.599 340.837 464.494 341.771C464.39 342.705 464.041 343.584 463.492 344.295C462.943 345.007 462.219 345.52 461.41 345.769L396.968 377.007C395.27 377.775 393.425 378.035 391.611 377.763ZM396.284 286.77C395.016 286.562 393.722 286.718 392.523 287.224L328.07 318.428C327.355 318.753 326.889 319.23 326.847 319.649C326.806 320.068 327.148 320.661 327.759 321.185L388.42 372.819C389.488 373.613 390.705 374.119 391.975 374.297C393.246 374.474 394.537 374.319 395.745 373.843L460.198 342.604C460.902 342.278 461.369 341.801 461.41 341.441C461.452 341.08 461.11 340.428 460.498 339.905L399.817 288.178C398.765 287.372 397.55 286.876 396.284 286.735V286.77Z" fill="#455A64"/>
<path d="M361.929 296.648C361.656 296.602 361.406 296.454 361.218 296.228C361.03 296.002 360.915 295.711 360.892 295.403L358.758 269.086C358.729 268.719 358.832 268.354 359.042 268.071C359.253 267.789 359.555 267.612 359.882 267.58C360.209 267.547 360.534 267.662 360.786 267.899C361.038 268.135 361.195 268.475 361.224 268.842L363.317 295.159C363.332 295.341 363.316 295.524 363.268 295.699C363.22 295.874 363.142 296.036 363.038 296.177C362.934 296.317 362.806 296.434 362.662 296.518C362.518 296.603 362.36 296.655 362.198 296.671C362.108 296.675 362.017 296.667 361.929 296.648Z" fill="#37474F"/>
<path d="M375.677 290.144C375.403 290.096 375.153 289.945 374.965 289.718C374.777 289.49 374.663 289.197 374.64 288.888L372.465 262.582C372.436 262.215 372.538 261.85 372.749 261.568C372.96 261.285 373.262 261.108 373.589 261.076C373.916 261.044 374.241 261.158 374.492 261.395C374.744 261.632 374.902 261.971 374.931 262.338L377.023 288.632C377.049 288.998 376.947 289.361 376.738 289.644C376.529 289.926 376.23 290.106 375.904 290.144H375.677Z" fill="#37474F"/>
<path d="M394.636 258.3C394.643 258.052 394.591 257.806 394.485 257.587C394.379 257.368 394.224 257.185 394.035 257.056L388.067 251.983C387.553 251.594 386.964 251.347 386.348 251.262C385.732 251.177 385.107 251.257 384.524 251.494L346.086 269.702C345.875 269.778 345.684 269.915 345.533 270.098C345.383 270.282 345.277 270.506 345.226 270.749L344.988 272.902C344.983 273.153 345.037 273.401 345.144 273.622C345.251 273.843 345.408 274.028 345.599 274.158L351.557 279.219C352.071 279.61 352.66 279.858 353.275 279.945C353.891 280.032 354.516 279.955 355.1 279.72L393.538 261.5C393.75 261.426 393.942 261.29 394.093 261.106C394.244 260.922 394.349 260.697 394.398 260.453C394.398 260.069 394.553 258.696 394.636 258.3Z" fill="#37474F"/>
<path d="M393.994 257.056L388.026 251.983C387.512 251.594 386.923 251.347 386.307 251.262C385.691 251.177 385.066 251.257 384.483 251.494L354.842 265.537L353.194 279.941C353.809 280.042 354.437 279.966 355.018 279.72L393.455 261.5C393.668 261.426 393.86 261.29 394.011 261.106C394.162 260.922 394.267 260.697 394.315 260.453C394.315 260.069 394.512 258.696 394.554 258.3C394.565 258.056 394.519 257.813 394.421 257.595C394.323 257.377 394.176 257.191 393.994 257.056Z" fill="#263238"/>
<path d="M384.484 251.495L346.046 269.702C345.814 269.746 345.602 269.873 345.44 270.064C345.278 270.255 345.175 270.5 345.147 270.762C345.119 271.023 345.167 271.288 345.284 271.517C345.402 271.745 345.582 271.925 345.797 272.029L351.755 277.09C352.27 277.478 352.858 277.725 353.474 277.812C354.089 277.899 354.714 277.823 355.298 277.591L393.736 259.371C393.95 259.3 394.143 259.166 394.295 258.981C394.446 258.797 394.55 258.57 394.596 258.324C394.602 258.075 394.55 257.829 394.445 257.611C394.339 257.392 394.184 257.208 393.995 257.079L388.027 252.006C387.514 251.613 386.926 251.362 386.31 251.273C385.694 251.184 385.068 251.26 384.484 251.495Z" fill="#455A64"/>
<path d="M459.525 326.874L396.574 273.356C396.334 273.197 396.06 273.114 395.781 273.114C395.503 273.114 395.229 273.197 394.989 273.356L332.328 303.757C331.631 304.136 331.023 304.695 330.555 305.389C330.087 306.082 329.771 306.891 329.635 307.747L328.474 318.148C328.411 318.453 328.422 318.77 328.503 319.068C328.585 319.367 328.736 319.635 328.94 319.847L391.891 373.424C392.131 373.582 392.405 373.666 392.684 373.666C392.962 373.666 393.236 373.582 393.476 373.424L456.137 343.023C456.833 342.642 457.44 342.082 457.908 341.389C458.376 340.696 458.692 339.888 458.831 339.032L459.991 328.631C460.061 328.318 460.055 327.99 459.973 327.681C459.891 327.371 459.736 327.093 459.525 326.874Z" fill="#0F5383"/>
<g opacity="0.8">
<path d="M459.525 326.874L396.574 273.356C396.334 273.197 396.06 273.114 395.781 273.114C395.503 273.114 395.229 273.197 394.989 273.356L332.328 303.757C331.631 304.136 331.023 304.695 330.555 305.389C330.087 306.082 329.771 306.891 329.635 307.747L328.474 318.148C328.411 318.453 328.422 318.77 328.503 319.068C328.585 319.367 328.736 319.635 328.94 319.847L391.891 373.424C392.131 373.582 392.405 373.666 392.684 373.666C392.962 373.666 393.236 373.582 393.476 373.424L456.137 343.023C456.833 342.642 457.44 342.082 457.908 341.389C458.376 340.696 458.692 339.888 458.831 339.032L459.991 328.631C460.061 328.318 460.055 327.99 459.973 327.681C459.891 327.371 459.736 327.093 459.525 326.874Z" fill="#38FFFF"/>
</g>
<path d="M391.891 373.331L328.951 319.754C328.743 319.545 328.589 319.277 328.505 318.978C328.421 318.679 328.41 318.36 328.474 318.055L329.624 307.654C329.765 306.728 330.122 305.861 330.66 305.141L393.601 358.718C393.059 359.435 392.701 360.304 392.564 361.231L391.414 371.632C391.351 371.937 391.361 372.256 391.445 372.555C391.529 372.854 391.683 373.122 391.891 373.331Z" fill="#0F5383"/>
<g opacity="0.6">
<path d="M391.891 373.331L328.951 319.754C328.743 319.545 328.589 319.277 328.505 318.978C328.421 318.679 328.41 318.36 328.474 318.055L329.624 307.654C329.765 306.728 330.122 305.861 330.66 305.141L393.601 358.718C393.059 359.435 392.701 360.304 392.564 361.231L391.414 371.632C391.351 371.937 391.361 372.256 391.445 372.555C391.529 372.854 391.683 373.122 391.891 373.331Z" fill="#C8C8C8"/>
</g>
<g opacity="0.4">
<path d="M391.414 371.632L392.575 361.231C392.711 360.374 393.027 359.566 393.495 358.872C393.963 358.179 394.571 357.619 395.268 357.24L457.939 326.839C458.18 326.681 458.453 326.597 458.732 326.597C459.011 326.597 459.284 326.681 459.524 326.839C459.729 327.054 459.879 327.324 459.961 327.624C460.043 327.925 460.053 328.244 459.991 328.55L458.872 338.986C458.733 339.842 458.417 340.649 457.949 341.342C457.481 342.036 456.875 342.596 456.178 342.976L393.517 373.377C393.282 373.558 393.001 373.652 392.715 373.645C392.43 373.638 392.153 373.531 391.924 373.338C391.696 373.146 391.527 372.878 391.441 372.572C391.355 372.266 391.356 371.937 391.445 371.632H391.414Z" fill="#0F5383"/>
</g>
<path d="M472.413 261.198L417.171 214.194C416.956 214.058 416.713 213.986 416.466 213.986C416.219 213.986 415.977 214.058 415.762 214.194L407.152 218.278C405.707 219.073 404.593 220.466 404.044 222.164L388.617 278.987C388.399 279.789 388.493 280.371 388.824 280.65L444.067 327.665C444.282 327.802 444.524 327.874 444.771 327.874C445.018 327.874 445.261 327.802 445.476 327.665L454.085 323.582C455.532 322.784 456.647 321.387 457.194 319.684L472.61 262.896C472.838 262.07 472.745 261.488 472.413 261.198Z" fill="#0F5383"/>
<g opacity="0.8">
<path d="M472.413 261.198L417.171 214.194C416.956 214.058 416.713 213.986 416.466 213.986C416.219 213.986 415.977 214.058 415.762 214.194L407.152 218.278C405.707 219.073 404.593 220.466 404.044 222.164L388.617 278.987C388.399 279.789 388.493 280.371 388.824 280.65L444.067 327.665C444.282 327.802 444.524 327.874 444.771 327.874C445.018 327.874 445.261 327.802 445.476 327.665L454.085 323.582C455.532 322.784 456.647 321.387 457.194 319.684L472.61 262.896C472.838 262.07 472.745 261.488 472.413 261.198Z" fill="#1AB2B2"/>
</g>
<path d="M443.85 325.99C443.632 326.804 443.725 327.375 444.057 327.665L388.825 280.65C388.483 280.371 388.4 279.79 388.607 278.987L404.024 222.187C404.298 221.322 404.728 220.53 405.288 219.86L460.53 266.864C459.961 267.525 459.529 268.32 459.266 269.191L443.85 325.99Z" fill="#0F5383"/>
<g opacity="0.6">
<path d="M443.85 325.99C443.632 326.804 443.725 327.375 444.057 327.665L388.825 280.65C388.483 280.371 388.4 279.79 388.607 278.987L404.024 222.187C404.298 221.322 404.728 220.53 405.288 219.86L460.53 266.864C459.961 267.525 459.529 268.32 459.266 269.191L443.85 325.99Z" fill="#C8C8C8"/>
</g>
<g opacity="0.4">
<path d="M445.475 327.642L454.085 323.558C455.532 322.761 456.646 321.363 457.193 319.661L472.61 262.873C472.827 262.07 472.734 261.488 472.403 261.198C472.188 261.059 471.945 260.986 471.698 260.986C471.451 260.986 471.208 261.059 470.993 261.198L462.373 265.27C460.927 266.067 459.812 267.465 459.265 269.167L443.849 325.99C443.631 326.804 443.735 327.386 444.066 327.665C444.283 327.798 444.527 327.866 444.774 327.862C445.021 327.858 445.262 327.782 445.475 327.642Z" fill="#0F5383"/>
</g>
<path d="M433.696 357.589C433.577 357.577 433.462 357.541 433.354 357.485C433.205 357.412 433.07 357.308 432.956 357.177C432.843 357.046 432.754 356.891 432.695 356.721C432.635 356.552 432.606 356.37 432.609 356.188C432.612 356.005 432.647 355.825 432.712 355.658L439.829 337.206C439.96 336.868 440.205 336.602 440.51 336.467C440.815 336.331 441.155 336.338 441.456 336.484C441.757 336.631 441.994 336.906 442.114 337.248C442.235 337.591 442.229 337.973 442.098 338.311L434.981 356.821C434.868 357.087 434.682 357.305 434.451 357.443C434.22 357.582 433.955 357.633 433.696 357.589Z" fill="#37474F"/>
<path d="M447.475 351.074C447.359 351.063 447.247 351.027 447.143 350.969C446.993 350.899 446.857 350.795 446.743 350.664C446.629 350.533 446.539 350.378 446.479 350.208C446.42 350.038 446.391 349.856 446.394 349.673C446.398 349.49 446.434 349.31 446.501 349.143L453.608 330.702C453.672 330.535 453.765 330.383 453.881 330.256C453.997 330.129 454.134 330.029 454.285 329.961C454.435 329.894 454.596 329.86 454.758 329.862C454.92 329.865 455.081 329.903 455.23 329.975C455.379 330.047 455.514 330.151 455.627 330.281C455.74 330.411 455.829 330.566 455.889 330.735C455.949 330.904 455.979 331.085 455.977 331.267C455.975 331.449 455.941 331.628 455.877 331.796L448.77 350.248C448.664 350.526 448.48 350.756 448.246 350.906C448.012 351.055 447.741 351.114 447.475 351.074Z" fill="#37474F"/>
<path d="M470.838 323.081C470.849 322.83 470.799 322.581 470.693 322.36C470.587 322.138 470.429 321.953 470.237 321.825L464.269 316.764C463.758 316.371 463.171 316.121 462.557 316.034C461.942 315.947 461.318 316.026 460.736 316.264L422.299 334.483C422.085 334.554 421.893 334.688 421.74 334.869C421.587 335.051 421.48 335.275 421.429 335.519L421.19 337.671C421.185 337.922 421.239 338.171 421.346 338.391C421.453 338.612 421.61 338.797 421.802 338.928L427.79 344.023C428.303 344.416 428.892 344.667 429.508 344.754C430.124 344.84 430.75 344.762 431.333 344.524L469.771 326.316C469.985 326.244 470.177 326.109 470.329 325.925C470.48 325.74 470.584 325.514 470.631 325.269L470.838 323.081Z" fill="#37474F"/>
<path d="M470.269 321.802L464.301 316.741C463.79 316.348 463.203 316.098 462.589 316.011C461.974 315.924 461.35 316.002 460.768 316.24L431.085 330.295L429.479 344.698C430.095 344.796 430.723 344.716 431.303 344.466L469.741 326.258C469.954 326.186 470.147 326.051 470.298 325.867C470.45 325.682 470.554 325.456 470.601 325.211L470.839 323.058C470.853 322.811 470.807 322.563 470.707 322.342C470.607 322.121 470.455 321.935 470.269 321.802Z" fill="#263238"/>
<path d="M460.737 316.24L422.299 334.46C422.024 334.421 421.747 334.507 421.529 334.698C421.31 334.889 421.168 335.169 421.134 335.478C421.099 335.787 421.175 336.098 421.345 336.343C421.515 336.589 421.765 336.748 422.04 336.787L427.997 341.848C428.51 342.241 429.099 342.491 429.715 342.578C430.331 342.665 430.957 342.586 431.541 342.348L469.978 324.14C470.192 324.067 470.384 323.932 470.535 323.748C470.686 323.564 470.791 323.338 470.838 323.093C470.849 322.842 470.799 322.593 470.693 322.371C470.587 322.15 470.43 321.965 470.237 321.837L464.27 316.776C463.761 316.377 463.175 316.121 462.561 316.028C461.946 315.934 461.321 316.007 460.737 316.24Z" fill="#455A64"/>
<path d="M340.948 36.4256C343.849 35.1109 347.33 38.1708 353.018 39.2761C363.627 41.3354 371.667 45.2445 377.49 49.4911C383.312 53.7377 384.67 52.2369 386.897 55.3084C389.125 58.3799 385.861 61.1256 385.436 66.6869C384.69 76.0759 382.515 82.9751 379.634 87.6289C374.537 96.029 376.682 100.02 373.625 100.974C370.362 101.998 369.782 98.7864 364.104 98.2279C350.635 96.9249 341.787 93.2019 333.799 85.7558C330.691 82.8472 327.977 84.0572 326.547 80.7297C325.822 79.066 327.852 77.379 328.464 71.2243C329.5 60.986 332.691 50.6546 336.835 44.465C338.69 41.8589 337.995 37.7636 340.948 36.4256Z" fill="#F0BB0E"/>
<path opacity="0.3" d="M340.948 36.4256C343.849 35.1109 347.33 38.1708 353.018 39.2761C363.627 41.3354 371.667 45.2445 377.49 49.4911C383.312 53.7377 384.67 52.2369 386.897 55.3084C389.125 58.3799 385.861 61.1256 385.436 66.6869C384.69 76.0759 382.515 82.9751 379.634 87.6289C374.537 96.029 376.682 100.02 373.625 100.974C370.362 101.998 369.782 98.7864 364.104 98.2279C350.635 96.9249 341.787 93.2019 333.799 85.7558C330.691 82.8472 327.977 84.0572 326.547 80.7297C325.822 79.066 327.852 77.379 328.464 71.2243C329.5 60.986 332.691 50.6546 336.835 44.465C338.69 41.8589 337.995 37.7636 340.948 36.4256Z" fill="#C39E0C"/>
<path opacity="0.2" d="M385.135 62.289C383.643 67.1871 385.032 71.1312 381.727 80.3108C378.546 89.1413 375.417 92.3408 374.744 96.0638C374.184 99.147 372.796 100.95 371.573 97.9603C370.351 94.9702 370.216 85.302 373.304 75.9827C376.868 65.2558 379.727 60.6601 381.913 58.531C385.312 55.2152 386.348 58.438 385.135 62.289Z" fill="black"/>
<path opacity="0.2" d="M349.392 95.1796C354.157 96.9196 359.101 97.9713 364.104 98.3093C366.191 98.5033 368.213 99.2231 370.019 100.415C367.678 98.4023 366.673 95.1331 363.005 94.9353C360.343 94.784 354.313 96.2965 349.392 95.1796ZM326.951 81.5673C328.453 83.8942 330.95 83.1728 333.799 85.8371C336.283 88.2227 338.973 90.3235 341.828 92.1081C338.389 89.246 337.601 85.3834 334.98 83.964C331.831 82.1606 329.448 83.5684 326.951 81.5673Z" fill="black"/>
<path opacity="0.3" d="M347.205 43.1386C354.706 42.3009 364.404 43.9298 370.89 48.4672C372.133 49.4096 374.278 51.7365 374.557 53.4933C374.77 54.5581 374.739 55.6662 374.468 56.714C374.196 57.7618 373.692 58.7152 373.003 59.4851C371.403 61.0099 369.433 61.9622 367.346 62.2192C363.534 62.894 359.866 61.8469 354.841 62.9638C352.676 63.6209 350.669 64.8134 348.967 66.4541C346.998 68.6996 345.672 70.9218 343.942 72.8415C341.549 75.4708 336.316 76.3318 334.058 74.9473C331.799 73.5628 330.411 70.4447 331.053 65.9538C332.473 55.9365 337.187 45.1165 347.205 43.1386Z" fill="#FFEDA3"/>
<path d="M176.516 52.2369C173.78 50.9105 170.403 53.7377 164.964 54.6336C157.496 55.6222 150.333 58.5369 144.035 63.15C138.441 67.0359 137.145 65.5816 134.959 68.467C132.773 71.3523 135.809 74.005 136.109 79.3219C136.617 88.2805 138.544 94.8656 141.186 99.4612C145.859 107.605 143.735 111.328 146.625 112.317C149.734 113.376 150.324 110.339 155.743 109.99C168.569 109.095 174.506 106.337 182.266 99.5194C185.301 96.8434 187.84 98.0651 189.28 94.947C189.995 93.3764 188.109 91.7243 187.653 85.8489C186.886 76.0759 184.058 66.1633 180.256 60.1716C178.598 57.4724 179.292 53.5981 176.516 52.2369Z" fill="#F0BB0E"/>
<path opacity="0.3" d="M176.516 52.2369C173.78 50.9105 170.403 53.7377 164.964 54.6336C157.496 55.6222 150.333 58.5369 144.035 63.15C138.441 67.0359 137.145 65.5816 134.959 68.467C132.773 71.3523 135.809 74.005 136.109 79.3219C136.617 88.2805 138.544 94.8656 141.186 99.4612C145.859 107.605 143.735 111.328 146.625 112.317C149.734 113.376 150.324 110.339 155.743 109.99C168.569 109.095 174.506 106.337 182.266 99.5194C185.301 96.8434 187.84 98.0651 189.28 94.947C189.995 93.3764 188.109 91.7243 187.653 85.8489C186.886 76.0759 184.058 66.1633 180.256 60.1716C178.598 57.4724 179.292 53.5981 176.516 52.2369Z" fill="#F0BB0E"/>
<path opacity="0.2" d="M136.482 75.1219C137.808 79.7757 136.399 83.5336 139.352 92.3642C142.191 100.846 145.092 103.999 145.662 107.489C146.128 110.433 147.412 112.201 148.635 109.385C149.858 106.57 150.199 97.3786 147.454 88.4434C144.346 78.1352 141.673 73.6792 139.632 71.6083C136.441 68.3855 135.446 71.4221 136.482 75.1219Z" fill="black"/>
<path opacity="0.2" d="M156.861 106.779C153.36 106.872 152.334 109.956 150.065 111.805C151.808 110.716 153.75 110.087 155.743 109.967C160.511 109.772 165.239 108.901 169.812 107.373C165.098 108.315 159.389 106.686 156.861 106.779ZM181.178 97.5881C178.66 98.9144 177.831 102.568 174.495 105.197C177.253 103.579 179.856 101.649 182.266 99.438C185.032 96.9947 187.394 97.7975 188.876 95.5753C186.451 97.3787 184.224 96.0058 181.209 97.5881H181.178Z" fill="black"/>
<path opacity="0.3" d="M170.413 58.4613C163.082 57.4047 155.643 59.0371 149.205 63.1151C147.949 64.0073 147.059 65.421 146.729 67.0476C146.507 68.0565 146.515 69.1119 146.753 70.1163C146.99 71.1207 147.448 72.042 148.086 72.795C149.58 74.2835 151.433 75.2428 153.411 75.5524C157.027 76.297 159.369 76.0061 163.886 77.5419C165.535 78.1485 167.03 79.1898 168.248 80.5785C170.071 82.7657 171.283 84.9181 172.899 86.7913C175.117 89.3509 180.079 90.2816 182.224 89.1182C184.369 87.9547 185.788 84.9298 185.27 80.6366C184.151 71.0266 179.903 60.6137 170.413 58.4613Z" fill="#FFE375"/>
<path d="M423.397 190.454C420.465 190.129 418.04 193.945 413.161 196.609C404.054 201.612 399.961 206.149 395.724 211.734C391.486 217.318 389.881 216.388 388.585 219.808C387.29 223.229 390.865 224.741 392.574 229.651C395.455 237.911 399.029 243.473 402.748 246.916C409.327 252.99 408.322 257.225 411.316 257.19C414.497 257.19 414.269 254.083 419.273 251.896C431.126 246.73 435.985 242.123 441.455 233.025C443.6 229.535 446.325 229.779 446.832 226.347C447.091 224.625 444.874 223.706 442.864 218.319C439.539 209.372 434.213 200.984 429.033 196.621C426.754 194.689 426.381 190.803 423.397 190.454Z" fill="#F0BB0E"/>
<path opacity="0.3" d="M423.397 190.454C420.465 190.129 418.04 193.945 413.161 196.609C404.054 201.612 399.961 206.149 395.724 211.734C391.486 217.318 389.881 216.388 388.585 219.808C387.29 223.229 390.865 224.741 392.574 229.651C395.455 237.911 399.029 243.473 402.748 246.916C409.327 252.99 408.322 257.225 411.316 257.19C414.497 257.19 414.269 254.083 419.273 251.896C431.126 246.73 435.985 242.123 441.455 233.025C443.6 229.535 446.325 229.779 446.832 226.347C447.091 224.625 444.874 223.706 442.864 218.319C439.539 209.372 434.213 200.984 429.033 196.621C426.754 194.689 426.381 190.803 423.397 190.454Z" fill="#F0BB0E"/>
<path opacity="0.2" d="M391.807 225.544C394.304 229.523 393.973 233.502 399.122 240.82C404.064 247.801 407.649 249.825 409.13 252.99C410.353 255.607 412.042 256.829 412.435 253.769C412.829 250.709 410.695 241.925 405.711 234.421C399.982 225.777 396.314 222.461 393.838 221.193C389.963 219.203 389.839 222.403 391.807 225.544Z" fill="black"/>
<path opacity="0.2" d="M419.502 248.487C416.238 249.755 416.093 253.013 414.456 255.526C415.805 253.912 417.463 252.663 419.305 251.873C423.744 250.08 427.963 247.664 431.862 244.683C427.645 247.161 421.843 247.568 419.502 248.487ZM439.974 231.629C437.902 233.723 438.14 237.446 435.706 241.041C437.868 238.586 439.805 235.893 441.487 233.002C443.445 229.756 445.88 229.721 446.667 227.184C444.854 229.674 442.378 229.104 439.943 231.629H439.974Z" fill="black"/>
<path opacity="0.3" d="M419.325 198.389C412.131 199.863 405.554 203.907 400.573 209.919C399.63 211.187 399.172 212.822 399.298 214.468C399.36 215.493 399.65 216.485 400.143 217.351C400.635 218.217 401.314 218.93 402.117 219.424C403.922 220.317 405.922 220.593 407.867 220.215C411.482 219.692 413.606 218.633 418.279 218.552C419.993 218.569 421.678 219.052 423.19 219.959C425.5 221.39 427.22 223.019 429.24 224.229C432.017 225.905 436.949 225.137 438.658 223.217C440.368 221.297 440.896 218.063 439.259 214.2C435.623 205.579 428.826 197.214 419.325 198.389Z" fill="#FFF2BC"/>
<path d="M139.27 420.661C130.629 415.158 121.657 397.113 126.568 388.887L159.452 378.044C167.512 382.011 168.662 402.616 164.042 412.494L163.917 412.761C163.917 412.878 163.803 412.982 163.751 413.087C163.7 413.192 163.472 413.622 163.316 413.89L163.192 414.088C163.068 414.285 162.943 414.483 162.798 414.681C162.583 414.999 162.352 415.302 162.104 415.588C157.577 420.964 148.729 423.872 142.336 422.092C141.986 422.002 141.64 421.889 141.3 421.755L140.73 421.499L140.492 421.394C140.233 421.266 139.984 421.138 139.756 420.998L139.415 420.789L139.27 420.661Z" fill="#37474F"/>
<path d="M155.992 376.532C164.798 378.986 166.881 387.003 160.654 394.367C154.427 401.732 142.243 405.781 133.437 403.326C124.631 400.871 122.558 392.855 128.785 385.49C135.012 378.125 147.196 374.077 155.992 376.532Z" fill="#455A64"/>
<path d="M152.998 380.092C159.463 381.895 160.996 387.759 156.417 393.192C151.837 398.625 142.948 401.569 136.431 399.766C129.915 397.962 128.443 392.098 133.012 386.665C137.581 381.232 146.533 378.288 152.998 380.092Z" fill="#263238"/>
<path d="M134.639 392.889C139.208 387.444 148.108 384.501 154.624 386.304C156.176 386.678 157.621 387.478 158.831 388.631C158.369 390.339 157.54 391.894 156.417 393.157C151.848 398.59 142.948 401.534 136.431 399.73C134.9 399.35 133.477 398.551 132.287 397.404C132.725 395.703 133.533 394.151 134.639 392.889Z" fill="#FAFAFA"/>
<path d="M129.541 341C127.821 344.909 121.024 348.062 115.958 340.721C111.203 333.833 106.333 327.423 104.748 324.84C104.531 324.507 104.376 324.128 104.293 323.726C104.209 323.323 104.199 322.907 104.263 322.5C104.327 322.094 104.464 321.706 104.664 321.36C104.865 321.014 105.126 320.718 105.432 320.488C105.432 320.488 104.52 316.149 111.731 316.928C118.942 317.708 124.64 320.593 129.344 326.783C134.048 332.972 133.613 338.626 129.541 341Z" fill="#9747FF"/>
<path opacity="0.45" d="M129.541 341C127.821 344.909 121.024 348.062 115.958 340.721C111.203 333.833 106.333 327.423 104.748 324.84C104.531 324.507 104.376 324.128 104.293 323.726C104.209 323.323 104.199 322.907 104.263 322.5C104.327 322.094 104.464 321.706 104.664 321.36C104.865 321.014 105.126 320.718 105.432 320.488C105.432 320.488 104.52 316.149 111.731 316.928C118.942 317.708 124.64 320.593 129.344 326.783C134.048 332.972 133.613 338.626 129.541 341Z" fill="white"/>
<path d="M135.198 351.005C134.708 349.589 134.144 348.206 133.509 346.863C132.236 344.201 130.792 341.647 129.189 339.22C125.931 334.273 122.05 329.884 117.668 326.189C115.218 324.064 112.596 322.202 109.836 320.628C109.753 320.628 109.742 320.767 109.836 320.802C114.574 323.887 118.922 327.671 122.766 332.053C126.492 336.386 129.702 341.243 132.318 346.503C133.043 347.969 133.758 349.458 134.39 350.959C135.022 352.46 135.654 354.077 136.317 355.613C136.379 355.764 136.628 355.787 136.587 355.613C136.229 354.039 135.764 352.499 135.198 351.005Z" fill="#9747FF"/>
<path opacity="0.3" d="M135.198 351.005C134.708 349.589 134.144 348.206 133.509 346.863C132.236 344.201 130.792 341.647 129.189 339.22C125.931 334.273 122.05 329.884 117.668 326.189C115.218 324.064 112.596 322.202 109.836 320.628C109.753 320.628 109.742 320.767 109.836 320.802C114.574 323.887 118.922 327.671 122.766 332.053C126.492 336.386 129.702 341.243 132.318 346.503C133.043 347.969 133.758 349.458 134.39 350.959C135.022 352.46 135.654 354.077 136.317 355.613C136.379 355.764 136.628 355.787 136.587 355.613C136.229 354.039 135.764 352.499 135.198 351.005Z" fill="black"/>
<path d="M133.934 337.23C128.661 341.139 123.024 337.486 122.444 329.028C121.864 320.57 126.992 309.249 130.432 310.727C131.675 308.167 135.726 307.609 139.239 313.473C142.751 319.336 145.434 336.509 133.934 337.23Z" fill="#9747FF"/>
<path opacity="0.25" d="M133.934 337.23C128.661 341.139 123.024 337.486 122.444 329.028C121.864 320.57 126.992 309.249 130.432 310.727C131.675 308.167 135.726 307.609 139.239 313.473C142.751 319.336 145.434 336.509 133.934 337.23Z" fill="white"/>
<path d="M131.945 315.485C131.513 320.665 131.475 325.877 131.831 331.064C132.15 336.338 132.724 341.589 133.551 346.794C135.139 356.873 137.295 366.828 140.005 376.601C140.731 379.3 141.477 382 142.223 384.745C142.968 387.491 143.694 390.353 144.637 393.064C144.999 394.099 146.274 393.367 146.035 392.389C144.844 387.479 143.331 382.663 142.015 377.8C140.7 372.936 139.467 368.155 138.317 363.291C135.9 353.416 134.123 343.357 133.002 333.193C132.712 330.354 132.463 327.504 132.328 324.653C132.194 321.803 132.194 318.65 132.121 315.648C132.121 315.427 131.966 315.322 131.945 315.485Z" fill="#9747FF"/>
<path opacity="0.3" d="M131.945 315.485C131.513 320.665 131.475 325.877 131.831 331.064C132.15 336.338 132.724 341.589 133.551 346.794C135.139 356.873 137.295 366.828 140.005 376.601C140.731 379.3 141.477 382 142.223 384.745C142.968 387.491 143.694 390.353 144.637 393.064C144.999 394.099 146.274 393.367 146.035 392.389C144.844 387.479 143.331 382.663 142.015 377.8C140.7 372.936 139.467 368.155 138.317 363.291C135.9 353.416 134.123 343.357 133.002 333.193C132.712 330.354 132.463 327.504 132.328 324.653C132.194 321.803 132.194 318.65 132.121 315.648C132.121 315.427 131.966 315.322 131.945 315.485Z" fill="black"/>
<path d="M130.598 363.687C128.899 367.736 123.024 369.365 117.637 364.909C112.249 360.453 104.272 339.615 110.105 339.185C110.519 335.927 127.459 337.858 133.074 351.319C137.156 361.104 130.598 363.687 130.598 363.687Z" fill="#9747FF"/>
<path opacity="0.25" d="M130.598 363.687C128.899 367.736 123.024 369.365 117.637 364.909C112.249 360.453 104.272 339.615 110.105 339.185C110.519 335.927 127.459 337.858 133.074 351.319C137.156 361.104 130.598 363.687 130.598 363.687Z" fill="white"/>
<path d="M137.788 372.401C137.266 371.13 136.671 369.898 136.006 368.713C134.685 366.274 133.254 363.913 131.717 361.639C128.579 357.02 125.027 352.775 121.118 348.969C118.977 346.79 116.71 344.773 114.332 342.931C114.27 342.931 114.259 343.047 114.332 343.082C116.259 344.851 118.207 346.572 120.02 348.492C121.833 350.412 123.687 352.599 125.387 354.775C128.666 358.97 131.649 363.448 134.307 368.166C135.053 369.504 135.747 370.889 136.514 372.227C137.28 373.564 138.203 374.926 138.938 376.345C139.042 376.555 139.321 376.555 139.218 376.264C138.669 374.984 138.285 373.669 137.788 372.401Z" fill="#9747FF"/>
<path opacity="0.3" d="M137.788 372.401C137.266 371.13 136.671 369.898 136.006 368.713C134.685 366.274 133.254 363.913 131.717 361.639C128.579 357.02 125.027 352.775 121.118 348.969C118.977 346.79 116.71 344.773 114.332 342.931C114.27 342.931 114.259 343.047 114.332 343.082C116.259 344.851 118.207 346.572 120.02 348.492C121.833 350.412 123.687 352.599 125.387 354.775C128.666 358.97 131.649 363.448 134.307 368.166C135.053 369.504 135.747 370.889 136.514 372.227C137.28 373.564 138.203 374.926 138.938 376.345C139.042 376.555 139.321 376.555 139.218 376.264C138.669 374.984 138.285 373.669 137.788 372.401Z" fill="black"/>
<path d="M139.032 357.451C135.499 357.695 134.162 353.274 136.877 346.433C139.591 339.592 149.392 333.763 150.49 335.962C152.811 335.194 154.935 343.35 151.754 352.53C148.574 361.709 140.658 362.384 139.032 357.451Z" fill="#9747FF"/>
<path opacity="0.25" d="M139.032 357.451C135.499 357.695 134.162 353.274 136.877 346.433C139.591 339.592 149.392 333.763 150.49 335.962C152.811 335.194 154.935 343.35 151.754 352.53C148.574 361.709 140.658 362.384 139.032 357.451Z" fill="white"/>
<path d="M143.434 347.341C139.949 352.212 137.87 358.163 137.477 364.397C137.477 364.746 138.068 365.048 138.088 364.664C138.516 358.484 140.373 352.537 143.476 347.41C143.476 347.41 143.465 347.294 143.434 347.341Z" fill="#9747FF"/>
<path opacity="0.3" d="M143.434 347.341C139.949 352.212 137.87 358.163 137.477 364.397C137.477 364.746 138.068 365.048 138.088 364.664C138.516 358.484 140.373 352.537 143.476 347.41C143.476 347.41 143.465 347.294 143.434 347.341Z" fill="black"/>
<path d="M149.91 383.419C145.869 387.014 149.444 392.494 155.09 395.682C159.937 398.19 165.447 398.564 170.527 396.729C171.844 396.302 173.088 395.63 174.205 394.739C173.734 391.817 172.98 388.961 171.957 386.223C170.649 383.27 168.613 380.802 166.091 379.112C163.569 377.423 160.667 376.584 157.732 376.694C150.128 376.88 149.091 380.347 149.91 383.419Z" fill="#9747FF"/>
<path opacity="0.45" d="M149.91 383.419C145.869 387.014 149.444 392.494 155.09 395.682C159.937 398.19 165.447 398.564 170.527 396.729C171.844 396.302 173.088 395.63 174.205 394.739C173.734 391.817 172.98 388.961 171.957 386.223C170.649 383.27 168.613 380.802 166.091 379.112C163.569 377.423 160.667 376.584 157.732 376.694C150.128 376.88 149.091 380.347 149.91 383.419Z" fill="white"/>
<path d="M164.985 388.294C162.209 386.21 159.208 384.533 156.054 383.303C152.946 382.232 149.019 381.732 146.201 383.966C145.113 384.838 143.58 386.816 144.243 388.433C144.315 388.585 144.688 388.922 144.802 388.631C145.067 387.691 145.414 386.783 145.838 385.92C146.405 385.086 147.165 384.442 148.035 384.059C150.229 383.145 152.615 382.979 154.893 383.582C158.478 384.408 161.731 386.455 164.912 388.387C165.005 388.41 165.005 388.317 164.985 388.294Z" fill="#9747FF"/>
<path opacity="0.3" d="M164.985 388.294C162.209 386.21 159.208 384.533 156.054 383.303C152.946 382.232 149.019 381.732 146.201 383.966C145.113 384.838 143.58 386.816 144.243 388.433C144.315 388.585 144.688 388.922 144.802 388.631C145.067 387.691 145.414 386.783 145.838 385.92C146.405 385.086 147.165 384.442 148.035 384.059C150.229 383.145 152.615 382.979 154.893 383.582C158.478 384.408 161.731 386.455 164.912 388.387C165.005 388.41 165.005 388.317 164.985 388.294Z" fill="black"/>
<path d="M125.563 362.779C125.387 360.29 120.901 355.671 111.213 357.684C101.526 359.696 95.6726 366.503 94.7608 369.016C93.8491 371.529 93.7248 373.925 95.569 373.902C97.4131 373.879 103.453 372.587 107.836 373.309C112.218 374.03 121.595 377.346 126.485 373.832C131.375 370.319 128.826 364.234 125.563 362.779Z" fill="#9747FF"/>
<path opacity="0.45" d="M125.563 362.779C125.387 360.29 120.901 355.671 111.213 357.684C101.526 359.696 95.6726 366.503 94.7608 369.016C93.8491 371.529 93.7248 373.925 95.569 373.902C97.4131 373.879 103.453 372.587 107.836 373.309C112.218 374.03 121.595 377.346 126.485 373.832C131.375 370.319 128.826 364.234 125.563 362.779Z" fill="white"/>
<path d="M134.846 368.608C128.474 360.708 117.523 361.267 109.172 364.071C106.428 364.99 103.796 366.292 101.34 367.945C101.34 367.945 101.34 368.073 101.34 368.05C105.617 365.705 110.198 364.135 114.912 363.396C119.552 362.58 124.298 363.023 128.754 364.687C130.95 365.615 132.961 367.023 134.67 368.829C134.877 369.027 134.981 368.771 134.846 368.608Z" fill="#9747FF"/>
<path opacity="0.3" d="M134.846 368.608C128.474 360.708 117.523 361.267 109.172 364.071C106.428 364.99 103.796 366.292 101.34 367.945C101.34 367.945 101.34 368.073 101.34 368.05C105.617 365.705 110.198 364.135 114.912 363.396C119.552 362.58 124.298 363.023 128.754 364.687C130.95 365.615 132.961 367.023 134.67 368.829C134.877 369.027 134.981 368.771 134.846 368.608Z" fill="black"/>
<path d="M144.253 343.245C145.102 346.98 150.293 347.596 153.94 342.931C157.587 338.266 161.472 333.623 165.336 331.029C169.201 328.434 170.144 324.048 168.362 322.606C166.58 321.163 163.264 317.242 152.748 322.35C142.232 327.457 139.808 334.252 139.332 338.638C138.855 343.024 142.875 344.851 144.253 343.245Z" fill="#9747FF"/>
<path opacity="0.45" d="M144.253 343.245C145.102 346.98 150.293 347.596 153.94 342.931C157.587 338.266 161.472 333.623 165.336 331.029C169.201 328.434 170.144 324.048 168.362 322.606C166.58 321.163 163.264 317.242 152.748 322.35C142.232 327.457 139.808 334.252 139.332 338.638C138.855 343.024 142.875 344.851 144.253 343.245Z" fill="white"/>
<path d="M158.965 325.665C157.343 326.016 155.8 326.728 154.427 327.759C153.152 328.613 151.949 329.595 150.832 330.691C148.618 332.883 146.797 335.529 145.465 338.486C145.069 339.324 144.723 340.191 144.429 341.081C144.122 341.886 143.919 342.736 143.828 343.606C143.828 343.873 144.232 344.164 144.367 343.85C144.719 342.977 144.906 341.988 145.216 341.081C145.554 340.112 145.945 339.168 146.387 338.254C147.273 336.408 148.359 334.693 149.62 333.146C151.479 330.802 153.666 328.814 156.095 327.259C156.963 326.603 157.922 326.115 158.934 325.817C159.027 325.805 159.017 325.665 158.965 325.665Z" fill="#9747FF"/>
<path opacity="0.3" d="M158.965 325.665C157.343 326.016 155.8 326.728 154.427 327.759C153.152 328.613 151.949 329.595 150.832 330.691C148.618 332.883 146.797 335.529 145.465 338.486C145.069 339.324 144.723 340.191 144.429 341.081C144.122 341.886 143.919 342.736 143.828 343.606C143.828 343.873 144.232 344.164 144.367 343.85C144.719 342.977 144.906 341.988 145.216 341.081C145.554 340.112 145.945 339.168 146.387 338.254C147.273 336.408 148.359 334.693 149.62 333.146C151.479 330.802 153.666 328.814 156.095 327.259C156.963 326.603 157.922 326.115 158.934 325.817C159.027 325.805 159.017 325.665 158.965 325.665Z" fill="black"/>
<path d="M141.632 365.758C139.653 364.594 135.602 366.316 134.96 372.029C134.317 377.741 139.901 381.953 140.772 383.361C142.347 381.511 144.004 381.755 147.154 379.929C148.895 378.826 150.244 377.083 150.975 374.993C151.705 372.904 151.772 370.595 151.163 368.457C149.692 363.908 147.144 361.476 141.632 365.758Z" fill="#9747FF"/>
<path opacity="0.45" d="M141.632 365.758C139.653 364.594 135.602 366.316 134.96 372.029C134.317 377.741 139.901 381.953 140.772 383.361C142.347 381.511 144.004 381.755 147.154 379.929C148.895 378.826 150.244 377.083 150.975 374.993C151.705 372.904 151.772 370.595 151.163 368.457C149.692 363.908 147.144 361.476 141.632 365.758Z" fill="white"/>
<path d="M141.435 365.269C140.758 366.138 140.275 367.175 140.026 368.294C139.718 369.354 139.526 370.452 139.456 371.564C139.278 373.854 139.662 376.155 140.564 378.218C140.564 378.3 140.637 378.218 140.627 378.149C139.903 376.014 139.661 373.712 139.922 371.447C140.056 370.411 140.296 369.396 140.637 368.422C140.812 367.909 141.012 367.408 141.238 366.921C141.493 366.53 141.702 366.104 141.86 365.653C141.922 365.421 141.642 365.06 141.435 365.269Z" fill="#9747FF"/>
<path opacity="0.3" d="M141.435 365.269C140.758 366.138 140.275 367.175 140.026 368.294C139.718 369.354 139.526 370.452 139.456 371.564C139.278 373.854 139.662 376.155 140.564 378.218C140.564 378.3 140.637 378.218 140.627 378.149C139.903 376.014 139.661 373.712 139.922 371.447C140.056 370.411 140.296 369.396 140.637 368.422C140.812 367.909 141.012 367.408 141.238 366.921C141.493 366.53 141.702 366.104 141.86 365.653C141.922 365.421 141.642 365.06 141.435 365.269Z" fill="black"/>
<path d="M137.115 378.416C135.986 374.681 131.562 372.89 125.925 372.866C123.138 372.8 120.392 373.626 118.007 375.247C115.622 376.869 113.697 379.219 112.457 382.023C109.877 387.84 108.945 392.494 110.768 393.064C112.591 393.634 120.217 394.227 125.107 394.332C129.997 394.437 136.017 392.959 139.726 388.515C143.435 384.07 141.839 378.928 137.115 378.416Z" fill="#9747FF"/>
<path opacity="0.25" d="M137.115 378.416C135.986 374.681 131.562 372.89 125.925 372.866C123.138 372.8 120.392 373.626 118.007 375.247C115.622 376.869 113.697 379.219 112.457 382.023C109.877 387.84 108.945 392.494 110.768 393.064C112.591 393.634 120.217 394.227 125.107 394.332C129.997 394.437 136.017 392.959 139.726 388.515C143.435 384.07 141.839 378.928 137.115 378.416Z" fill="white"/>
<path d="M137.291 377.893C135.279 377.476 133.212 377.531 131.22 378.055C129.286 378.467 127.399 379.119 125.594 379.998C123.684 380.924 121.847 382.029 120.103 383.303C119.191 383.966 118.3 384.664 117.43 385.385C116.585 386.034 115.785 386.753 115.037 387.538C115.037 387.538 115.037 387.7 115.037 387.666C115.928 387.13 116.756 386.409 117.596 385.781C118.435 385.153 119.429 384.443 120.362 383.815C122.104 382.615 123.926 381.569 125.812 380.685C127.692 379.804 129.656 379.168 131.665 378.788C133.551 378.523 135.453 378.426 137.353 378.498C137.788 378.498 137.529 377.962 137.291 377.893Z" fill="#9747FF"/>
<path opacity="0.3" d="M137.291 377.893C135.279 377.476 133.212 377.531 131.22 378.055C129.286 378.467 127.399 379.119 125.594 379.998C123.684 380.924 121.847 382.029 120.103 383.303C119.191 383.966 118.3 384.664 117.43 385.385C116.585 386.034 115.785 386.753 115.037 387.538C115.037 387.538 115.037 387.7 115.037 387.666C115.928 387.13 116.756 386.409 117.596 385.781C118.435 385.153 119.429 384.443 120.362 383.815C122.104 382.615 123.926 381.569 125.812 380.685C127.692 379.804 129.656 379.168 131.665 378.788C133.551 378.523 135.453 378.426 137.353 378.498C137.788 378.498 137.529 377.962 137.291 377.893Z" fill="black"/>
<path d="M146.356 369.26C141.777 367.177 140.948 358.789 153.816 354.135C166.684 349.481 176.941 350.191 177.749 355.019C180.453 356.671 181.106 363.594 171.139 369.109C161.172 374.623 145.869 378.544 146.356 369.26Z" fill="#9747FF"/>
<path opacity="0.25" d="M146.356 369.26C141.777 367.177 140.948 358.789 153.816 354.135C166.684 349.481 176.941 350.191 177.749 355.019C180.453 356.671 181.106 363.594 171.139 369.109C161.172 374.623 145.869 378.544 146.356 369.26Z" fill="white"/>
<path d="M171.657 357.079C167.642 357.632 163.69 358.658 159.867 360.139C156.25 361.296 152.771 362.941 149.506 365.037C148.683 365.611 147.907 366.265 147.185 366.991C146.846 367.323 146.525 367.677 146.222 368.05C145.939 368.296 145.75 368.654 145.693 369.051C145.698 369.115 145.717 369.177 145.748 369.232C145.778 369.287 145.82 369.333 145.87 369.366C145.92 369.399 145.976 369.418 146.033 369.422C146.091 369.426 146.148 369.414 146.201 369.388C146.898 368.782 147.547 368.109 148.138 367.375C148.773 366.772 149.444 366.22 150.148 365.723C151.501 364.763 152.922 363.93 154.396 363.233C157.897 361.534 161.497 360.103 165.171 358.952C167.316 358.289 169.481 357.788 171.657 357.253C171.75 357.242 171.729 357.067 171.657 357.079Z" fill="#9747FF"/>
<path opacity="0.3" d="M171.657 357.079C167.642 357.632 163.69 358.658 159.867 360.139C156.25 361.296 152.771 362.941 149.506 365.037C148.683 365.611 147.907 366.265 147.185 366.991C146.846 367.323 146.525 367.677 146.222 368.05C145.939 368.296 145.75 368.654 145.693 369.051C145.698 369.115 145.717 369.177 145.748 369.232C145.778 369.287 145.82 369.333 145.87 369.366C145.92 369.399 145.976 369.418 146.033 369.422C146.091 369.426 146.148 369.414 146.201 369.388C146.898 368.782 147.547 368.109 148.138 367.375C148.773 366.772 149.444 366.22 150.148 365.723C151.501 364.763 152.922 363.93 154.396 363.233C157.897 361.534 161.497 360.103 165.171 358.952C167.316 358.289 169.481 357.788 171.657 357.253C171.75 357.242 171.729 357.067 171.657 357.079Z" fill="black"/>
<path d="M259.141 391.345C259.091 391.112 258.987 390.897 258.84 390.724C258.692 390.55 258.507 390.423 258.302 390.356C257.736 390.137 257.133 390.071 256.54 390.164C255.948 390.257 255.383 390.506 254.893 390.891C254.71 391.019 254.56 391.2 254.46 391.415C254.36 391.63 254.313 391.871 254.323 392.113L259.006 423.526C259.043 423.688 259.117 423.836 259.221 423.957C259.324 424.077 259.454 424.165 259.597 424.212C259.996 424.365 260.422 424.41 260.839 424.343C261.257 424.276 261.655 424.1 262 423.828C262.126 423.74 262.23 423.616 262.301 423.469C262.372 423.323 262.407 423.158 262.404 422.991L259.141 391.345Z" fill="#455A64"/>
<path d="M286.638 375.708C286.588 375.475 286.484 375.261 286.337 375.087C286.19 374.913 286.004 374.786 285.799 374.719C285.233 374.5 284.629 374.435 284.036 374.53C283.443 374.625 282.879 374.878 282.39 375.266C282.213 375.388 282.068 375.559 281.968 375.763C281.868 375.967 281.817 376.197 281.82 376.43L290.472 407.238C290.511 407.4 290.587 407.548 290.693 407.668C290.798 407.789 290.929 407.877 291.072 407.924C291.472 408.077 291.898 408.122 292.315 408.055C292.733 407.988 293.131 407.812 293.476 407.54C293.602 407.448 293.704 407.322 293.775 407.174C293.846 407.025 293.882 406.859 293.88 406.691L286.638 375.708Z" fill="#455A64"/>
<path d="M223.956 385.69C223.948 385.449 223.996 385.209 224.096 384.994C224.196 384.78 224.345 384.599 224.526 384.469C225.017 384.086 225.581 383.836 226.173 383.742C226.765 383.647 227.368 383.708 227.935 383.922C228.143 383.99 228.331 384.118 228.48 384.293C228.629 384.469 228.734 384.686 228.785 384.923L228.09 417.208C228.092 417.375 228.056 417.54 227.985 417.686C227.915 417.833 227.812 417.957 227.686 418.046C227.34 418.32 226.94 418.498 226.521 418.565C226.101 418.632 225.673 418.585 225.272 418.43C225.13 418.385 225.001 418.299 224.897 418.18C224.794 418.062 224.719 417.916 224.682 417.755L223.956 385.69Z" fill="#455A64"/>
<path d="M297.008 361.817C296.117 354.65 291.03 348.158 281.903 344.028C263.658 335.779 236.316 340.13 220.827 353.742C213.088 360.56 209.814 368.39 210.726 375.545L211.213 379.396C212.249 386.447 217.315 392.823 226.318 396.848C244.563 405.109 271.905 400.757 287.446 387.133C295.092 380.42 298.417 372.695 297.63 365.61L297.008 361.817Z" fill="#9F3E9B"/>
<path d="M220.786 353.743C205.307 367.367 207.545 385.086 225.79 393.3C244.035 401.514 271.345 397.244 286.886 383.585C302.427 369.926 300.137 352.172 281.892 344.028C263.647 335.884 236.275 340.13 220.786 353.743Z" fill="#9F3E9B"/>
<path opacity="0.45" d="M220.786 353.743C205.307 367.367 207.545 385.086 225.79 393.3C244.035 401.514 271.345 397.244 286.886 383.585C302.427 369.926 300.137 352.172 281.892 344.028C263.647 335.884 236.275 340.13 220.786 353.743Z" fill="white"/>
<g opacity="0.45">
<path d="M265.036 356.209C270.828 358.943 271.47 364.609 266.476 368.867C261.482 373.126 252.738 374.382 246.957 371.66C241.176 368.937 240.523 363.26 245.517 359.001C250.511 354.743 259.255 353.487 265.036 356.209Z" fill="#9F3E9B"/>
</g>
<path d="M246.75 353.335C243.093 346.948 242.802 333.068 248.097 329.904L271.097 335.221C274.837 340.479 269.688 353.103 264.083 357.326L263.928 357.442L263.741 357.57L263.244 357.896L263.109 357.966C262.979 358.049 262.844 358.123 262.705 358.187C262.477 358.292 262.26 358.396 262.032 358.478C259.667 359.198 257.186 359.283 254.787 358.727C252.388 358.172 250.139 356.99 248.221 355.278C248.045 355.104 247.869 354.906 247.703 354.708C247.537 354.51 247.517 354.476 247.423 354.359C247.391 354.304 247.353 354.253 247.309 354.208L246.978 353.708L246.833 353.463L246.75 353.335Z" fill="#EBEBEB"/>
<path d="M269.408 333.091C274.029 337.745 273.024 343.225 267.15 345.412C261.275 347.6 252.769 345.622 248.148 341.014C243.527 336.407 244.532 330.881 250.407 328.693C256.281 326.506 264.787 328.472 269.408 333.091Z" fill="#FAFAFA"/>
<path d="M265.244 334.639C268.062 337.443 267.44 340.805 263.866 342.131C261.887 342.739 259.808 342.814 257.799 342.349C255.79 341.884 253.907 340.892 252.303 339.455C249.496 336.651 250.107 333.289 253.681 331.963C255.66 331.355 257.739 331.281 259.748 331.746C261.757 332.211 263.64 333.202 265.244 334.639Z" fill="#EBEBEB"/>
<path d="M253.028 335.523C255.007 334.913 257.086 334.837 259.095 335.302C261.105 335.768 262.988 336.76 264.591 338.199C265.282 338.841 265.817 339.67 266.145 340.607C265.508 341.318 264.725 341.842 263.865 342.131C261.887 342.74 259.808 342.814 257.799 342.349C255.789 341.884 253.906 340.893 252.303 339.456C251.62 338.808 251.089 337.98 250.759 337.047C251.389 336.332 252.169 335.808 253.028 335.523Z" fill="#E0E0E0"/>
<path d="M263.523 340.002C265.502 338.515 267.297 336.739 268.859 334.72C271.491 331.323 272.786 326.273 271.905 325.412C271.024 324.552 266.02 328.728 266.02 328.728C266.787 326.659 267.333 324.496 267.647 322.283C268.103 318.792 267.937 315.546 267.181 314.72C266.424 313.894 263.679 317.757 262.27 320.677C260.861 323.597 259.897 326.064 259.897 326.064C260.004 323.549 259.942 321.029 259.711 318.525C259.296 315.034 258.509 314.104 257.742 314.267C256.975 314.43 256.219 315.826 255.214 320.084C254.764 322.13 254.446 324.211 254.261 326.308C254.261 326.308 253.152 324.202 251.868 322.12C250.469 319.793 249.796 319.397 249.205 319.642C248.614 319.886 247.962 322.795 249.661 328.949C250.493 332.056 251.748 334.999 253.38 337.675C253.38 337.675 256.634 341.235 263.523 340.002Z" fill="#9F3E9B"/>
<path opacity="0.3" d="M263.523 340.002C265.502 338.515 267.297 336.739 268.859 334.72C271.491 331.323 272.786 326.273 271.905 325.412C271.024 324.552 266.02 328.728 266.02 328.728C266.787 326.659 267.333 324.496 267.647 322.283C268.103 318.792 267.937 315.546 267.181 314.72C266.424 313.894 263.679 317.757 262.27 320.677C260.861 323.597 259.897 326.064 259.897 326.064C260.004 323.549 259.942 321.029 259.711 318.525C259.296 315.034 258.509 314.104 257.742 314.267C256.975 314.43 256.219 315.826 255.214 320.084C254.764 322.13 254.446 324.211 254.261 326.308C254.261 326.308 253.152 324.202 251.868 322.12C250.469 319.793 249.796 319.397 249.205 319.642C248.614 319.886 247.962 322.795 249.661 328.949C250.493 332.056 251.748 334.999 253.38 337.675C253.38 337.675 256.634 341.235 263.523 340.002Z" fill="black"/>
<path d="M174.019 171.744C174.982 172.419 175.511 170.778 177.79 167.765C180.069 164.752 189.186 151.232 189.186 151.232L201.619 167.02C201.619 167.02 191.642 176.828 188.658 179.586C185.353 182.657 180.763 186.846 178.981 189.719C177.199 192.593 172.92 201.04 168.776 200.528C164.632 200.016 162.28 196.374 160.809 193.361C159.338 190.348 159.462 182.995 158.353 178.562C157.245 174.129 155.908 171.244 155.421 167.055C154.935 162.867 158.623 155.421 161.98 155.421C165.337 155.421 168.196 159.423 169.678 162.192C171.159 164.961 172.226 170.499 174.019 171.744Z" fill="#F28F8F"/>
<path d="M172.548 199.76C174.838 197.312 176.821 194.525 178.443 191.476C180.919 187.195 182.297 186.264 182.297 186.264C182.297 186.264 183.333 183.053 180.929 176.956C178.526 170.86 175.21 171.058 175.21 171.058C175.21 171.058 173.418 172.314 172.402 167.451L164.373 171.453L172.548 199.76Z" fill="#414141"/>
<path d="M161.804 154.851C164.104 154.129 166.518 155.607 168.89 159.342C170.508 161.783 171.7 164.547 172.403 167.486C172.403 167.486 172.465 171.965 168.766 172.791C165.067 173.617 161.804 154.851 161.804 154.851Z" fill="#F0F0F0"/>
<path d="M157.981 156.608C158.55 155.707 159.408 155.089 160.374 154.886C160.664 154.886 161.607 154.886 161.804 154.886C164.352 154.63 166.352 159.644 167.834 164.275C169.564 169.661 169.419 178.341 169.906 184.577C170.393 190.813 172.931 194.594 173.014 197.293C173.082 198.142 172.895 198.993 172.482 199.708C172.068 200.423 171.453 200.962 170.735 201.237C170.465 201.342 169.512 201.633 169.326 201.691C168.475 201.851 167.602 201.788 166.777 201.505C165.952 201.222 165.196 200.729 164.57 200.062C161.203 197.014 159.151 194.071 158.354 187.264C157.556 180.458 157.183 176.921 155.069 171.581C152.956 166.241 155.308 160.133 157.981 156.608Z" fill="#37474F"/>
<path d="M157.981 156.608C161.71 151.663 164.487 158.295 166.404 164.286C168.134 169.673 167.989 178.352 168.476 184.588C168.963 190.825 171.584 194.594 171.646 197.305C171.719 202.215 167.989 203.122 164.632 200.027C161.275 196.933 159.214 194.036 158.416 187.229C157.618 180.423 157.245 176.886 155.132 171.546C153.018 166.206 155.308 160.133 157.981 156.608Z" fill="#263238"/>
<path d="M173.49 170.395C174.35 171.639 175.21 171.034 175.21 171.034C176.847 177.201 176.008 180.028 176.008 180.028C176.008 180.028 174.796 173.187 173.49 170.395Z" fill="#37474F"/>
<path d="M180.173 163.461C180.173 163.461 197.889 134.723 200.221 131.117C204.458 124.508 206.945 122.635 213.689 119.343C224.713 113.967 257.804 103.054 257.804 103.054L271.014 139.959L218.963 148.883C217.367 153.955 211.275 159.703 207.483 163.123C195.631 173.815 191.062 177.655 191.062 177.655C190.098 172.233 185.799 165.217 180.173 163.461Z" fill="#455A64"/>
<path d="M253.432 113.874C250.386 120.773 251.36 128.696 253.277 132.489L247.641 141.192L218.963 148.894L271.014 139.97L257.805 103.066L253.432 113.874Z" fill="#37474F"/>
<path d="M189.321 172.477C192.243 169.534 199.05 162.669 203.039 158.364C208.064 152.978 212.052 147.556 213.99 143.507C215.844 139.645 217.16 138.341 219.854 137.69C222.268 137.108 254.354 130.5 254.676 130.43L254.8 131.221C254.479 131.221 222.403 137.899 220.009 138.469C217.782 139.005 216.538 139.877 214.611 143.88C212.684 147.882 208.602 153.49 203.536 158.946C199.464 163.309 192.502 170.348 189.653 173.21C189.549 173.001 189.435 172.721 189.321 172.477Z" fill="#37474F"/>
<path d="M232.318 212.22C231.706 220.83 231.499 231.894 229.033 236.979C226.454 242.284 226.63 244.75 222.817 249.777C221.988 250.882 220.082 252.929 219.398 253.814C219.235 253.988 219.108 254.202 219.026 254.438C218.945 254.675 218.912 254.928 218.929 255.181C218.945 255.434 219.012 255.679 219.124 255.9C219.235 256.12 219.389 256.309 219.574 256.455C221.304 258.281 226.899 256.373 230.971 252.895C235.456 248.745 239.705 244.284 243.694 239.538C244.453 238.355 244.918 236.965 245.04 235.513C245.149 234.689 245.184 233.855 245.144 233.023C245.714 230.335 249.05 218.585 250.107 215.269L232.318 212.22Z" fill="#FFA8A7"/>
<path d="M244.989 246.926C244.961 247.632 244.828 248.329 244.595 248.985C244.077 250.032 240.171 251.987 238.689 252.662C236.637 253.536 234.961 255.259 234.006 257.478C232.139 260.803 229.283 263.276 225.946 264.459C221.429 266.203 216.547 266.361 211.949 264.913C206.219 263.249 206.002 259.363 206.002 259.363C206.002 259.363 205.94 255.722 207.421 255.268C208.903 254.814 244.989 246.926 244.989 246.926Z" fill="#263238"/>
<path d="M245.113 233.046C245.258 233.139 245.548 233.267 245.641 234.047C245.641 234.337 245.227 237.374 245.258 239.154C245.289 240.934 245.869 244.681 244.989 246.926C241.673 250.172 236.793 250.649 234.214 254.093C231.634 257.537 229.178 261.888 221.46 262.947C213.741 264.005 208.146 260.806 206.893 258.293C205.639 255.78 207.09 253.558 212.166 251.01C217.543 248.31 224.982 239.526 224.982 239.526C226.008 238.284 226.96 236.966 227.831 235.582C228.591 234.141 229.249 232.636 229.8 231.08C230.062 230.359 230.514 229.746 231.095 229.323C231.759 229.048 232.482 229.007 233.167 229.207C234.265 229.345 235.346 229.622 236.389 230.033C237.439 230.44 238.334 231.236 238.928 232.29C239.332 233.069 239.508 233.977 239.964 234.71C240.284 235.191 240.718 235.562 241.215 235.782C241.713 236.002 242.255 236.061 242.782 235.955C243.292 235.889 243.772 235.647 244.155 235.261C244.537 234.875 244.803 234.365 244.916 233.802L245.113 233.046Z" fill="#414141"/>
<path d="M226.516 261.318C226.552 259.335 226.104 257.379 225.22 255.663C224.336 253.946 223.05 252.534 221.502 251.58C215.99 247.799 212.364 249.625 210.509 250.905C208.302 252.418 205.08 255.687 206.727 258.409C208.499 261.341 211.555 262.912 217.399 263.482C223.242 264.052 226.516 261.318 226.516 261.318Z" fill="#FAFAFA"/>
<path d="M235.705 242.016C235.604 242.002 235.506 241.962 235.42 241.899C235.334 241.837 235.262 241.754 235.208 241.656C234.618 240.585 230.701 236.432 226.588 237.351C226.412 236.804 226.785 236.292 227.624 235.803C231.882 235.734 235.612 239.654 236.317 240.946C236.36 241.027 236.389 241.117 236.401 241.211C236.412 241.305 236.407 241.401 236.385 241.492C236.362 241.583 236.324 241.669 236.271 241.743C236.218 241.817 236.153 241.878 236.078 241.923C235.964 241.993 235.835 242.025 235.705 242.016Z" fill="#FAFAFA"/>
<path d="M224.05 240.562C224.139 240.223 224.298 239.913 224.514 239.656C224.73 239.399 224.997 239.204 225.293 239.084C226.889 239.288 228.433 239.846 229.835 240.727C231.237 241.608 232.468 242.794 233.457 244.215C233.502 244.296 233.532 244.386 233.545 244.481C233.557 244.575 233.552 244.671 233.53 244.763C233.507 244.855 233.468 244.941 233.415 245.015C233.361 245.088 233.294 245.149 233.219 245.193C233.095 245.265 232.954 245.293 232.815 245.274C232.713 245.263 232.616 245.226 232.529 245.166C232.443 245.105 232.37 245.023 232.318 244.925C231.748 243.89 228.028 239.945 224.05 240.562Z" fill="#FAFAFA"/>
<path d="M217.232 247.357C217.678 246.545 218.359 245.929 219.159 245.612C223.304 245.612 226.982 249.474 227.676 250.754C227.72 250.833 227.749 250.922 227.761 251.015C227.773 251.107 227.769 251.202 227.747 251.292C227.726 251.383 227.689 251.467 227.637 251.541C227.586 251.614 227.521 251.675 227.448 251.72C227.326 251.8 227.184 251.832 227.044 251.813C226.941 251.804 226.841 251.768 226.753 251.707C226.664 251.646 226.59 251.563 226.536 251.464C225.925 250.335 221.615 245.763 217.232 247.357Z" fill="#FAFAFA"/>
<path d="M229.903 248.543C229.802 248.533 229.704 248.496 229.618 248.435C229.532 248.374 229.459 248.292 229.406 248.194C228.826 247.136 224.993 243.063 220.921 243.866C221.046 243.506 221.243 243.183 221.496 242.921C221.749 242.659 222.052 242.465 222.382 242.354C223.978 242.555 225.523 243.112 226.925 243.993C228.327 244.874 229.558 246.061 230.546 247.485C230.59 247.566 230.618 247.656 230.63 247.75C230.642 247.844 230.636 247.939 230.614 248.031C230.592 248.122 230.553 248.208 230.5 248.282C230.448 248.356 230.382 248.417 230.308 248.462C230.184 248.536 230.042 248.564 229.903 248.543Z" fill="#FAFAFA"/>
<path d="M257.805 103.042C257.805 103.042 247.641 116.922 256.768 132.466C256.768 132.466 244.926 149.115 238.803 159.644C236.586 163.472 235.529 166.718 234.856 173.606C234.183 180.493 233.561 189.428 233.219 194.548C232.183 210.184 231.727 217.037 231.727 217.037C231.727 217.037 238.979 224.227 248.604 221.505C248.604 221.505 252.749 209.265 256.634 196.06C258.442 190.03 259.379 183.714 259.41 177.352C259.41 177.352 288.928 153.99 295.507 144.159C301.93 134.56 302.593 124.706 302.417 121.588L257.805 103.042Z" fill="#455A64"/>
<path d="M253.816 184.216C254.003 182.215 254.075 180.61 254.137 179.318C254.282 176.189 254.355 174.606 255.95 173.292C257.815 171.756 271.574 159.586 283.582 148.219C295.59 136.852 298.356 125.358 299.029 109.314L299.734 109.418C299.05 125.707 296.118 137.411 284.038 148.836C272.558 159.691 258.623 172.105 256.365 173.931C255.039 175.025 254.987 176.258 254.842 179.365C254.842 180.656 254.717 182.273 254.521 184.298C253.951 190.324 247.175 213.838 244.554 222.11H243.797C246.346 214.152 253.246 190.255 253.816 184.216Z" fill="#37474F"/>
<path d="M301.391 6.02263C290.896 -7.61298 271.553 4.3938 272.496 17.4128C272.755 21.0776 264.508 20.0189 264.839 24.696C265.228 24.0198 265.812 23.5149 266.493 23.2669C267.175 23.0188 267.912 23.0428 268.579 23.3347C266.114 24.4982 266.114 26.9647 266 28.07C265.928 28.8964 266.023 29.7303 266.278 30.5098C266.532 31.2893 266.94 31.9943 267.471 32.5725C268.393 33.5847 269.667 34.2013 270.372 35.4113C271.408 37.0983 270.703 39.6114 271.563 41.3914C272.599 43.602 274.34 44.7305 277.966 44.3699C280.204 44.1488 282.338 43.474 284.41 44.4513C285.712 45.2766 286.974 46.1776 288.192 47.1505C290.045 48.1967 292.133 48.6016 294.191 48.314C294.399 48.2696 294.611 48.2424 294.823 48.2325C295.024 48.2674 295.222 48.3259 295.413 48.407C295.848 48.5466 296.284 48.6746 296.729 48.7793C297.591 49.0236 298.473 49.164 299.361 49.1982C300.912 49.2949 302.439 48.7437 303.65 47.6508C304.234 47.0933 304.654 46.3506 304.856 45.5201C305.057 44.6896 305.031 43.8101 304.779 42.997C305.762 43.9322 306.963 44.5303 308.239 44.7201C309.516 44.9099 310.815 44.6833 311.98 44.0674C311.145 44.0481 310.33 43.775 309.622 43.2772C308.914 42.7794 308.34 42.0754 307.96 41.2402C309.162 42.5898 313.524 42.8807 315.637 40.2629C316.205 39.5094 316.632 38.6342 316.89 37.6902C317.148 36.7463 317.233 35.7533 317.139 34.7714C316.95 33.0553 316.32 31.4382 315.326 30.1176C317.222 30.5016 319.388 33.8407 319.139 36.7376C322.858 28.5935 314.995 23.3813 313.368 21.0544C310.882 17.4361 310.737 14.1784 309.742 11.8166C309.04 10.0115 307.865 8.48973 306.373 7.45446C304.881 6.41919 303.143 5.91968 301.391 6.02263Z" fill="#583B3B"/>
<path d="M285.001 50.129C278.785 49.1633 275.408 48.2442 267.388 50.4548L247.703 55.8532C247.703 55.8532 226.91 50.2221 224.993 49.8032C223.076 49.3844 219.813 47.4763 216.995 45.8708C214.177 44.2652 211.918 42.9389 210.685 42.8807C209.452 42.8225 208.157 43.1134 205.153 44.1372C203.547 44.6841 201.34 45.3938 199.444 46.2198C198.023 46.9021 196.639 47.6791 195.3 48.5467C194.45 49.0586 195.238 50.8736 197.9 49.9545C199.972 49.2448 202.853 48.6747 202.853 48.6747C202.853 48.6747 201.319 50.3268 202.469 51.7578C203.619 53.1889 202.293 53.1191 203.205 54.0847C204.117 55.0504 203.277 56.528 204.5 57.1911C205.722 57.8543 204.811 58.9363 206.075 59.5878C207.339 60.2394 208.427 59.5878 209.68 58.7734C210.934 57.959 211.369 57.098 212.664 57.9241C213.959 58.7501 215.461 60.0881 218.217 59.7507C220.973 59.4133 223.988 61.4842 230.111 64.6256C236.97 68.1159 240.834 70.0705 244.616 71.6062C247.02 72.5952 248.097 72.4207 251.703 71.6062L283.572 64.2416L285.001 50.129Z" fill="#FFA8A7"/>
<path d="M218.32 54.7478C217.624 54.1136 216.992 53.3958 216.435 52.6071C215.873 51.769 215.169 51.0649 214.362 50.5361C212.591 49.5821 210.653 49.8264 208.985 49.3727C208.593 49.3043 208.218 49.1461 207.883 48.9079C207.548 48.6697 207.26 48.3567 207.037 47.9882C206.961 47.8448 206.928 47.6773 206.944 47.5112C206.944 47.3832 206.944 47.3367 207.172 47.2203C207.558 47.0331 207.961 46.8965 208.374 46.8131L211.047 46.2547C211.497 46.1451 211.94 46.0013 212.373 45.8242C212.59 45.7354 212.798 45.6224 212.995 45.4868C213.181 45.3472 213.409 45.1261 213.347 44.8585C213.347 45.1261 213.13 45.2774 212.943 45.3704C212.739 45.4705 212.528 45.5485 212.311 45.6031C211.873 45.706 211.43 45.7798 210.985 45.8242C210.084 45.9405 209.192 46.0103 208.27 46.1499C207.786 46.1931 207.31 46.3227 206.861 46.5339C206.707 46.6037 206.57 46.7141 206.462 46.8558C206.354 46.9976 206.278 47.1665 206.24 47.3483C206.183 47.6919 206.226 48.0471 206.364 48.3605C206.63 48.8492 206.986 49.2689 207.408 49.5918C207.829 49.9147 208.307 50.1335 208.809 50.2337C210.684 50.6641 212.518 50.4082 214.114 51.1179C214.901 51.5391 215.605 52.1324 216.186 52.863C216.82 53.5947 217.537 54.2285 218.32 54.7478Z" fill="#F28F8F"/>
<path d="M206.727 50.8385L206.478 50.6757L205.494 50.0358C205.652 49.9772 205.823 49.9772 205.981 50.0358C206.778 50.116 207.53 50.4833 208.126 51.0829C208.263 51.2619 208.348 51.4836 208.37 51.7185C208.393 51.9533 208.351 52.1901 208.25 52.3976C208.178 52.5873 208.077 52.7607 207.95 52.9095C207.875 52.9927 207.795 53.0705 207.711 53.1422C207.98 53.3151 208.208 53.5586 208.374 53.8519C208.537 54.1794 208.626 54.5462 208.635 54.9209C208.644 55.2957 208.573 55.6673 208.426 56.0043L208.323 56.2137C208.395 56.284 208.458 56.3664 208.509 56.458C208.641 56.6414 208.734 56.8563 208.781 57.0861C208.827 57.316 208.826 57.5548 208.778 57.7843C208.743 57.9914 208.68 58.1914 208.592 58.3777C208.592 58.3777 208.198 58.7384 208.188 58.622C208.183 58.4563 208.204 58.2909 208.25 58.1334C208.287 57.8114 208.228 57.4848 208.084 57.2034C207.94 56.922 207.718 56.7011 207.452 56.5743C207.425 56.5834 207.396 56.5834 207.369 56.5743C207.318 56.4929 207.369 56.3998 207.421 56.33C207.608 56.0929 207.737 55.8051 207.795 55.4951C207.853 55.185 207.839 54.8633 207.753 54.5616C207.623 54.2783 207.425 54.0408 207.183 53.8751C207.069 53.7937 206.872 53.6657 206.862 53.4912C206.851 53.3167 207.038 53.212 207.152 53.0956C207.31 52.9518 207.44 52.7737 207.535 52.5721C207.597 52.3751 207.61 52.1632 207.574 51.9585C207.537 51.7538 207.452 51.5638 207.328 51.4086C207.156 51.1839 206.953 50.9914 206.727 50.8385Z" fill="#F28F8F"/>
<path d="M305.764 54.7478C314.788 58.1567 313.265 72.4555 313.513 81.8678C313.721 90.1748 309.317 96.3062 305.432 109.395C302.396 119.61 304.893 125.893 299.216 137.818C298.049 134.097 297.368 130.205 297.195 126.265C270.372 136.48 246.688 117.597 251.878 106.835C254.642 102.163 257.937 97.9151 261.679 94.2003C261.781 91.2403 262.252 88.311 263.078 85.4977C261.725 84.0357 260.68 82.2513 260.022 80.2761C259.364 78.3008 259.109 76.185 259.276 74.0843C259.887 67.4178 262.602 62.9734 269.636 56.9118C277.22 50.3616 280.339 49.9311 284.991 50.1289C289.643 50.3267 302.303 53.4331 305.764 54.7478Z" fill="#F9F9F9"/>
<path d="M274.257 87.336C274.257 87.336 277.935 92.7344 285.54 92.0596C293.393 91.3732 295.123 84.1947 295.123 84.1947C295.123 84.1947 295.196 93.6884 285.799 94.5145C283.448 94.8222 281.071 94.2953 279.001 93.0078C276.931 91.7202 275.272 89.7367 274.257 87.336Z" fill="#D2D2D2"/>
<path d="M305.764 54.7478C314.933 57.3307 316.642 61.2282 323.055 68.3718C329.469 75.5153 334.545 80.8788 336.804 83.4152C339.062 85.9515 339.539 87.1847 340.637 93.8862C341.736 100.588 343.87 118.249 344.709 120.878C345.548 123.508 347.527 130.023 348.729 133.676C349.164 135.002 349.433 136.689 348.542 137.865C348.274 138.155 348.041 138.483 347.848 138.842C347.715 139.419 347.69 140.022 347.776 140.61C347.774 141.113 347.669 141.608 347.47 142.058C347.27 142.508 346.982 142.9 346.626 143.205C345.952 143.763 345.03 144.054 344.678 144.903C344.587 145.147 344.518 145.401 344.471 145.66C344.248 146.635 343.899 147.568 343.435 148.429C342.582 149.668 341.573 150.762 340.44 151.675C338.952 152.107 337.428 152.368 335.892 152.454C335.146 152.536 333.82 150.93 335.892 149.72C336.865 149.125 337.872 148.604 338.907 148.161L339.632 144.671C339.632 144.671 338.41 139.005 338.109 138.574C337.809 138.144 337.716 139.738 337.736 141.145C337.736 142.146 338.078 144.182 336.939 145.311C335.799 146.439 335.146 146.276 334.866 145.857C334.587 145.439 334.639 142.03 334.359 140.378C333.965 138.051 333.136 135.34 333.768 132.571C334.334 129.964 334.306 127.239 333.685 124.648C333.136 122.228 326.754 98.0979 326.754 98.0979L308.644 80.6462C303.246 75.271 302.024 60.9955 305.764 54.7478Z" fill="#FFA8A7"/>
<path d="M280.018 12.154C277.407 13.4105 274.838 17.9712 274.175 30.839C273.708 40.1466 276.371 44.1255 278.785 45.5566C280.65 46.6358 282.717 47.1982 284.815 47.1971L284.67 53.2237C277.335 63.1945 294.699 64.1252 300.915 54.7478L301.278 37.2961C301.636 37.8276 302.095 38.264 302.62 38.5746C303.145 38.8852 303.725 39.0623 304.318 39.0934C304.911 39.1245 305.503 39.0088 306.052 38.7545C306.601 38.5002 307.093 38.1135 307.494 37.6219C310.602 34.2479 310.602 29.629 308.427 27.593C306.251 25.5569 303.246 26.6971 301.765 29.6174C300.511 31.8046 298.315 31.5254 298.822 28.1747C287.229 21.4267 289.788 12.3634 287.032 11.2116C284.666 10.6271 282.194 10.9593 280.018 12.154Z" fill="#FFA8A7"/>
<path d="M306.24 35.9466C306.244 36.249 306.168 36.5459 306.022 36.7996C305.875 37.0532 305.664 37.2522 305.417 37.3711C305.169 37.4901 304.896 37.5236 304.631 37.4674C304.366 37.4113 304.123 37.268 303.931 37.0558C303.739 36.8436 303.608 36.5721 303.554 36.2758C303.499 35.9796 303.525 35.6719 303.627 35.3921C303.729 35.1122 303.903 34.8728 304.127 34.7043C304.35 34.5358 304.614 34.4458 304.883 34.4457C305.06 34.4442 305.235 34.4818 305.399 34.5564C305.563 34.631 305.712 34.7411 305.838 34.8805C305.964 35.0198 306.065 35.1857 306.134 35.3686C306.203 35.5516 306.239 35.7479 306.24 35.9466Z" fill="#00E45F"/>
<path d="M284.815 47.1971C293.994 47.3134 297.351 43.2995 298.594 39.8557C298.547 41.1313 298.26 42.3814 297.753 43.5241C297.246 44.6669 296.53 45.6766 295.652 46.4874C291.798 49.7683 284.752 49.5938 284.752 49.5938L284.815 47.1971Z" fill="#F28F8F"/>
<path d="M290.596 27.2089C290.529 27.6475 290.313 28.0396 289.993 28.302C289.673 28.5644 289.275 28.6765 288.882 28.6144C288.49 28.5523 288.135 28.321 287.892 27.9695C287.649 27.6181 287.537 27.1741 287.581 26.7319C287.648 26.2933 287.864 25.9012 288.184 25.6388C288.504 25.3764 288.902 25.2644 289.295 25.3264C289.687 25.3885 290.043 25.6198 290.285 25.9713C290.528 26.3228 290.64 26.7667 290.596 27.2089Z" fill="#263238"/>
<path d="M280.007 25.5103C279.967 25.8435 279.841 26.156 279.643 26.4082C279.445 26.6604 279.185 26.841 278.895 26.9272C278.606 27.0134 278.301 27.0012 278.017 26.8922C277.734 26.7832 277.486 26.5823 277.305 26.315C277.123 26.0477 277.017 25.7259 276.998 25.3904C276.98 25.0549 277.05 24.7207 277.201 24.4303C277.351 24.1398 277.575 23.9061 277.844 23.7587C278.113 23.6113 278.415 23.5568 278.712 23.6022C279.109 23.663 279.468 23.8979 279.711 24.2556C279.954 24.6133 280.06 25.0645 280.007 25.5103Z" fill="#263238"/>
<path d="M276.982 20.589L280.525 19.4256C280.468 19.1639 280.364 18.918 280.219 18.7028C280.075 18.4877 279.893 18.3077 279.685 18.1739C279.476 18.0401 279.246 17.9552 279.007 17.9243C278.769 17.8935 278.528 17.9174 278.298 17.9945C277.822 18.1519 277.419 18.5101 277.174 18.9939C276.929 19.4777 276.86 20.0494 276.982 20.589Z" fill="#263238"/>
<path d="M288.223 35.0042L282.743 36.7842C282.832 37.1921 282.995 37.5753 283.22 37.9109C283.445 38.2466 283.728 38.5277 284.052 38.7374C284.376 38.9471 284.735 39.0811 285.106 39.1314C285.478 39.1816 285.854 39.147 286.213 39.0297C286.943 38.7733 287.557 38.2137 287.931 37.4653C288.304 36.7169 288.409 35.8364 288.223 35.0042Z" fill="#B16668"/>
<path d="M292.222 23.5791L289.218 21.1126C289.352 20.8842 289.526 20.6891 289.729 20.5392C289.932 20.3892 290.161 20.2877 290.401 20.2408C290.641 20.194 290.886 20.2027 291.123 20.2666C291.36 20.3305 291.582 20.4481 291.777 20.6123C292.177 20.9471 292.447 21.4426 292.53 21.9953C292.613 22.548 292.503 23.1153 292.222 23.5791Z" fill="#263238"/>
<path d="M278.226 31.1415L284.535 23.5093L282.515 33.8174L278.226 31.1415Z" fill="#F28F8F"/>
<path d="M284.814 39.0762C284.992 38.1937 285.432 37.405 286.06 36.8388C286.688 36.2725 287.469 35.9621 288.275 35.9581C288.251 36.6551 288.033 37.326 287.652 37.8769C287.271 38.4278 286.746 38.8309 286.151 39.0296C285.715 39.1605 285.257 39.1765 284.814 39.0762Z" fill="#F28F8F"/>
<defs>
<filter id="filter0_d_406_1332" x="0.1" y="165.917" width="527.8" height="351.983" filterUnits="userSpaceOnUse" color-interpolation-filters="sRGB">
<feFlood flood-opacity="0" result="BackgroundImageFix"/>
<feColorMatrix in="SourceAlpha" type="matrix" values="0 0 0 0 0 0 0 0 0 0 0 0 0 0 0 0 0 0 127 0" result="hardAlpha"/>
<feOffset dy="4"/>
<feGaussianBlur stdDeviation="6.95"/>
<feComposite in2="hardAlpha" operator="out"/>
<feColorMatrix type="matrix" values="0 0 0 0 0 0 0 0 0 0 0 0 0 0 0 0 0 0 0.25 0"/>
<feBlend mode="normal" in2="BackgroundImageFix" result="effect1_dropShadow_406_1332"/>
<feBlend mode="normal" in="SourceGraphic" in2="effect1_dropShadow_406_1332" result="shape"/>
</filter>
<linearGradient id="paint0_linear_406_1332" x1="14" y1="337.908" x2="514" y2="337.908" gradientUnits="userSpaceOnUse">
<stop stop-color="#3FCFFF" stop-opacity="0.968627"/>
<stop offset="1" stop-color="#00E45F"/>
</linearGradient>
</defs>
</svg>
