<svg width="62" height="62" viewBox="0 0 62 62" fill="none" xmlns="http://www.w3.org/2000/svg">
<path d="M31 46.4167C31.8736 46.4167 32.6059 46.1212 33.1968 45.5302C33.7878 44.9393 34.0833 44.207 34.0833 43.3334C34.0833 42.4597 33.7878 41.7275 33.1968 41.1365C32.6059 40.5455 31.8736 40.25 31 40.25C30.1263 40.25 29.3941 40.5455 28.8031 41.1365C28.2121 41.7275 27.9166 42.4597 27.9166 43.3334C27.9166 44.207 28.2121 44.9393 28.8031 45.5302C29.3941 46.1212 30.1263 46.4167 31 46.4167ZM27.9166 34.0834H34.0833V15.5834H27.9166V34.0834ZM31 61.8334C26.7347 61.8334 22.7263 61.024 18.975 59.4052C15.2236 57.7865 11.9604 55.5896 9.18538 52.8146C6.41038 50.0396 4.2135 46.7764 2.59475 43.025C0.976001 39.2736 0.166626 35.2653 0.166626 31C0.166626 26.7347 0.976001 22.7264 2.59475 18.975C4.2135 15.2236 6.41038 11.9604 9.18538 9.18544C11.9604 6.41044 15.2236 4.21356 18.975 2.59481C22.7263 0.976062 26.7347 0.166687 31 0.166687C35.2652 0.166687 39.2736 0.976062 43.025 2.59481C46.7763 4.21356 50.0395 6.41044 52.8145 9.18544C55.5895 11.9604 57.7864 15.2236 59.4052 18.975C61.0239 22.7264 61.8333 26.7347 61.8333 31C61.8333 35.2653 61.0239 39.2736 59.4052 43.025C57.7864 46.7764 55.5895 50.0396 52.8145 52.8146C50.0395 55.5896 46.7763 57.7865 43.025 59.4052C39.2736 61.024 35.2652 61.8334 31 61.8334ZM31 55.6667C37.8861 55.6667 43.7187 53.2771 48.4979 48.4979C53.277 43.7188 55.6666 37.8861 55.6666 31C55.6666 24.1139 53.277 18.2813 48.4979 13.5021C43.7187 8.72294 37.8861 6.33335 31 6.33335C24.1138 6.33335 18.2812 8.72294 13.502 13.5021C8.72288 18.2813 6.33329 24.1139 6.33329 31C6.33329 37.8861 8.72288 43.7188 13.502 48.4979C18.2812 53.2771 24.1138 55.6667 31 55.6667Z" fill="white"/>
</svg>
