<svg width="112" height="35" viewBox="0 0 112 35" fill="none" xmlns="http://www.w3.org/2000/svg">
<g clip-path="url(#clip0_1003_1530)">
<mask id="mask0_1003_1530" style="mask-type:luminance" maskUnits="userSpaceOnUse" x="-1" y="-1" width="114" height="28">
<path d="M112.737 -0.930908H-0.386841V26.4931H112.737V-0.930908Z" fill="white"/>
<path d="M3.46387 1.393C3.77068 1.393 4.08844 1.48069 4.41716 1.656C4.7678 1.80937 5.03077 2.01759 5.20609 2.28058L13.1939 14.5746L11.5503 14.5089L19.7354 2.28058C20.1519 1.68884 20.6888 1.393 21.3462 1.393C21.8721 1.393 22.3433 1.57928 22.7597 1.95184C23.1761 2.32439 23.3843 2.80651 23.3843 3.39818V22.431C23.3843 23.0008 23.198 23.483 22.8254 23.8774C22.4529 24.2499 21.9598 24.4362 21.3462 24.4362C20.7326 24.4362 20.2285 24.2499 19.8341 23.8774C19.4615 23.483 19.2753 23.0008 19.2753 22.431V6.94835L20.5573 7.24419L13.8514 17.4674C13.6542 17.7084 13.4021 17.9166 13.0953 18.092C12.8105 18.2673 12.5146 18.344 12.2078 18.322C11.9229 18.344 11.6271 18.2673 11.3203 18.092C11.0354 17.9166 10.7943 17.7084 10.5971 17.4674L4.31854 7.54009L5.17322 5.79785V22.431C5.17322 23.0008 4.9979 23.483 4.64727 23.8774C4.29663 24.2499 3.83642 24.4362 3.26665 24.4362C2.71878 24.4362 2.26953 24.2499 1.9189 23.8774C1.56827 23.483 1.39294 23.0008 1.39294 22.431V3.39818C1.39294 2.85032 1.59018 2.37917 1.98464 1.98475C2.40102 1.59025 2.8941 1.393 3.46387 1.393ZM37.2673 24.765C35.4045 24.765 33.7828 24.3814 32.4022 23.6144C31.0435 22.8255 29.9916 21.7627 29.2465 20.4259C28.5233 19.0891 28.1617 17.5769 28.1617 15.8895C28.1617 13.9172 28.5562 12.2408 29.3451 10.8601C30.1559 9.45758 31.2079 8.38379 32.5008 7.63868C33.7937 6.89357 35.1634 6.52102 36.6098 6.52102C37.7274 6.52102 38.7794 6.75117 39.7655 7.21135C40.7736 7.67152 41.6611 8.30707 42.4281 9.11793C43.1952 9.90685 43.7978 10.8273 44.2361 11.8792C44.6963 12.931 44.9264 14.0487 44.9264 15.2321C44.9045 15.758 44.6963 16.1854 44.3018 16.5141C43.9074 16.8428 43.4471 17.0072 42.9212 17.0072H30.3642L29.378 13.72H41.442L40.7188 14.3774V13.4899C40.675 12.8544 40.4449 12.2846 40.0285 11.7805C39.634 11.2765 39.13 10.882 38.5164 10.5972C37.9247 10.2904 37.2891 10.1369 36.6098 10.1369C35.9524 10.1369 35.3387 10.2246 34.769 10.3999C34.1992 10.5752 33.7061 10.8711 33.2898 11.2874C32.8734 11.7038 32.5446 12.2626 32.3036 12.9639C32.0625 13.6652 31.942 14.5528 31.942 15.6265C31.942 16.81 32.1831 17.818 32.6652 18.6508C33.1692 19.4616 33.8047 20.0862 34.5718 20.5245C35.3607 20.9408 36.1934 21.149 37.07 21.149C37.8809 21.149 38.5273 21.0833 39.0094 20.9518C39.4916 20.8203 39.8751 20.6669 40.1599 20.4916C40.4668 20.2944 40.7407 20.13 40.9818 19.9985C41.3762 19.8013 41.7488 19.7026 42.0994 19.7026C42.5816 19.7026 42.976 19.867 43.2828 20.1957C43.6115 20.5245 43.7759 20.908 43.7759 21.3463C43.7759 21.938 43.4691 22.4749 42.8555 22.957C42.2856 23.4391 41.4858 23.8664 40.4558 24.239C39.4258 24.5896 38.363 24.765 37.2673 24.765ZM57.6427 24.765C55.78 24.765 54.1583 24.3814 52.7777 23.6144C51.4189 22.8255 50.367 21.7627 49.6219 20.4259C48.8987 19.0891 48.5372 17.5769 48.5372 15.8895C48.5372 13.9172 48.9317 12.2408 49.7206 10.8601C50.5314 9.45758 51.5833 8.38379 52.8763 7.63868C54.1692 6.89357 55.5389 6.52102 56.9853 6.52102C58.1029 6.52102 59.1548 6.75117 60.1409 7.21135C61.149 7.67152 62.0365 8.30707 62.8036 9.11793C63.5706 9.90685 64.1732 10.8273 64.6115 11.8792C65.0717 12.931 65.3019 14.0487 65.3019 15.2321C65.2799 15.758 65.0717 16.1854 64.6773 16.5141C64.2828 16.8428 63.8226 17.0072 63.2967 17.0072H50.7396L49.7534 13.72H61.8174L61.0943 14.3774V13.4899C61.0504 12.8544 60.8203 12.2846 60.4039 11.7805C60.0094 11.2765 59.5055 10.882 58.8918 10.5972C58.3001 10.2904 57.6646 10.1369 56.9853 10.1369C56.3278 10.1369 55.7142 10.2246 55.1444 10.3999C54.5746 10.5752 54.0815 10.8711 53.6652 11.2874C53.2488 11.7038 52.9201 12.2626 52.679 12.9639C52.4379 13.6652 52.3174 14.5528 52.3174 15.6265C52.3174 16.81 52.5585 17.818 53.0406 18.6508C53.5446 19.4616 54.1802 20.0862 54.9472 20.5245C55.7361 20.9408 56.5689 21.149 57.4454 21.149C58.2563 21.149 58.9027 21.0833 59.3849 20.9518C59.867 20.8203 60.2505 20.6669 60.5354 20.4916C60.8422 20.2944 61.1161 20.13 61.3572 19.9985C61.7517 19.8013 62.1242 19.7026 62.4749 19.7026C62.957 19.7026 63.3515 19.867 63.6583 20.1957C63.9869 20.5245 64.1514 20.908 64.1514 21.3463C64.1514 21.938 63.8445 22.4749 63.2309 22.957C62.6611 23.4391 61.8612 23.8664 60.8313 24.239C59.8013 24.5896 58.7384 24.765 57.6427 24.765ZM80.9109 24.765C79.2456 24.765 77.6893 24.4582 76.2433 23.8446C74.7967 23.2309 73.5256 22.3872 72.43 21.3134C71.3344 20.2177 70.4685 18.9576 69.833 17.5331C69.2194 16.1087 68.9129 14.5746 68.9129 12.931C68.9129 11.2874 69.2194 9.75342 69.833 8.32901C70.4685 6.90454 71.3344 5.65538 72.43 4.58159C73.5256 3.48587 74.7967 2.6312 76.2433 2.01759C77.6893 1.40397 79.2456 1.09717 80.9109 1.09717C81.9407 1.09717 82.9382 1.20673 83.9022 1.42591C84.8661 1.64503 85.754 1.97378 86.5651 2.41208C86.8935 2.58739 87.1348 2.82845 87.2877 3.13525C87.4632 3.42012 87.551 3.71595 87.551 4.02276C87.551 4.54875 87.3754 5.0199 87.0251 5.43626C86.6741 5.85263 86.225 6.06084 85.6772 6.06084C85.5017 6.06084 85.3159 6.0389 85.1184 5.99509C84.9429 5.95128 84.7681 5.88554 84.5926 5.79785C84.0448 5.55679 83.4641 5.37051 82.8505 5.23901C82.2369 5.10752 81.5903 5.04177 80.9109 5.04177C79.4862 5.04177 78.1822 5.40342 76.9989 6.12659C75.8375 6.82782 74.9064 7.78115 74.2051 8.98643C73.5256 10.1698 73.1863 11.4847 73.1863 12.931C73.1863 14.3555 73.5256 15.6704 74.2051 16.8757C74.9064 18.081 75.8375 19.0452 76.9989 19.7684C78.1822 20.4697 79.4862 20.8203 80.9109 20.8203C81.5684 20.8203 82.2917 20.7546 83.0801 20.6231C83.8693 20.4916 84.5158 20.3162 85.0197 20.0971L84.7242 21.0833V15.4622L85.283 15.9553H81.6342C81.0645 15.9553 80.5818 15.769 80.1876 15.3965C79.8153 15.0239 79.6288 14.5528 79.6288 13.983C79.6288 13.4131 79.8153 12.942 80.1876 12.5694C80.5818 12.1969 81.0645 12.0106 81.6342 12.0106H87.0251C87.5948 12.0106 88.0658 12.2079 88.4388 12.6024C88.8111 12.9749 88.9976 13.4461 88.9976 14.0159V20.9847C88.9976 21.4229 88.8879 21.7845 88.6685 22.0695C88.4717 22.3543 88.2413 22.5844 87.9781 22.7597C86.9702 23.3733 85.8637 23.8664 84.6584 24.239C83.4751 24.5896 82.2259 24.765 80.9109 24.765ZM110.669 15.6594C110.669 17.4564 110.264 19.0452 109.453 20.4259C108.664 21.7845 107.59 22.8474 106.231 23.6144C104.895 24.3814 103.394 24.765 101.728 24.765C100.062 24.765 98.5507 24.3814 97.1919 23.6144C95.8549 22.8474 94.7813 21.7845 93.9702 20.4259C93.1818 19.0452 92.7869 17.4564 92.7869 15.6594C92.7869 13.8624 93.1818 12.2846 93.9702 10.9259C94.7813 9.54527 95.8549 8.47141 97.1919 7.70443C98.5507 6.91551 100.062 6.52102 101.728 6.52102C103.394 6.52102 104.895 6.91551 106.231 7.70443C107.59 8.47141 108.664 9.54527 109.453 10.9259C110.264 12.2846 110.669 13.8624 110.669 15.6594ZM106.725 15.6594C106.725 14.5418 106.495 13.5776 106.035 12.7667C105.596 11.934 104.993 11.2874 104.227 10.8273C103.482 10.367 102.649 10.1369 101.728 10.1369C100.808 10.1369 99.9644 10.367 99.1972 10.8273C98.452 11.2874 97.8493 11.934 97.3893 12.7667C96.9512 13.5776 96.7318 14.5418 96.7318 15.6594C96.7318 16.7552 96.9512 17.7194 97.3893 18.5521C97.8493 19.363 98.452 19.9985 99.1972 20.4587C99.9644 20.919 100.808 21.149 101.728 21.149C102.649 21.149 103.482 20.919 104.227 20.4587C104.993 19.9985 105.596 19.363 106.035 18.5521C106.495 17.7194 106.725 16.7552 106.725 15.6594Z" fill="black"/>
</mask>
<g mask="url(#mask0_1003_1530)">
<path d="M3.46381 4.57687e-06C2.53503 4.57687e-06 1.69972 0.335596 1.02655 0.973341L1.01299 0.986299L0.999732 0.999558C0.34941 1.64984 -0.00012207 2.47322 -0.00012207 3.39794V22.431C-0.00012207 23.3125 0.28159 24.132 0.877688 24.8026L0.890947 24.8176L0.904507 24.8318C1.5385 25.5055 2.36495 25.829 3.26643 25.829C4.17197 25.829 5.0163 25.5173 5.6615 24.8318L5.67506 24.8176L5.68832 24.8026C6.28444 24.132 6.56613 23.3125 6.56613 22.431V13.6996L9.41984 18.2116L9.46534 18.2836L9.51898 18.3493C9.82152 18.7191 10.1831 19.0275 10.5903 19.2781L10.6095 19.2898L10.6291 19.3013C11.065 19.5503 11.5669 19.7077 12.1087 19.7087L12.1084 19.7114C12.1524 19.7146 12.1945 19.7088 12.238 19.7099C12.2639 19.7087 12.2885 19.7128 12.3145 19.7108V19.7093C12.8441 19.7081 13.3417 19.5634 13.7851 19.2992L13.7863 19.3013C13.7925 19.2977 13.7976 19.2928 13.8038 19.2893C13.8107 19.2851 13.8183 19.2823 13.8252 19.2781L13.8237 19.2757C14.2428 19.0309 14.6203 18.727 14.9293 18.3494L14.9757 18.2924L15.0161 18.2313L17.8825 13.8615V22.431C17.8825 23.3367 18.1915 24.1666 18.8214 24.8336L18.8486 24.8625L18.8775 24.89C19.5649 25.5392 20.4271 25.8289 21.3461 25.8289C22.2634 25.8289 23.1334 25.5391 23.8102 24.8622L23.8243 24.8481L23.8379 24.8336C24.4678 24.1666 24.7772 23.3367 24.7772 22.431V3.39794C24.7772 2.43646 24.4193 1.56758 23.6884 0.913669C23.034 0.328111 22.2373 0 21.3461 0C20.1846 0 19.2429 0.560091 18.5963 1.47899L18.587 1.49225L18.578 1.50581L12.3799 10.7655L6.3739 1.52148L6.36965 1.51455L6.36485 1.5079C6.03438 1.01232 5.57596 0.666343 5.07179 0.42879L5.07269 0.427007C5.06571 0.423305 5.0577 0.421659 5.05069 0.417964C5.02518 0.406137 5.0011 0.390959 4.97536 0.379694L4.97234 0.386625C4.50974 0.155124 4.00555 4.57687e-06 3.46381 4.57687e-06ZM3.46381 2.78561C3.49792 2.78561 3.59171 2.79419 3.76153 2.88475L3.80915 2.91037L3.85887 2.93207C3.93971 2.96744 3.98723 2.99886 4.01285 3.01916C4.03712 3.03842 4.04488 3.05019 4.0469 3.05321L5.69947 5.59653L3.92275 5.1843L3.06784 6.92666L2.78579 7.50192V3.39794C2.78579 3.23365 2.83183 3.11699 2.95815 2.9851C3.11206 2.84462 3.2599 2.78561 3.46381 2.78561ZM21.3461 2.78561C21.5067 2.78561 21.6526 2.83031 21.8309 2.98992C21.9328 3.08104 21.9912 3.17608 21.9912 3.39794V6.14558L20.8702 5.88703L19.5883 5.59111L19.2481 5.51246L20.8757 3.08093C21.0611 2.81821 21.193 2.78561 21.3461 2.78561ZM82.6355 4.3101C82.6409 4.43976 82.6087 4.56045 82.5306 4.64911C82.6326 4.63754 82.7328 4.61731 82.8334 4.59909C82.7979 4.54629 82.7594 4.48624 82.7304 4.443C82.6995 4.39823 82.6664 4.35487 82.6355 4.3101ZM76.6894 4.71782C76.5526 4.79019 76.4126 4.85293 76.2789 4.93448C76.2783 4.93486 76.2776 4.93501 76.2769 4.93542C76.2755 4.93631 76.2741 4.93693 76.2721 4.93782C76.1262 5.02605 75.9962 5.13179 75.8565 5.2268C75.9687 5.17295 76.0805 5.11872 76.1974 5.07041C76.3532 5.02262 76.5069 4.96756 76.6647 4.92697C76.6695 4.88992 76.6695 4.85281 76.6747 4.81577C76.6788 4.78308 76.6842 4.75044 76.6894 4.71782ZM36.6096 5.12795C34.9112 5.12795 33.3027 5.56897 31.8053 6.43185C30.2825 7.30948 29.0617 8.5672 28.1392 10.1628L28.1356 10.1691C27.2007 11.8051 26.7687 13.7325 26.7687 15.8895C26.7687 17.7823 27.1763 19.5265 28.0214 21.0885L28.0256 21.0961L28.0299 21.1039C28.9003 22.6655 30.1334 23.9076 31.7026 24.8188L31.7141 24.8255L31.7258 24.8318C33.3477 25.7328 35.2104 26.1577 37.2672 26.1577C38.5145 26.1577 39.7291 25.9576 40.9047 25.5574L40.9171 25.5532L40.9294 25.5486C42.0299 25.1506 42.9795 24.6619 43.7147 24.0504L43.716 24.0522C43.7212 24.048 43.7252 24.0427 43.7304 24.0386C43.7381 24.0322 43.7475 24.0267 43.7551 24.0202L43.753 24.0178C44.5668 23.3652 45.1687 22.4751 45.1687 21.3461C45.1687 20.5309 44.8497 19.8146 44.2985 19.2476L44.3008 19.2452C44.2958 19.2398 44.2897 19.2364 44.2846 19.231C44.2783 19.2246 44.274 19.2171 44.2677 19.2108L44.2647 19.2138C43.8563 18.7901 43.3631 18.5247 42.8243 18.3999H42.921C43.7641 18.3999 44.542 18.1267 45.1934 17.5839C45.8984 16.9964 46.2802 16.1973 46.318 15.2898L46.3193 15.2608V15.2319C46.3193 13.8708 46.0537 12.5707 45.5207 11.344L45.5219 11.3434C45.5198 11.3381 45.5169 11.3333 45.5147 11.328C45.5137 11.3256 45.5131 11.3231 45.512 11.3208C45.0112 10.129 44.3207 9.07141 43.4393 8.16126L43.4399 8.16065C43.4377 8.15839 43.4354 8.15633 43.4332 8.154C43.431 8.15167 43.4289 8.14914 43.4266 8.14677L43.426 8.14737C42.5425 7.21701 41.5162 6.4818 40.3541 5.94968C40.3523 5.94886 40.3508 5.94778 40.349 5.94696C40.3472 5.94613 40.3456 5.94504 40.3438 5.94421C39.1715 5.39941 37.9212 5.12795 36.6096 5.12795ZM56.9852 5.12795C55.2868 5.12795 53.6781 5.56897 52.1806 6.43185C50.6578 7.30948 49.4369 8.5672 48.5145 10.1628L48.5112 10.1691C47.5763 11.8051 47.1443 13.7325 47.1443 15.8895C47.1443 17.7823 47.5517 19.5265 48.3967 21.0885L48.4009 21.0961L48.4052 21.1039C49.2755 22.6655 50.509 23.9076 52.0782 24.8188L52.0897 24.8255L52.1011 24.8318C53.723 25.7328 55.5857 26.1577 57.6425 26.1577C58.8898 26.1577 60.1045 25.9576 61.28 25.5574L61.2927 25.5532L61.305 25.5486C62.4055 25.1506 63.3551 24.6619 64.0903 24.0504L64.0916 24.0522C64.0968 24.048 64.1008 24.0427 64.106 24.0386C64.1137 24.0322 64.1231 24.0267 64.1308 24.0202L64.1286 24.0178C64.9423 23.3653 65.5442 22.4752 65.5442 21.3462C65.5442 20.531 65.2249 19.8147 64.6737 19.2476L64.6764 19.2452C64.671 19.2394 64.6644 19.2359 64.6589 19.2302C64.653 19.2241 64.649 19.2169 64.6429 19.2109L64.6402 19.2136C64.2318 18.7898 63.7383 18.5247 63.1995 18.4H63.2965C64.1396 18.4 64.9176 18.1267 65.5689 17.5839C66.2739 16.9964 66.6555 16.1973 66.6933 15.2898L66.6948 15.2609V15.232C66.6948 13.8708 66.4292 12.5705 65.8962 11.3437L65.8971 11.3434C65.8954 11.3393 65.8931 11.3355 65.8913 11.3314C65.8898 11.328 65.8889 11.3243 65.8874 11.3208L65.8865 11.3211C65.3864 10.1288 64.6963 9.07142 63.8148 8.16127L63.8154 8.16066C63.8132 8.15833 63.8107 8.15635 63.8085 8.15401C63.8062 8.15168 63.8044 8.14908 63.8022 8.14678L63.8016 8.14738C62.9177 7.21697 61.8917 6.48181 60.7297 5.94969C60.7275 5.94867 60.7255 5.94738 60.7233 5.94635C60.7219 5.94569 60.7205 5.94491 60.7191 5.94422C59.5464 5.39948 58.2966 5.12795 56.9852 5.12795ZM6.56613 6.93058L10.6942 13.2838L10.3929 13.734L10.1313 14.1248L6.56613 8.48791V6.93058ZM17.8824 7.55285V8.78232L14.4709 13.9835L14.3618 13.8156L14.031 13.3067L17.8824 7.55285ZM21.9912 7.59744V22.431C21.9912 22.6539 21.9304 22.7845 21.8252 22.902C21.7555 22.9681 21.6411 23.0433 21.3461 23.0433C21.0633 23.0433 20.9242 22.9709 20.8235 22.8854C20.7268 22.7716 20.668 22.6443 20.668 22.431V9.61463L21.7218 8.00817L21.9912 7.59744ZM2.78579 7.7222L3.14137 8.28451L3.78022 9.29461V22.431C3.78022 22.6777 3.71459 22.8182 3.61719 22.9337C3.56179 22.9891 3.48467 23.0433 3.26643 23.0433C3.08524 23.0433 3.01294 22.998 2.94911 22.9343C2.85147 22.8187 2.78579 22.678 2.78579 22.431V7.7222ZM36.6096 7.91385C37.5294 7.91385 38.3798 8.10172 39.1765 8.47345L39.1816 8.47585L39.187 8.47825C40.0308 8.86349 40.7713 9.39352 41.4161 10.0751L41.4227 10.082L41.4294 10.0886C42.0481 10.7251 42.5395 11.4695 42.909 12.327H41.8874C41.7206 11.8226 41.4703 11.35 41.1235 10.9234L41.1252 10.9219C41.1207 10.916 41.1153 10.9111 41.1108 10.9053C41.1075 10.9014 41.1052 10.8971 41.102 10.8932L41.1008 10.8941C40.5791 10.2369 39.9229 9.72762 39.1566 9.36241L39.1575 9.36062C39.1491 9.35631 39.1403 9.35347 39.1319 9.34917C39.1219 9.34444 39.113 9.33845 39.1029 9.3338L39.1021 9.33593C38.3237 8.943 37.4872 8.74409 36.6097 8.74409C35.8275 8.74409 35.0746 8.84849 34.3592 9.06864C33.5751 9.3099 32.8837 9.72352 32.3047 10.3026C31.7494 10.8579 31.3483 11.5524 31.0589 12.3271H30.1862C30.2972 12.0571 30.4156 11.7946 30.5536 11.5529C31.2523 10.3457 32.1344 9.45716 33.196 8.84534C34.2845 8.2181 35.4154 7.91385 36.6096 7.91385ZM56.9852 7.91385C57.9049 7.91385 58.7551 8.10172 59.5517 8.47345L59.5572 8.47585L59.5623 8.47825C60.4061 8.86349 61.1469 9.39352 61.7916 10.0751L61.7983 10.082L61.8049 10.0886C62.4237 10.7251 62.9151 11.4695 63.2845 12.327H62.2626C62.0959 11.8226 61.8459 11.35 61.499 10.9234L61.5008 10.9219C61.4963 10.916 61.4909 10.9111 61.4863 10.9053C61.4831 10.9014 61.4808 10.8971 61.4776 10.8932L61.4764 10.8941C60.9548 10.237 60.2983 9.7276 59.5321 9.3624L59.533 9.36061C59.524 9.35595 59.5146 9.35287 59.5056 9.34826C59.4961 9.3438 59.4876 9.33819 59.4781 9.33379L59.4772 9.33592C58.6989 8.94306 57.8625 8.74408 56.9851 8.74408C56.203 8.74408 55.4501 8.84848 54.7347 9.06863C53.9506 9.30989 53.2592 9.72351 52.6802 10.3026C52.1248 10.8579 51.7238 11.5524 51.4344 12.327H50.5617C50.6724 12.0577 50.7903 11.7959 50.9279 11.5547C51.6269 10.3465 52.5092 9.45748 53.5715 8.84533C54.66 8.21809 55.791 7.91385 56.9852 7.91385ZM36.6096 11.5297C37.0703 11.5297 37.4854 11.6314 37.875 11.8334L37.9021 11.8476L37.9298 11.8602C38.203 11.9871 38.4222 12.1492 38.6196 12.327H34.233C34.247 12.312 34.2605 12.2863 34.2746 12.2722C34.5282 12.0185 34.8232 11.8406 35.1786 11.7313C35.6027 11.6007 36.0769 11.5297 36.6096 11.5297ZM56.9852 11.5297C57.4459 11.5297 57.8608 11.6314 58.2505 11.8334L58.2777 11.8476L58.3051 11.8602C58.5783 11.9871 58.7978 12.1492 58.9952 12.327H54.6085C54.6226 12.312 54.636 12.2863 54.6501 12.2722C54.9038 12.0185 55.1984 11.8406 55.5538 11.7313C55.978 11.6007 56.4524 11.5297 56.9852 11.5297ZM43.3956 13.8262C43.4835 14.2661 43.5286 14.7204 43.5312 15.1901C43.5227 15.3193 43.4898 15.3774 43.41 15.4438C43.2724 15.5585 43.1297 15.6141 42.921 15.6141H41.429L41.6556 15.4079L42.3788 14.7504L43.3956 13.8262ZM63.7708 13.8265C63.8587 14.2663 63.9041 14.7205 63.9067 15.1901C63.8983 15.3193 63.8654 15.3774 63.7856 15.4438C63.648 15.5585 63.5052 15.6141 63.2965 15.6141H61.8046L62.0312 15.4079L62.7544 14.7504L63.7708 13.8265ZM33.3657 15.1129H39.3259V15.6141H33.3353C33.3355 15.4227 33.3573 15.2847 33.3657 15.1129ZM53.7413 15.1129H59.7012V15.6141H53.7108C53.711 15.4227 53.7329 15.2847 53.7413 15.1129ZM11.2481 15.8907L11.4946 15.9006L13.1381 15.9663L13.1694 15.9676L12.7542 16.6007C12.6784 16.6895 12.5735 16.7857 12.404 16.8824L12.3844 16.8936L12.3652 16.9056C12.3297 16.9275 12.3117 16.932 12.31 16.9324C12.3108 16.9324 12.3104 16.933 12.307 16.9328L12.2039 16.9252L12.1201 16.9319C12.1109 16.9294 12.0749 16.9133 12.0364 16.8939C11.894 16.8041 11.7873 16.7076 11.7016 16.6079L11.2481 15.8907ZM85.3463 18.0139C85.3464 18.0159 85.3462 18.0176 85.3463 18.0194C85.3467 18.0216 85.3468 18.0212 85.3469 18.0233C85.347 18.0218 85.3469 18.0205 85.3469 18.019C85.3467 18.0173 85.3464 18.0157 85.3463 18.0139ZM29.9214 18.4H30.364H31.0201C31.1426 18.7276 31.2847 19.0463 31.4597 19.3486L31.4706 19.3676L31.482 19.386C32.0979 20.3769 32.8969 21.1716 33.8807 21.7337L33.9009 21.7452L33.9214 21.7563C34.907 22.2765 35.9625 22.5419 37.0698 22.5419C37.9378 22.5419 38.7238 22.4733 39.376 22.2954C39.9295 22.1444 40.451 21.9477 40.8899 21.6777L40.9017 21.6704L40.9131 21.6632C41.1894 21.4855 41.4218 21.3476 41.621 21.238C41.8593 21.1217 42.0155 21.0955 42.0992 21.0955C42.1798 21.0955 42.2139 21.1085 42.2209 21.1114C42.2258 21.1134 42.2389 21.1189 42.2643 21.1461L42.2809 21.1636L42.2978 21.1804C42.3512 21.2338 42.3673 21.2671 42.3722 21.2784C42.3763 21.288 42.3827 21.3059 42.3827 21.3462C42.3827 21.3822 42.3882 21.5525 41.9949 21.8615L41.975 21.8771L41.9557 21.8934C41.5588 22.2293 40.9271 22.5847 39.9955 22.9231C39.1145 23.2217 38.2074 23.3718 37.2672 23.3718C35.6038 23.3718 34.2272 23.0312 33.09 22.4021C31.9504 21.7378 31.0853 20.8592 30.468 19.7548C30.2394 19.3309 30.0653 18.8746 29.9214 18.4ZM34.1965 18.4H41.3504C41.0067 18.4764 40.6739 18.595 40.3586 18.7525L40.3366 18.7637L40.3147 18.7757C40.0438 18.9235 39.747 19.1027 39.4302 19.3058C39.2993 19.3864 39.0534 19.496 38.6428 19.608C38.3307 19.6931 37.8234 19.756 37.0698 19.756C36.4317 19.756 35.8288 19.6074 35.2434 19.3025C34.8547 19.0772 34.506 18.7793 34.1965 18.4ZM50.2969 18.4H50.7396H51.3956C51.5181 18.7276 51.6599 19.0463 51.835 19.3486L51.8461 19.3676L51.8576 19.386C52.4736 20.3769 53.2721 21.1716 54.2559 21.7337L54.2761 21.7452L54.2969 21.7563C55.2826 22.2765 56.3381 22.5419 57.4454 22.5419C58.3134 22.5419 59.0991 22.4733 59.7512 22.2954C60.3048 22.1444 60.8263 21.9477 61.2652 21.6777L61.2769 21.6704L61.2887 21.6632C61.565 21.4855 61.7973 21.3476 61.9965 21.238C62.2348 21.1217 62.3911 21.0955 62.4748 21.0955C62.5554 21.0955 62.5894 21.1085 62.5965 21.1114C62.6014 21.1134 62.6145 21.1189 62.6399 21.1461L62.6562 21.1636L62.6733 21.1804C62.7267 21.2338 62.743 21.2671 62.7478 21.2784C62.752 21.288 62.7583 21.3059 62.7583 21.3462C62.7583 21.3822 62.7634 21.5525 62.3702 21.8615L62.3503 21.8771L62.331 21.8934C61.9341 22.2293 61.3027 22.5847 60.3711 22.9231C59.4901 23.2217 58.5826 23.3718 57.6424 23.3718C55.9792 23.3718 54.6028 23.0312 53.4655 22.4021C52.3261 21.7378 51.4606 20.8592 50.8432 19.7548C50.6147 19.331 50.4409 18.8746 50.2969 18.4ZM54.5721 18.4H61.7256C61.382 18.4764 61.0494 18.595 60.7342 18.7525L60.7119 18.7637L60.6902 18.7757C60.4192 18.9235 60.1226 19.103 59.8058 19.3061L59.8052 19.3052C59.6743 19.3858 59.429 19.496 59.0184 19.6081C58.7063 19.6931 58.199 19.756 57.4454 19.756C56.8074 19.756 56.2044 19.6074 55.6189 19.3025C55.2302 19.0772 54.8816 18.7793 54.5721 18.4Z" fill="white"/>
</g>
<path d="M68.5289 12.3739C68.9612 21.9797 76.9694 25.1166 79.1625 34.0811C84.879 21.0063 89.4579 21.4136 89.4579 14.921C89.4923 10.9219 87.1975 11.3074 84.336 11.3074C80.8336 11.3074 78.935 11.4146 78.935 14.0971C78.935 15.9145 80.5735 16.5842 81.5049 16.5723C83.2831 16.5497 82.0489 16.5729 83.9219 16.5729L83.9399 19.6024C83.0925 19.8368 81.939 19.9589 80.6285 19.9589C78.9371 19.9589 73.979 18.6866 73.979 13.4422C73.979 8.67404 77.6469 5.91031 80.9483 5.95458C82.3249 5.97305 83.979 6.58572 84.602 6.75635C85.8203 7.09002 87.0051 6.78138 87.583 5.78051C87.8086 5.38973 88.6046 3.83652 87.5427 2.77465C86.2281 1.46006 83.206 0.402687 79.4107 0.851834C73.7189 1.52542 68.5289 6.15345 68.5289 12.3739Z" stroke="url(#paint0_linear_1003_1530)" stroke-width="1.38858" stroke-linecap="round" stroke-linejoin="round"/>
<path d="M101.64 20.4767C104.039 20.4767 105.984 18.3126 105.984 15.643C105.984 12.9734 104.039 10.8093 101.64 10.8093C99.2412 10.8093 97.2965 12.9734 97.2965 15.643C97.2965 18.3126 99.2412 20.4767 101.64 20.4767Z" stroke="url(#paint1_linear_1003_1530)" stroke-width="1.40062" stroke-linecap="round" stroke-linejoin="round"/>
<path d="M101.664 25.4896C107.007 25.4896 111.338 21.0753 111.338 15.6301C111.338 10.1848 107.007 5.77051 101.664 5.77051C96.3216 5.77051 91.9906 10.1848 91.9906 15.6301C91.9906 21.0753 96.3216 25.4896 101.664 25.4896Z" stroke="url(#paint2_linear_1003_1530)" stroke-width="1.32423" stroke-linecap="round" stroke-linejoin="round"/>
</g>
<defs>
<linearGradient id="paint0_linear_1003_1530" x1="67.8344" y1="17.4118" x2="112" y2="17.4118" gradientUnits="userSpaceOnUse">
<stop stop-color="#00E45F"/>
<stop offset="1" stop-color="#3FCFFF"/>
</linearGradient>
<linearGradient id="paint1_linear_1003_1530" x1="67.8343" y1="17.4117" x2="112" y2="17.4117" gradientUnits="userSpaceOnUse">
<stop stop-color="#00E45F"/>
<stop offset="1" stop-color="#3FCFFF"/>
</linearGradient>
<linearGradient id="paint2_linear_1003_1530" x1="67.8344" y1="17.4116" x2="112" y2="17.4116" gradientUnits="userSpaceOnUse">
<stop stop-color="#00E45F"/>
<stop offset="1" stop-color="#3FCFFF"/>
</linearGradient>
<clipPath id="clip0_1003_1530">
<rect width="112" height="34.7751" fill="white"/>
</clipPath>
</defs>
</svg>
