<svg width="422" height="131" viewBox="0 0 422 131" fill="none" xmlns="http://www.w3.org/2000/svg">
<g clip-path="url(#clip0_406_1092)">
<mask id="mask0_406_1092" style="mask-type:luminance" maskUnits="userSpaceOnUse" x="-2" y="-4" width="427" height="104">
<path d="M424.688 -3.50684H-1.45703V99.8012H424.688V-3.50684Z" fill="white"/>
<path d="M13.0489 5.24749C14.2046 5.24749 15.4017 5.57782 16.64 6.23821C17.9609 6.81596 18.9515 7.60033 19.6119 8.59105L49.7026 54.9035L43.5111 54.6561L74.345 8.59105C75.9137 6.36193 77.9362 5.24749 80.4128 5.24749C82.3939 5.24749 84.169 5.94921 85.7375 7.35265C87.306 8.75609 88.0904 10.5722 88.0904 12.8011V84.4992C88.0904 86.6454 87.3886 88.4618 85.9852 89.9477C84.5818 91.3511 82.7243 92.0528 80.4128 92.0528C78.1012 92.0528 76.2024 91.3511 74.7166 89.9477C73.3132 88.4618 72.6115 86.6454 72.6115 84.4992V26.1748L77.4408 27.2893L52.1795 65.8007C51.4364 66.7088 50.487 67.4931 49.3313 68.1535C48.2581 68.8139 47.1437 69.1029 45.988 69.0203C44.9146 69.1029 43.8001 68.8139 42.6444 68.1535C41.5713 67.4931 40.6632 66.7088 39.9202 65.8007L16.2685 28.404L19.4881 21.8408V84.4992C19.4881 86.6454 18.8277 88.4618 17.5068 89.9477C16.1859 91.3511 14.4523 92.0528 12.3059 92.0528C10.2421 92.0528 8.54972 91.3511 7.22885 89.9477C5.90801 88.4618 5.24756 86.6454 5.24756 84.4992V12.8011C5.24756 10.7373 5.99055 8.96245 7.47653 7.47662C9.04503 5.99053 10.9025 5.24749 13.0489 5.24749ZM140.388 93.2912C133.371 93.2912 127.262 91.8465 122.061 88.9569C116.943 85.985 112.981 81.9813 110.174 76.9456C107.45 71.9098 106.087 66.2134 106.087 59.8569C106.087 52.427 107.573 46.1117 110.545 40.9107C113.6 35.6273 117.562 31.5823 122.433 28.7754C127.303 25.9685 132.463 24.5651 137.912 24.5651C142.122 24.5651 146.085 25.4321 149.8 27.1656C153.597 28.8991 156.94 31.2932 159.83 34.3478C162.719 37.3197 164.989 40.787 166.641 44.7496C168.374 48.712 169.241 52.9223 169.241 57.3803C169.158 59.3615 168.374 60.9713 166.888 62.2097C165.402 63.4479 163.668 64.0672 161.687 64.0672H114.384L110.669 51.6839H156.115L153.391 54.1607V50.8172C153.226 48.4233 152.359 46.2768 150.79 44.378C149.304 42.4792 147.405 40.9933 145.094 39.9202C142.865 38.7645 140.471 38.1865 137.912 38.1865C135.435 38.1865 133.124 38.5168 130.977 39.1772C128.831 39.8376 126.973 40.952 125.405 42.5205C123.836 44.089 122.598 46.1941 121.69 48.836C120.782 51.4776 120.328 54.8211 120.328 58.8661C120.328 63.3241 121.236 67.1215 123.052 70.2587C124.951 73.313 127.345 75.6658 130.234 77.317C133.206 78.8854 136.343 79.6698 139.645 79.6698C142.7 79.6698 145.135 79.4221 146.951 78.9268C148.768 78.4314 150.212 77.8536 151.285 77.1932C152.441 76.4502 153.473 75.8309 154.381 75.3358C155.867 74.5927 157.271 74.2211 158.592 74.2211C160.408 74.2211 161.894 74.8404 163.049 76.0786C164.288 77.317 164.907 78.7617 164.907 80.4128C164.907 82.6417 163.751 84.6642 161.44 86.4804C159.293 88.2965 156.28 89.9063 152.4 91.3098C148.52 92.6306 144.516 93.2912 140.388 93.2912ZM217.144 93.2912C210.127 93.2912 204.018 91.8465 198.817 88.9569C193.699 85.985 189.736 81.9813 186.929 76.9456C184.205 71.9098 182.843 66.2134 182.843 59.8569C182.843 52.427 184.329 46.1117 187.301 40.9107C190.355 35.6273 194.318 31.5823 199.189 28.7754C204.059 25.9685 209.219 24.5651 214.667 24.5651C218.878 24.5651 222.84 25.4321 226.555 27.1656C230.353 28.8991 233.696 31.2932 236.586 34.3478C239.475 37.3197 241.745 40.787 243.396 44.7496C245.13 48.712 245.997 52.9223 245.997 57.3803C245.914 59.3615 245.13 60.9713 243.644 62.2097C242.158 63.4479 240.424 64.0672 238.443 64.0672H191.14L187.425 51.6839H232.871L230.146 54.1607V50.8172C229.981 48.4233 229.114 46.2768 227.546 44.378C226.06 42.4792 224.161 40.9933 221.85 39.9202C219.621 38.7645 217.227 38.1865 214.667 38.1865C212.191 38.1865 209.879 38.5168 207.733 39.1772C205.586 39.8376 203.729 40.952 202.16 42.5205C200.592 44.089 199.354 46.1941 198.446 48.836C197.537 51.4776 197.083 54.8211 197.083 58.8661C197.083 63.3241 197.991 67.1215 199.808 70.2587C201.706 73.313 204.101 75.6658 206.99 77.317C209.962 78.8854 213.099 79.6698 216.401 79.6698C219.456 79.6698 221.891 79.4221 223.707 78.9268C225.523 78.4314 226.968 77.8536 228.041 77.1932C229.197 76.4502 230.229 75.8309 231.137 75.3358C232.623 74.5927 234.026 74.2211 235.347 74.2211C237.163 74.2211 238.649 74.8404 239.805 76.0786C241.043 77.317 241.663 78.7617 241.663 80.4128C241.663 82.6417 240.507 84.6642 238.195 86.4804C236.049 88.2965 233.036 89.9063 229.156 91.3098C225.276 92.6306 221.272 93.2912 217.144 93.2912ZM304.797 93.2912C298.524 93.2912 292.661 92.1355 287.214 89.824C281.764 87.5124 276.976 84.3342 272.849 80.2889C268.722 76.1612 265.46 71.4145 263.066 66.0484C260.754 60.6823 259.6 54.9035 259.6 48.712C259.6 42.5205 260.754 36.7417 263.066 31.3759C265.46 26.0098 268.722 21.3041 272.849 17.2591C276.976 13.1314 281.764 9.91185 287.214 7.60033C292.661 5.28881 298.524 4.13306 304.797 4.13306C308.676 4.13306 312.434 4.54577 316.065 5.37146C319.697 6.19689 323.041 7.43529 326.096 9.08641C327.334 9.74681 328.243 10.6549 328.819 11.8106C329.48 12.8838 329.81 13.9982 329.81 15.154C329.81 17.1354 329.149 18.9102 327.829 20.4787C326.507 22.0472 324.815 22.8315 322.752 22.8315C322.091 22.8315 321.391 22.7489 320.647 22.5839C319.986 22.4188 319.327 22.1712 318.666 21.8408C316.603 20.9327 314.415 20.231 312.103 19.7357C309.792 19.2403 307.356 18.9926 304.797 18.9926C299.43 18.9926 294.518 20.355 290.06 23.0792C285.685 25.7208 282.178 29.3121 279.536 33.8524C276.976 38.3104 275.698 43.2635 275.698 48.712C275.698 54.0781 276.976 59.0312 279.536 63.5718C282.178 68.1122 285.685 71.7445 290.06 74.4688C294.518 77.1106 299.43 78.4314 304.797 78.4314C307.274 78.4314 309.999 78.1837 312.969 77.6884C315.941 77.1933 318.377 76.5326 320.275 75.7072L319.162 79.4221V58.2471L321.267 60.1046H307.522C305.376 60.1046 303.557 59.4028 302.072 57.9994C300.67 56.596 299.967 54.8211 299.967 52.6746C299.967 50.5282 300.67 48.7533 302.072 47.3499C303.557 45.9465 305.376 45.2447 307.522 45.2447H327.829C329.976 45.2447 331.75 45.9878 333.155 47.4739C334.557 48.8773 335.26 50.6521 335.26 52.7986V79.0507C335.26 80.7016 334.847 82.0637 334.02 83.1371C333.279 84.2102 332.411 85.0769 331.419 85.7373C327.623 88.0489 323.454 89.9063 318.914 91.3098C314.456 92.6306 309.751 93.2912 304.797 93.2912ZM416.899 58.9901C416.899 65.7594 415.373 71.7445 412.317 76.9456C409.345 82.0637 405.3 86.0677 400.181 88.9569C395.148 91.8465 389.491 93.2912 383.218 93.2912C376.942 93.2912 371.247 91.8465 366.128 88.9569C361.092 86.0677 357.048 82.0637 353.992 76.9456C351.022 71.7445 349.535 65.7594 349.535 58.9901C349.535 52.2206 351.022 46.2768 353.992 41.1584C357.048 35.9576 361.092 31.9123 366.128 29.0231C371.247 26.0511 376.942 24.5651 383.218 24.5651C389.491 24.5651 395.148 26.0511 400.181 29.0231C405.3 31.9123 409.345 35.9576 412.317 41.1584C415.373 46.2768 416.899 52.2206 416.899 58.9901ZM402.041 58.9901C402.041 54.7798 401.173 51.1475 399.44 48.0929C397.787 44.956 395.517 42.5205 392.629 40.787C389.822 39.0532 386.684 38.1865 383.218 38.1865C379.75 38.1865 376.573 39.0532 373.683 40.787C370.875 42.5205 368.605 44.956 366.872 48.0929C365.222 51.1475 364.395 54.7798 364.395 58.9901C364.395 63.1178 365.222 66.7501 366.872 69.887C368.605 72.9416 370.875 75.3358 373.683 77.0693C376.573 78.803 379.75 79.6698 383.218 79.6698C386.684 79.6698 389.822 78.803 392.629 77.0693C395.517 75.3358 397.787 72.9416 399.44 69.887C401.173 66.7501 402.041 63.1178 402.041 58.9901Z" fill="black"/>
</mask>
<g mask="url(#mask0_406_1092)">
<path d="M13.0496 0.000261382C9.55081 0.000261382 6.40416 1.26446 3.86828 3.66688L3.81719 3.7157L3.76725 3.76564C1.31744 6.21529 0.000732422 9.31701 0.000732422 12.8005V84.4994C0.000732422 87.8199 1.06196 90.9071 3.3075 93.4332L3.35745 93.49L3.40853 93.5433C5.79684 96.081 8.91011 97.2996 12.306 97.2996C15.7173 97.2996 18.8979 96.1257 21.3284 93.5433L21.3795 93.49L21.4295 93.4332C23.6751 90.9071 24.7362 87.8199 24.7362 84.4994V51.6076L35.4863 68.6046L35.6578 68.8759L35.8598 69.1234C36.9995 70.5163 38.3615 71.6781 39.8954 72.622L39.968 72.6663L40.0418 72.7094C41.6836 73.6477 43.5743 74.2403 45.6155 74.2442L45.6144 74.2545C45.7799 74.2664 45.9385 74.2447 46.1025 74.2488C46.2 74.2442 46.2927 74.2597 46.3909 74.2522V74.2465C48.3856 74.2419 50.2604 73.6971 51.9305 72.7015L51.9352 72.7095C51.9584 72.6961 51.9778 72.6775 52.001 72.6641C52.0271 72.6484 52.0556 72.6381 52.0816 72.6221L52.0759 72.6131C53.6547 71.6907 55.0769 70.546 56.2409 69.1236L56.4157 68.909L56.5678 68.6786L67.3656 52.2174V84.4994C67.3656 87.9113 68.5299 91.0375 70.9028 93.5501L71.005 93.6591L71.114 93.7624C73.7036 96.2082 76.9515 97.2996 80.4133 97.2996C83.8689 97.2996 87.1463 96.2076 89.6957 93.658L89.749 93.6046L89.8001 93.5501C92.173 91.0374 93.3384 87.9113 93.3384 84.4993V12.8005C93.3384 9.17856 91.9902 5.90543 89.2371 3.4421C86.7717 1.23626 83.7707 0.000244141 80.4133 0.000244141C76.038 0.000244141 72.4905 2.11014 70.0548 5.57169L70.0196 5.62164L69.9856 5.67272L46.6373 40.5544L24.0121 5.73175L23.9961 5.70564L23.978 5.68059C22.7331 3.81372 21.0062 2.5104 19.1069 1.61552L19.1104 1.60881C19.0841 1.59486 19.0539 1.58866 19.0275 1.57474C18.9314 1.53019 18.8407 1.47301 18.7437 1.43058L18.7323 1.45669C16.9897 0.584608 15.0904 0.000261382 13.0496 0.000261382ZM13.0496 10.4938C13.1781 10.4938 13.5314 10.5261 14.1711 10.8673L14.3505 10.9638L14.5378 11.0455C14.8423 11.1788 15.0214 11.2971 15.1179 11.3736C15.2093 11.4462 15.2385 11.4905 15.2461 11.5019L21.4715 21.0828L14.7785 19.5298L11.558 26.0934L10.4954 28.2605V12.8005C10.4954 12.1816 10.6689 11.7421 11.1448 11.2453C11.7245 10.7161 12.2815 10.4938 13.0496 10.4938ZM80.4132 10.4938C81.0183 10.4938 81.5679 10.6622 82.2397 11.2635C82.6234 11.6067 82.8436 11.9647 82.8436 12.8005V23.151L78.6208 22.1771L73.7917 21.0623L72.5101 20.766L78.6412 11.6063C79.3397 10.6166 79.8366 10.4938 80.4132 10.4938ZM311.294 16.2367C311.315 16.7251 311.193 17.1798 310.899 17.5138C311.284 17.4702 311.661 17.394 312.04 17.3253C311.906 17.1264 311.761 16.9002 311.652 16.7373C311.535 16.5687 311.411 16.4053 311.294 16.2367ZM288.895 17.7726C288.38 18.0452 287.853 18.2816 287.349 18.5888C287.347 18.5902 287.344 18.5907 287.341 18.5923C287.336 18.5956 287.331 18.598 287.323 18.6013C286.774 18.9337 286.284 19.332 285.758 19.69C286.18 19.4871 286.602 19.2828 287.042 19.1008C287.629 18.9208 288.208 18.7134 288.802 18.5605C288.82 18.4209 288.82 18.2811 288.84 18.1416C288.855 18.0184 288.876 17.8955 288.895 17.7726ZM137.912 19.3176C131.514 19.3176 125.455 20.9789 119.814 24.2295C114.077 27.5355 109.478 32.2734 106.003 38.2841L105.99 38.3078C102.468 44.4708 100.841 51.7313 100.841 59.8569C100.841 66.9873 102.376 73.558 105.56 79.4421L105.576 79.4705L105.592 79.5C108.871 85.3825 113.516 90.0618 119.427 93.4944L119.47 93.5195L119.515 93.5432C125.624 96.9373 132.641 98.538 140.389 98.538C145.088 98.538 149.663 97.7842 154.092 96.2767L154.139 96.2607L154.185 96.2437C158.331 94.7442 161.908 92.9033 164.677 90.5996L164.682 90.6063C164.702 90.5908 164.717 90.5708 164.737 90.5552C164.766 90.5309 164.801 90.5104 164.83 90.486L164.822 90.4769C167.887 88.0185 170.155 84.6654 170.155 80.4125C170.155 77.3416 168.953 74.6433 166.876 72.5071L166.885 72.4981C166.866 72.4777 166.843 72.465 166.824 72.4447C166.801 72.4207 166.784 72.3924 166.761 72.3686L166.749 72.38C165.211 70.7839 163.353 69.7841 161.323 69.3139H161.687C164.864 69.3139 167.794 68.2846 170.248 66.2398C172.904 64.0268 174.342 61.0164 174.484 57.5977L174.489 57.4888V57.3798C174.489 52.2526 173.488 47.355 171.481 42.7338L171.485 42.7315C171.477 42.7116 171.466 42.6935 171.458 42.6736C171.454 42.6646 171.452 42.6553 171.448 42.6464C169.561 38.1567 166.96 34.1728 163.64 30.7442L163.642 30.742C163.634 30.7334 163.625 30.7257 163.617 30.7169C163.608 30.7081 163.601 30.6986 163.592 30.6897L163.59 30.6919C160.262 27.1872 156.395 24.4176 152.018 22.4131C152.011 22.41 152.005 22.4059 151.998 22.4028C151.992 22.3997 151.986 22.3956 151.979 22.3925C147.563 20.3402 142.853 19.3176 137.912 19.3176ZM214.668 19.3176C208.27 19.3176 202.21 20.9789 196.569 24.2295C190.832 27.5355 186.233 32.2734 182.758 38.2841L182.746 38.3078C179.224 44.4708 177.597 51.7313 177.597 59.8569C177.597 66.9873 179.132 73.558 182.315 79.4421L182.331 79.4705L182.347 79.5C185.625 85.3825 190.272 90.0618 196.183 93.4944L196.226 93.5195L196.27 93.5432C202.379 96.9373 209.396 98.538 217.144 98.538C221.843 98.538 226.419 97.7842 230.847 96.2767L230.895 96.2607L230.941 96.2437C235.087 94.7442 238.664 92.9033 241.434 90.5996L241.438 90.6063C241.458 90.5908 241.473 90.5708 241.493 90.5552C241.522 90.5309 241.557 90.5104 241.586 90.486L241.578 90.4769C244.643 88.0188 246.911 84.6657 246.911 80.4127C246.911 77.3418 245.708 74.6435 243.631 72.5074L243.641 72.4983C243.621 72.4764 243.596 72.4632 243.576 72.4416C243.553 72.4188 243.538 72.3915 243.515 72.3689L243.505 72.3792C241.967 70.7827 240.108 69.7842 238.078 69.3141H238.443C241.619 69.3141 244.55 68.2848 247.004 66.2401C249.659 64.027 251.097 61.0166 251.239 57.598L251.245 57.489V57.38C251.245 52.2524 250.244 47.3543 248.237 42.7329L248.24 42.7317C248.233 42.7162 248.225 42.7019 248.218 42.6863C248.212 42.6734 248.209 42.6596 248.203 42.6466L248.2 42.6477C246.316 38.1561 243.716 34.1729 240.396 30.7443L240.398 30.742C240.39 30.7332 240.38 30.7257 240.372 30.717C240.363 30.7082 240.356 30.6984 240.348 30.6897L240.346 30.692C237.016 27.1871 233.151 24.4176 228.774 22.4131C228.766 22.4093 228.758 22.4044 228.75 22.4005C228.745 22.3981 228.739 22.3951 228.734 22.3925C224.317 20.3404 219.608 19.3176 214.668 19.3176ZM24.7362 26.1082L40.287 50.0411L39.1518 51.737L38.1665 53.2094L24.7362 31.9748V26.1082ZM67.3655 28.4523V33.0838L54.5142 52.677L54.1032 52.0447L52.8568 50.1274L67.3655 28.4523ZM82.8436 28.6203V84.4994C82.8436 85.3389 82.6143 85.8308 82.2181 86.2736C81.9556 86.5227 81.5245 86.806 80.4132 86.806C79.3481 86.806 78.8238 86.5332 78.4448 86.2112C78.0803 85.7824 77.8591 85.303 77.8591 84.4994V36.2192L81.8288 30.1676L82.8436 28.6203ZM10.4954 29.0903L11.8349 31.2085L14.2415 35.0136V84.4994C14.2415 85.4286 13.9943 85.9578 13.6274 86.3928C13.4187 86.6019 13.1282 86.806 12.306 86.806C11.6235 86.806 11.3511 86.6354 11.1107 86.3951C10.7429 85.9597 10.4954 85.4299 10.4954 84.4994V29.0903ZM137.912 29.8123C141.377 29.8123 144.581 30.5199 147.582 31.9203L147.601 31.9293L147.621 31.9384C150.8 33.3896 153.59 35.3862 156.018 37.9537L156.043 37.9798L156.068 38.0048C158.399 40.4024 160.25 43.2068 161.642 46.4369H157.794C157.165 44.5369 156.223 42.7565 154.916 41.1493L154.923 41.1436C154.906 41.1216 154.885 41.103 154.868 41.0812C154.856 41.0664 154.847 41.0504 154.835 41.0357L154.831 41.0391C152.865 38.5635 150.393 36.6448 147.507 35.269L147.51 35.2623C147.478 35.2461 147.445 35.2354 147.414 35.2192C147.376 35.2014 147.342 35.1788 147.305 35.1613L147.301 35.1693C144.369 33.6891 141.218 32.9398 137.912 32.9398C134.966 32.9398 132.129 33.3331 129.435 34.1624C126.481 35.0713 123.876 36.6294 121.695 38.8109C119.603 40.9028 118.092 43.5188 117.002 46.4371H113.715C114.133 45.42 114.579 44.4312 115.099 43.5208C117.731 38.9733 121.053 35.626 125.053 33.3212C129.153 30.9584 133.413 29.8123 137.912 29.8123ZM214.668 29.8123C218.133 29.8123 221.335 30.5199 224.337 31.9203L224.357 31.9293L224.376 31.9384C227.555 33.3896 230.346 35.3862 232.774 37.9537L232.799 37.9798L232.824 38.0048C235.155 40.4024 237.006 43.2068 238.398 46.4369H234.549C233.92 44.5369 232.979 42.7564 231.672 41.1493L231.679 41.1436C231.662 41.1216 231.641 41.103 231.624 41.0812C231.612 41.0664 231.603 41.0504 231.591 41.0357L231.587 41.0391C229.622 38.5638 227.149 36.6448 224.263 35.269L224.266 35.2623C224.232 35.2447 224.196 35.2331 224.163 35.2158C224.127 35.199 224.095 35.1778 224.059 35.1613L224.056 35.1693C221.124 33.6893 217.973 32.9398 214.668 32.9398C211.722 32.9398 208.885 33.3331 206.19 34.1624C203.237 35.0712 200.632 36.6293 198.451 38.8109C196.359 40.9028 194.848 43.5188 193.758 46.437H190.471C190.887 45.4223 191.331 44.436 191.85 43.5276C194.483 38.9763 197.807 35.6272 201.809 33.3212C205.909 30.9583 210.17 29.8123 214.668 29.8123ZM137.912 43.4332C139.647 43.4332 141.211 43.8164 142.679 44.5775L142.781 44.6308L142.885 44.6785C143.914 45.1564 144.74 45.767 145.484 46.4369H128.959C129.012 46.3802 129.063 46.2834 129.116 46.2303C130.071 45.2747 131.182 44.6045 132.521 44.1927C134.119 43.7009 135.905 43.4332 137.912 43.4332ZM214.668 43.4332C216.403 43.4332 217.967 43.8164 219.435 44.5775L219.537 44.6308L219.64 44.6785C220.669 45.1564 221.496 45.767 222.24 46.4369H205.715C205.768 46.3802 205.819 46.2834 205.872 46.2303C206.827 45.2747 207.937 44.6045 209.276 44.1927C210.874 43.7009 212.661 43.4332 214.668 43.4332ZM163.475 52.0844C163.806 53.7417 163.976 55.4528 163.986 57.2222C163.954 57.7091 163.83 57.9278 163.53 58.178C163.011 58.6101 162.474 58.8194 161.687 58.8194H156.067L156.921 58.0429L159.645 55.566L163.475 52.0844ZM240.23 52.0855C240.561 53.7424 240.732 55.4532 240.742 57.2222C240.71 57.7091 240.586 57.9278 240.286 58.178C239.767 58.6101 239.229 58.8194 238.443 58.8194H232.823L233.677 58.0429L236.401 55.566L240.23 52.0855ZM125.692 56.9316H148.145V58.8194H125.577C125.578 58.0986 125.661 57.5787 125.692 56.9316ZM202.448 56.9316H224.9V58.8194H202.333C202.334 58.0986 202.417 57.5787 202.448 56.9316ZM42.3734 59.8615L43.302 59.8989L49.4933 60.1464L49.6113 60.1511L48.0471 62.5361C47.7616 62.8708 47.3663 63.233 46.728 63.5975L46.6542 63.6395L46.5815 63.6849C46.448 63.7672 46.3803 63.7841 46.3738 63.7859C46.3769 63.7856 46.3752 63.7878 46.3624 63.787L45.9741 63.7587L45.6585 63.7837C45.6237 63.7744 45.4881 63.7136 45.343 63.6407C44.8067 63.3024 44.4047 62.939 44.0818 62.5634L42.3734 59.8615ZM321.506 67.86C321.507 67.8672 321.506 67.8736 321.506 67.8804C321.508 67.8886 321.508 67.8873 321.509 67.8951C321.509 67.8896 321.509 67.8845 321.509 67.8791C321.508 67.8726 321.507 67.8664 321.506 67.86ZM112.717 69.3141H114.384H116.856C117.317 70.5483 117.853 71.7488 118.512 72.8876L118.553 72.9592L118.596 73.0284C120.916 76.7614 123.926 79.755 127.632 81.8726L127.708 81.9157L127.785 81.9577C131.498 83.9174 135.474 84.9171 139.646 84.9171C142.915 84.9171 145.876 84.6587 148.333 83.9885C150.418 83.4198 152.383 82.6787 154.036 81.6614L154.08 81.6342L154.124 81.6069C155.165 80.9377 156.04 80.418 156.79 80.0052C157.688 79.567 158.276 79.4682 158.592 79.4682C158.895 79.4682 159.024 79.5173 159.05 79.5284C159.069 79.5359 159.118 79.5564 159.214 79.659L159.276 79.7248L159.34 79.7884C159.541 79.9893 159.602 80.1147 159.62 80.1573C159.636 80.1937 159.66 80.2611 159.66 80.4127C159.66 80.5483 159.68 81.1901 158.199 82.3538L158.124 82.4129L158.051 82.4742C156.556 83.7394 154.176 85.0784 150.667 86.3531C147.348 87.4777 143.931 88.0433 140.389 88.0433C134.123 88.0433 128.937 86.7603 124.653 84.3904C120.361 81.8879 117.102 78.5783 114.776 74.4178C113.915 72.8212 113.259 71.102 112.717 69.3141ZM128.822 69.3141H155.771C154.476 69.6019 153.222 70.0487 152.035 70.6423L151.952 70.6843L151.869 70.7297C150.849 71.2864 149.731 71.9616 148.537 72.7264C148.044 73.0299 147.118 73.443 145.571 73.865C144.396 74.1855 142.484 74.4224 139.646 74.4224C137.242 74.4224 134.971 73.8626 132.765 72.714C131.301 71.8654 129.988 70.7431 128.822 69.3141ZM189.473 69.3141H191.141H193.612C194.073 70.5483 194.608 71.7488 195.267 72.8876L195.309 72.9592L195.352 73.0284C197.673 76.7614 200.681 79.755 204.387 81.8726L204.463 81.9157L204.541 81.9577C208.254 83.9174 212.231 84.9171 216.402 84.9171C219.672 84.9171 222.631 84.6587 225.088 83.9885C227.173 83.4198 229.138 82.6787 230.791 81.6614L230.835 81.6342L230.88 81.6069C231.921 80.9377 232.796 80.418 233.546 80.0052C234.444 79.567 235.033 79.4682 235.348 79.4682C235.652 79.4682 235.78 79.5173 235.806 79.5284C235.825 79.5359 235.874 79.5564 235.97 79.659L236.031 79.7248L236.096 79.7884C236.297 79.9893 236.358 80.1147 236.376 80.1573C236.392 80.1937 236.416 80.2611 236.416 80.4127C236.416 80.5483 236.435 81.1901 234.954 82.3538L234.879 82.4129L234.806 82.4742C233.311 83.7394 230.933 85.0784 227.423 86.3531C224.104 87.4777 220.686 88.0433 217.144 88.0433C210.878 88.0433 205.694 86.7603 201.409 84.3904C197.117 81.8879 193.856 78.5783 191.531 74.4178C190.67 72.8212 190.015 71.102 189.473 69.3141ZM205.578 69.3141H232.526C231.231 69.602 229.978 70.0487 228.791 70.6423L228.707 70.6843L228.625 70.7297C227.604 71.2865 226.487 71.9626 225.293 72.7276L225.291 72.7242C224.798 73.0277 223.874 73.4431 222.327 73.8651C221.152 74.1856 219.241 74.4224 216.402 74.4224C213.998 74.4224 211.727 73.8626 209.521 72.714C208.057 71.8654 206.744 70.7431 205.578 69.3141Z" fill="white"/>
</g>
<path d="M258.153 46.6133C259.782 82.7987 289.949 94.6159 298.211 128.385C319.745 79.1319 336.994 80.6664 336.994 56.2082C337.124 41.1434 328.479 42.5956 317.7 42.5956C304.506 42.5956 297.354 42.9993 297.354 53.1047C297.354 59.951 303.526 62.4735 307.035 62.429C313.733 62.3436 309.084 62.4311 316.14 62.4311L316.207 73.8434C313.015 74.7264 308.67 75.1865 303.733 75.1865C297.361 75.1865 278.684 70.3936 278.684 50.6374C278.684 32.6756 292.501 22.2644 304.938 22.4312C310.124 22.5008 316.355 24.8087 318.702 25.4515C323.291 26.7085 327.754 25.5458 329.931 21.7754C330.781 20.3033 333.78 14.4523 329.779 10.4522C324.827 5.50002 313.443 1.51684 299.146 3.2088C277.704 5.74626 258.153 23.1803 258.153 46.6133Z" stroke="url(#paint0_linear_406_1092)" stroke-width="5.23088" stroke-linecap="round" stroke-linejoin="round"/>
<path d="M382.885 77.1367C391.922 77.1367 399.248 68.9844 399.248 58.928C399.248 48.8716 391.922 40.7192 382.885 40.7192C373.849 40.7192 366.523 48.8716 366.523 58.928C366.523 68.9844 373.849 77.1367 382.885 77.1367Z" stroke="url(#paint1_linear_406_1092)" stroke-width="5.27623" stroke-linecap="round" stroke-linejoin="round"/>
<path d="M382.975 96.0215C403.101 96.0215 419.417 79.3926 419.417 58.8799C419.417 38.3671 403.101 21.7383 382.975 21.7383C362.849 21.7383 346.534 38.3671 346.534 58.8799C346.534 79.3926 362.849 96.0215 382.975 96.0215Z" stroke="url(#paint2_linear_406_1092)" stroke-width="4.98848" stroke-linecap="round" stroke-linejoin="round"/>
</g>
<defs>
<linearGradient id="paint0_linear_406_1092" x1="255.537" y1="65.5911" x2="421.911" y2="65.5911" gradientUnits="userSpaceOnUse">
<stop stop-color="#00E45F"/>
<stop offset="1" stop-color="#3FCFFF"/>
</linearGradient>
<linearGradient id="paint1_linear_406_1092" x1="255.537" y1="65.5908" x2="421.911" y2="65.5908" gradientUnits="userSpaceOnUse">
<stop stop-color="#00E45F"/>
<stop offset="1" stop-color="#3FCFFF"/>
</linearGradient>
<linearGradient id="paint2_linear_406_1092" x1="255.536" y1="65.5909" x2="421.911" y2="65.5909" gradientUnits="userSpaceOnUse">
<stop stop-color="#00E45F"/>
<stop offset="1" stop-color="#3FCFFF"/>
</linearGradient>
<clipPath id="clip0_406_1092">
<rect width="421.911" height="131" fill="white" transform="translate(0 0.000244141)"/>
</clipPath>
</defs>
</svg>
