<svg width="165" height="52" viewBox="0 0 165 52" fill="none" xmlns="http://www.w3.org/2000/svg">
<g clip-path="url(#clip0_406_1961)">
<mask id="mask0_406_1961" style="mask-type:luminance" maskUnits="userSpaceOnUse" x="-1" y="-2" width="168" height="42">
<path d="M166.086 -1.3717H-0.569824V39.0297H166.086V-1.3717Z" fill="white"/>
<path d="M5.10317 2.05198C5.55516 2.05198 6.02329 2.18116 6.50756 2.43943C7.02413 2.66537 7.41155 2.97212 7.66982 3.35957L19.4376 21.4713L17.0163 21.3746L29.0747 3.35957C29.6882 2.48781 30.4791 2.05198 31.4477 2.05198C32.2225 2.05198 32.9167 2.32641 33.53 2.87526C34.1434 3.42411 34.4502 4.13437 34.4502 5.00603V33.0455C34.4502 33.8849 34.1758 34.5952 33.6269 35.1763C33.0781 35.7252 32.3516 35.9996 31.4477 35.9996C30.5437 35.9996 29.8011 35.7252 29.22 35.1763C28.6712 34.5952 28.3967 33.8849 28.3967 33.0455V10.2362L30.2854 10.672L20.4062 25.733C20.1157 26.0881 19.7444 26.3948 19.2924 26.6531C18.8727 26.9114 18.4369 27.0244 17.9849 26.9921C17.5651 27.0244 17.1293 26.9114 16.6773 26.6531C16.2576 26.3948 15.9025 26.0881 15.6119 25.733L6.36228 11.108L7.6214 8.54126V33.0455C7.6214 33.8849 7.36311 34.5952 6.84656 35.1763C6.33 35.7252 5.65201 35.9996 4.81261 35.9996C4.00548 35.9996 3.34365 35.7252 2.82708 35.1763C2.31053 34.5952 2.05225 33.8849 2.05225 33.0455V5.00603C2.05225 4.19891 2.34281 3.50481 2.92395 2.92374C3.53735 2.34257 4.26377 2.05198 5.10317 2.05198ZM54.9028 36.4839C52.1585 36.4839 49.7695 35.9189 47.7355 34.7889C45.7338 33.6266 44.1842 32.0608 43.0865 30.0915C42.0211 28.1221 41.4884 25.8944 41.4884 23.4085C41.4884 20.5028 42.0695 18.0331 43.2317 15.9991C44.4263 13.9328 45.976 12.3509 47.8808 11.2532C49.7856 10.1555 51.8034 9.60664 53.9342 9.60664C55.5807 9.60664 57.1304 9.94571 58.5833 10.6236C60.0683 11.3016 61.3759 12.2379 62.5058 13.4325C63.6359 14.5947 64.5237 15.9507 65.1694 17.5004C65.8473 19.05 66.1863 20.6965 66.1863 22.44C66.1541 23.2148 65.8474 23.8443 65.2662 24.3286C64.6851 24.8128 64.0071 25.055 63.2323 25.055H44.7331L43.2802 20.2122H61.053L59.9876 21.1808V19.8733C59.9231 18.937 59.5841 18.0976 58.9706 17.355C58.3895 16.6125 57.647 16.0314 56.743 15.6117C55.8713 15.1597 54.935 14.9337 53.9342 14.9337C52.9657 14.9337 52.0617 15.0629 51.2223 15.3211C50.3829 15.5794 49.6565 16.0152 49.0431 16.6286C48.4297 17.242 47.9454 18.0653 47.5902 19.0985C47.2351 20.1315 47.0576 21.4391 47.0576 23.021C47.0576 24.7644 47.4127 26.2495 48.1229 27.4764C48.8655 28.6709 49.8017 29.591 50.9318 30.2367C52.094 30.8501 53.3208 31.1569 54.6122 31.1569C55.8068 31.1569 56.7592 31.06 57.4694 30.8663C58.1797 30.6726 58.7447 30.4466 59.1643 30.1883C59.6163 29.8978 60.0199 29.6555 60.3751 29.4619C60.9562 29.1713 61.505 29.026 62.0216 29.026C62.7319 29.026 63.313 29.2682 63.765 29.7524C64.2493 30.2367 64.4914 30.8017 64.4914 31.4475C64.4914 32.3191 64.0394 33.1101 63.1354 33.8203C62.296 34.5306 61.1177 35.1601 59.6002 35.709C58.0828 36.2255 56.517 36.4839 54.9028 36.4839ZM84.9202 36.4839C82.176 36.4839 79.7868 35.9189 77.7529 34.7889C75.7513 33.6266 74.2016 32.0608 73.1038 30.0915C72.0385 28.1221 71.5058 25.8944 71.5058 23.4085C71.5058 20.5028 72.0869 18.0331 73.2492 15.9991C74.4437 13.9328 75.9934 12.3509 77.8982 11.2532C79.803 10.1555 81.8209 9.60664 83.9516 9.60664C85.5982 9.60664 87.1478 9.94571 88.6006 10.6236C90.0858 11.3016 91.3933 12.2379 92.5233 13.4325C93.6532 14.5947 94.541 15.9507 95.1868 17.5004C95.8647 19.05 96.2038 20.6965 96.2038 22.44C96.1714 23.2148 95.8647 23.8443 95.2836 24.3286C94.7024 24.8128 94.0245 25.055 93.2497 25.055H74.7504L73.2976 20.2122H91.0705L90.0051 21.1808V19.8733C89.9404 18.937 89.6015 18.0976 88.9881 17.355C88.4069 16.6125 87.6644 16.0314 86.7604 15.6117C85.8887 15.1597 84.9525 14.9337 83.9516 14.9337C82.9831 14.9337 82.0791 15.0629 81.2397 15.3211C80.4002 15.5794 79.6738 16.0152 79.0604 16.6286C78.447 17.242 77.9627 18.0653 77.6076 19.0985C77.2525 20.1315 77.0749 21.4391 77.0749 23.021C77.0749 24.7644 77.43 26.2495 78.1403 27.4764C78.8829 28.6709 79.8192 29.591 80.9491 30.2367C82.1113 30.8501 83.3382 31.1569 84.6296 31.1569C85.8241 31.1569 86.7765 31.06 87.4869 30.8663C88.1971 30.6726 88.762 30.4466 89.1818 30.1883C89.6338 29.8978 90.0373 29.6555 90.3924 29.4619C90.9736 29.1713 91.5225 29.026 92.039 29.026C92.7492 29.026 93.3304 29.2682 93.7824 29.7524C94.2666 30.2367 94.5088 30.8017 94.5088 31.4475C94.5088 32.3191 94.0568 33.1101 93.1528 33.8203C92.3134 34.5306 91.135 35.1601 89.6176 35.709C88.1003 36.2255 86.5344 36.4839 84.9202 36.4839ZM119.199 36.4839C116.746 36.4839 114.453 36.0319 112.323 35.1279C110.192 34.2239 108.319 32.981 106.705 31.399C105.091 29.7847 103.815 27.9284 102.879 25.8298C101.975 23.7313 101.524 21.4713 101.524 19.05C101.524 16.6286 101.975 14.3687 102.879 12.2702C103.815 10.1717 105.091 8.33137 106.705 6.74945C108.319 5.13522 110.192 3.8761 112.323 2.97212C114.453 2.06814 116.746 1.61615 119.199 1.61615C120.716 1.61615 122.186 1.77755 123.606 2.10046C125.026 2.42327 126.334 2.90758 127.529 3.5533C128.013 3.81156 128.368 4.16669 128.594 4.61868C128.852 5.03835 128.981 5.47418 128.981 5.92617C128.981 6.70107 128.723 7.39517 128.207 8.00856C127.69 8.62196 127.028 8.92871 126.221 8.92871C125.962 8.92871 125.689 8.89638 125.398 8.83184C125.139 8.7673 124.882 8.67044 124.623 8.54126C123.816 8.18613 122.961 7.9117 122.057 7.71798C121.153 7.52425 120.2 7.42739 119.199 7.42739C117.1 7.42739 115.179 7.96018 113.436 9.02557C111.725 10.0586 110.353 11.4631 109.32 13.2387C108.319 14.9822 107.819 16.9192 107.819 19.05C107.819 21.1485 108.319 23.0856 109.32 24.8613C110.353 26.637 111.725 28.0575 113.436 29.1229C115.179 30.156 117.1 30.6726 119.199 30.6726C120.168 30.6726 121.233 30.5757 122.395 30.382C123.558 30.1883 124.51 29.93 125.252 29.6072L124.817 31.06V22.7789L125.64 23.5053H120.265C119.425 23.5053 118.714 23.2309 118.134 22.6821C117.585 22.1332 117.31 21.4391 117.31 20.5997C117.31 19.7602 117.585 19.0661 118.134 18.5173C118.714 17.9684 119.425 17.694 120.265 17.694H128.207C129.046 17.694 129.74 17.9846 130.289 18.5658C130.838 19.1146 131.113 19.8087 131.113 20.6482V30.9148C131.113 31.5604 130.951 32.0931 130.628 32.5128C130.338 32.9325 129.999 33.2715 129.611 33.5297C128.126 34.4337 126.496 35.1601 124.72 35.709C122.977 36.2255 121.136 36.4839 119.199 36.4839ZM163.04 23.0695C163.04 25.7168 162.443 28.0575 161.248 30.0915C160.085 32.0931 158.504 33.6589 156.502 34.7889C154.533 35.9189 152.321 36.4839 149.868 36.4839C147.414 36.4839 145.186 35.9189 143.185 34.7889C141.215 33.6589 139.633 32.0931 138.438 30.0915C137.277 28.0575 136.695 25.7168 136.695 23.0695C136.695 20.4221 137.277 18.0976 138.438 16.0959C139.633 14.062 141.215 12.48 143.185 11.3501C145.186 10.1878 147.414 9.60664 149.868 9.60664C152.321 9.60664 154.533 10.1878 156.502 11.3501C158.504 12.48 160.085 14.062 161.248 16.0959C162.443 18.0976 163.04 20.4221 163.04 23.0695ZM157.229 23.0695C157.229 21.4229 156.89 20.0024 156.212 18.8079C155.566 17.5811 154.678 16.6286 153.549 15.9507C152.451 15.2726 151.223 14.9337 149.868 14.9337C148.511 14.9337 147.269 15.2726 146.139 15.9507C145.041 16.6286 144.153 17.5811 143.475 18.8079C142.83 20.0024 142.507 21.4229 142.507 23.0695C142.507 24.6837 142.83 26.1043 143.475 27.331C144.153 28.5256 145.041 29.4619 146.139 30.1399C147.269 30.8179 148.511 31.1569 149.868 31.1569C151.223 31.1569 152.451 30.8179 153.549 30.1399C154.678 29.4619 155.566 28.5256 156.212 27.331C156.89 26.1043 157.229 24.6837 157.229 23.0695Z" fill="black"/>
</mask>
<g mask="url(#mask0_406_1961)">
<path d="M5.10335 -5.42924e-05C3.73506 -5.42924e-05 2.50448 0.494343 1.51275 1.43388L1.49278 1.45297L1.47324 1.4725C0.51518 2.4305 0.000244141 3.64352 0.000244141 5.00583V33.0456C0.000244141 34.3442 0.415267 35.5516 1.29345 36.5395L1.31298 36.5617L1.33296 36.5825C2.26697 37.575 3.4845 38.0515 4.81257 38.0515C6.14662 38.0515 7.39051 37.5924 8.34102 36.5825L8.361 36.5617L8.38053 36.5395C9.25875 35.5515 9.67373 34.3442 9.67373 33.0456V20.1824L13.8779 26.8296L13.9449 26.9357L14.0239 27.0324C14.4696 27.5772 15.0023 28.0315 15.6021 28.4007L15.6305 28.418L15.6594 28.4349C16.3015 28.8018 17.0409 29.0336 17.8392 29.0351L17.8387 29.0391C17.9035 29.0437 17.9655 29.0353 18.0296 29.0369C18.0677 29.0351 18.104 29.0411 18.1424 29.0382V29.036C18.9225 29.0342 19.6557 28.8211 20.3088 28.4318L20.3106 28.4349C20.3197 28.4296 20.3273 28.4224 20.3364 28.4171C20.3466 28.411 20.3577 28.407 20.3679 28.4007L20.3657 28.3972C20.9831 28.0365 21.5393 27.5888 21.9945 27.0325L22.0629 26.9486L22.1224 26.8585L26.3451 20.4209V33.0456C26.3451 34.38 26.8004 35.6025 27.7285 36.5852L27.7684 36.6278L27.811 36.6682C28.8238 37.6247 30.094 38.0515 31.4478 38.0515C32.7992 38.0515 34.0809 37.6244 35.0779 36.6274L35.0988 36.6065L35.1187 36.5852C36.0468 35.6025 36.5025 34.38 36.5025 33.0456V5.00583C36.5025 3.58937 35.9752 2.30932 34.8986 1.34597C33.9344 0.483317 32.7608 -6.10352e-05 31.4478 -6.10352e-05C29.7367 -6.10352e-05 28.3494 0.825072 27.3968 2.17881L27.3831 2.19834L27.3697 2.21832L18.2387 15.8598L9.39054 2.2414L9.38428 2.23119L9.37721 2.22139C8.89036 1.4913 8.21501 0.981605 7.47225 0.631638L7.47359 0.629012C7.4633 0.623558 7.4515 0.621134 7.44118 0.61569C7.40359 0.598266 7.36812 0.575905 7.33019 0.55931L7.32575 0.569521C6.64424 0.228471 5.90146 -5.42924e-05 5.10335 -5.42924e-05ZM5.10335 4.10374C5.15361 4.10374 5.29179 4.11638 5.54197 4.2498L5.61211 4.28753L5.68536 4.3195C5.80446 4.37162 5.87447 4.4179 5.91222 4.4478C5.94797 4.47618 5.9594 4.49353 5.96238 4.49797L8.39696 8.24483L5.77948 7.63752L4.52001 10.2044L4.10449 11.0519V5.00583C4.10449 4.76379 4.17231 4.59193 4.35842 4.39763C4.58516 4.19067 4.80296 4.10374 5.10335 4.10374ZM31.4477 4.10374C31.6844 4.10374 31.8993 4.1696 32.162 4.40474C32.3121 4.53897 32.3982 4.67899 32.3982 5.00583V9.05369L30.7468 8.67279L28.8582 8.23684L28.357 8.12097L30.7548 4.53881C31.0279 4.15176 31.2223 4.10374 31.4477 4.10374ZM121.74 6.34964C121.748 6.54066 121.701 6.71847 121.586 6.84908C121.736 6.83203 121.884 6.80223 122.032 6.77539C121.979 6.69759 121.923 6.60914 121.88 6.54542C121.834 6.47948 121.786 6.41559 121.74 6.34964ZM112.98 6.9503C112.779 7.05692 112.573 7.14935 112.376 7.26949C112.375 7.27005 112.374 7.27026 112.373 7.27087C112.371 7.27218 112.369 7.27309 112.366 7.2744C112.151 7.40438 111.959 7.56016 111.753 7.70014C111.919 7.6208 112.083 7.54091 112.255 7.46973C112.485 7.39933 112.712 7.31822 112.944 7.25842C112.951 7.20384 112.951 7.14917 112.959 7.0946C112.965 7.04645 112.973 6.99835 112.98 6.9503ZM53.9343 7.5545C51.4322 7.5545 49.0625 8.20422 46.8565 9.47544C44.6131 10.7684 42.8145 12.6213 41.4555 14.9719L41.4502 14.9812C40.0729 17.3914 39.4365 20.2308 39.4365 23.4085C39.4365 26.1971 40.037 28.7667 41.2819 31.0678L41.2882 31.0789L41.2944 31.0905C42.5768 33.391 44.3934 35.221 46.7052 36.5634L46.7221 36.5732L46.7394 36.5825C49.1287 37.9098 51.8729 38.5358 54.903 38.5358C56.7406 38.5358 58.53 38.241 60.2618 37.6515L60.28 37.6452L60.2983 37.6386C61.9195 37.0522 63.3184 36.3322 64.4016 35.4313L64.4034 35.4339C64.4111 35.4279 64.417 35.42 64.4247 35.4139C64.4361 35.4044 64.4499 35.3964 64.4611 35.3869L64.458 35.3833C65.6568 34.4219 66.5436 33.1106 66.5436 31.4473C66.5436 30.2464 66.0736 29.1911 65.2615 28.3557L65.2651 28.3522C65.2576 28.3442 65.2486 28.3392 65.2411 28.3313C65.2319 28.3219 65.2255 28.3109 65.2162 28.3016L65.2118 28.306C64.6102 27.6818 63.8835 27.2908 63.0898 27.1069H63.2323C64.4744 27.1069 65.6204 26.7044 66.58 25.9048C67.6186 25.0393 68.1811 23.862 68.2368 22.525L68.2386 22.4824V22.4398C68.2386 20.4346 67.8474 18.5193 67.0622 16.7121L67.064 16.7112C67.0608 16.7034 67.0566 16.6963 67.0534 16.6885C67.0518 16.685 67.0509 16.6814 67.0493 16.6779C66.3115 14.9221 65.2943 13.3641 63.9958 12.0232L63.9967 12.0223C63.9934 12.019 63.9901 12.016 63.9869 12.0125C63.9835 12.0091 63.9805 12.0054 63.9771 12.0019L63.9762 12.0028C62.6746 10.6321 61.1626 9.54902 59.4506 8.7651C59.448 8.76389 59.4457 8.76229 59.4431 8.76108C59.4405 8.75987 59.4382 8.75825 59.4355 8.75704C57.7085 7.95442 55.8665 7.5545 53.9343 7.5545ZM83.9519 7.5545C81.4497 7.5545 79.0797 8.20422 76.8736 9.47544C74.6302 10.7684 72.8316 12.6213 71.4726 14.9719L71.4678 14.9812C70.0905 17.3914 69.4541 20.2308 69.4541 23.4085C69.4541 26.1971 70.0543 28.7667 71.2991 31.0678L71.3054 31.0789L71.3116 31.0905C72.5938 33.391 74.411 35.221 76.7228 36.5634L76.7397 36.5732L76.7566 36.5825C79.1459 37.9098 81.8901 38.5358 84.9202 38.5358C86.7577 38.5358 88.5473 38.241 90.279 37.6515L90.2977 37.6452L90.3159 37.6386C91.9371 37.0522 93.336 36.3322 94.4192 35.4313L94.4211 35.4339C94.4287 35.4279 94.4347 35.42 94.4424 35.4139C94.4537 35.4044 94.4675 35.3964 94.4788 35.3869L94.4756 35.3833C95.6744 34.422 96.5611 33.1107 96.5611 31.4474C96.5611 30.2465 96.0906 29.1912 95.2786 28.3558L95.2826 28.3523C95.2746 28.3437 95.2649 28.3386 95.2569 28.3301C95.2481 28.3212 95.2422 28.3105 95.2333 28.3017L95.2293 28.3057C94.6276 27.6814 93.9007 27.2909 93.1068 27.107H93.2498C94.4919 27.107 95.638 26.7045 96.5975 25.9048C97.6361 25.0393 98.1982 23.8621 98.2539 22.5251L98.2561 22.4825V22.4399C98.2561 20.4346 97.8648 18.5191 97.0797 16.7117L97.081 16.7113C97.0784 16.7052 97.0751 16.6996 97.0725 16.6935C97.0703 16.6884 97.0689 16.6831 97.0667 16.678L97.0654 16.6784C96.3286 14.9218 95.312 13.3641 94.0133 12.0232L94.0142 12.0223C94.011 12.0189 94.0072 12.016 94.004 12.0125C94.0007 12.0091 93.9979 12.0053 93.9947 12.0019L93.9938 12.0028C92.6917 10.6321 91.1802 9.54903 89.4683 8.76511C89.465 8.7636 89.4621 8.7617 89.4589 8.76019C89.4568 8.75922 89.4548 8.75807 89.4527 8.75706C87.7251 7.95453 85.8838 7.5545 83.9519 7.5545ZM9.67373 10.2102L15.7553 19.5698L15.3114 20.233L14.926 20.8088L9.67373 12.5045V10.2102ZM26.3451 11.1269V12.9382L21.3192 20.6006L21.1585 20.3533L20.6711 19.6035L26.3451 11.1269ZM32.3982 11.1926V33.0456C32.3982 33.374 32.3085 33.5663 32.1536 33.7395C32.0509 33.8369 31.8823 33.9477 31.4477 33.9477C31.0312 33.9477 30.8262 33.841 30.6779 33.7151C30.5354 33.5474 30.4489 33.3599 30.4489 33.0456V14.1644L32.0013 11.7977L32.3982 11.1926ZM4.10449 11.3764L4.62834 12.2048L5.56949 13.6929V33.0456C5.56949 33.409 5.47282 33.616 5.32932 33.7861C5.2477 33.8679 5.13409 33.9477 4.81257 33.9477C4.54564 33.9477 4.43913 33.881 4.3451 33.787C4.20125 33.6167 4.10449 33.4096 4.10449 33.0456V11.3764ZM53.9343 11.6587C55.2893 11.6587 56.5421 11.9355 57.7158 12.4831L57.7234 12.4867L57.7313 12.4902C58.9743 13.0578 60.0653 13.8386 61.0152 14.8427L61.025 14.8529L61.0348 14.8627C61.9463 15.8003 62.6703 16.897 63.2145 18.1603H61.7096C61.4638 17.4172 61.0951 16.7209 60.5841 16.0924L60.5867 16.0902C60.58 16.0816 60.5721 16.0743 60.5654 16.0658C60.5607 16.06 60.5572 16.0537 60.5525 16.048L60.5507 16.0493C59.7822 15.0811 58.8154 14.3308 57.6865 13.7928L57.6878 13.7901C57.6754 13.7838 57.6624 13.7796 57.6501 13.7733C57.6354 13.7663 57.6222 13.7575 57.6074 13.7506L57.6061 13.7538C56.4595 13.1749 55.2271 12.8819 53.9343 12.8819C52.7821 12.8819 51.6728 13.0357 50.6189 13.36C49.4638 13.7154 48.4452 14.3248 47.5921 15.1779C46.7741 15.996 46.1832 17.0191 45.7569 18.1603H44.4712C44.6346 17.7626 44.8091 17.3759 45.0124 17.0198C46.0418 15.2414 47.3412 13.9324 48.9053 13.031C50.5089 12.107 52.1749 11.6587 53.9343 11.6587ZM83.9519 11.6587C85.3068 11.6587 86.5593 11.9355 87.7329 12.4831L87.7409 12.4867L87.7485 12.4902C88.9915 13.0578 90.0829 13.8386 91.0327 14.8427L91.0425 14.8529L91.0523 14.8627C91.9639 15.8003 92.6878 16.897 93.2321 18.1603H91.7266C91.481 17.4172 91.1127 16.7209 90.6017 16.0924L90.6043 16.0902C90.5976 16.0816 90.5897 16.0743 90.583 16.0658C90.5782 16.06 90.5748 16.0537 90.5701 16.048L90.5683 16.0493C89.7998 15.0813 88.8327 14.3308 87.704 13.7928L87.7053 13.7901C87.692 13.7833 87.6781 13.7787 87.6649 13.7719C87.651 13.7654 87.6384 13.7571 87.6245 13.7506L87.6232 13.7537C86.4765 13.175 85.2443 12.8818 83.9518 12.8818C82.7995 12.8818 81.6902 13.0356 80.6364 13.36C79.4812 13.7154 78.4627 14.3248 77.6096 15.1779C76.7915 15.996 76.2007 17.019 75.7743 18.1603H74.4887C74.6517 17.7635 74.8254 17.3778 75.0281 17.0225C76.0579 15.2426 77.3577 13.9328 78.9228 13.031C80.5263 12.1069 82.1925 11.6587 83.9519 11.6587ZM53.9343 16.9856C54.6129 16.9856 55.2244 17.1355 55.7984 17.4331L55.8384 17.454L55.8792 17.4726C56.2816 17.6595 56.6046 17.8983 56.8954 18.1603H50.4329C50.4537 18.1381 50.4734 18.1003 50.4942 18.0795C50.8679 17.7058 51.3024 17.4437 51.826 17.2826C52.4509 17.0903 53.1495 16.9856 53.9343 16.9856ZM83.9519 16.9856C84.6305 16.9856 85.2419 17.1355 85.816 17.4331L85.8559 17.454L85.8963 17.4726C86.2988 17.6595 86.6222 17.8983 86.9129 18.1603H80.4505C80.4712 18.1381 80.491 18.1003 80.5117 18.0795C80.8855 17.7058 81.3194 17.4437 81.8431 17.2826C82.468 17.0903 83.167 16.9856 83.9519 16.9856ZM63.9314 20.3689C64.0609 21.017 64.1274 21.6862 64.1312 22.3782C64.1187 22.5686 64.0703 22.6541 63.9527 22.752C63.75 22.9209 63.5397 23.0028 63.2322 23.0028H61.0342L61.3681 22.6991L62.4335 21.7304L63.9314 20.3689ZM93.9485 20.3693C94.078 21.0173 94.1449 21.6863 94.1487 22.3782C94.1363 22.5686 94.0878 22.6541 93.9703 22.752C93.7676 22.9209 93.5572 23.0028 93.2498 23.0028H91.0518L91.3857 22.6991L92.4511 21.7304L93.9485 20.3693ZM49.1553 22.2645H57.936V23.0028H49.1104C49.1107 22.7209 49.1429 22.5176 49.1553 22.2645ZM79.1728 22.2645H87.9531V23.0028H79.128C79.1283 22.7209 79.1605 22.5176 79.1728 22.2645ZM16.5713 23.4103L16.9344 23.425L19.3557 23.5218L19.4018 23.5236L18.7901 24.4563C18.6785 24.5872 18.5238 24.7288 18.2742 24.8714L18.2454 24.8878L18.2169 24.9056C18.1647 24.9378 18.1382 24.9444 18.1357 24.9451C18.1369 24.945 18.1363 24.9458 18.1312 24.9455L17.9794 24.9344L17.856 24.9442C17.8423 24.9406 17.7893 24.9168 17.7326 24.8883C17.5229 24.756 17.3656 24.6139 17.2393 24.467L16.5713 23.4103ZM125.734 26.5383C125.734 26.5412 125.734 26.5437 125.734 26.5463C125.734 26.5495 125.735 26.549 125.735 26.5521C125.735 26.55 125.735 26.5479 125.735 26.5458C125.734 26.5433 125.734 26.5409 125.734 26.5383ZM44.081 27.107H44.7331H45.6996C45.8801 27.5897 46.0895 28.0592 46.3473 28.5046L46.3633 28.5325L46.3802 28.5596C47.2876 30.0195 48.4647 31.1902 49.9139 32.0184L49.9437 32.0352L49.9739 32.0516C51.4259 32.818 52.9809 33.209 54.6122 33.209C55.8909 33.209 57.0488 33.108 58.0097 32.8459C58.8251 32.6235 59.5934 32.3336 60.24 31.9358L60.2573 31.9251L60.2742 31.9145C60.6813 31.6527 61.0236 31.4495 61.317 31.2881C61.6681 31.1167 61.8983 31.0781 62.0216 31.0781C62.1403 31.0781 62.1905 31.0973 62.2009 31.1016C62.2081 31.1045 62.2274 31.1126 62.2648 31.1527L62.2893 31.1784L62.3141 31.2033C62.3928 31.2818 62.4166 31.3309 62.4238 31.3475C62.4298 31.3618 62.4393 31.3881 62.4393 31.4474C62.4393 31.5005 62.4473 31.7515 61.8679 32.2066L61.8386 32.2297L61.8102 32.2536C61.2255 32.7484 60.2949 33.2721 58.9224 33.7706C57.6245 34.2104 56.2881 34.4316 54.9029 34.4316C52.4525 34.4316 50.4245 33.9299 48.749 33.003C47.0703 32.0243 45.7957 30.73 44.8863 29.103C44.5495 28.4786 44.2931 27.8062 44.081 27.107ZM50.3792 27.107H60.9184C60.4121 27.2196 59.9218 27.3943 59.4574 27.6264L59.4249 27.6429L59.3926 27.6606C58.9935 27.8783 58.5563 28.1424 58.0896 28.4415C57.8967 28.5602 57.5345 28.7217 56.9296 28.8868C56.4698 29.0121 55.7224 29.1048 54.6122 29.1048C53.6722 29.1048 52.784 28.8858 51.9215 28.4366C51.3489 28.1048 50.8352 27.6659 50.3792 27.107ZM74.0986 27.107H74.7507H75.7172C75.8977 27.5897 76.1066 28.0592 76.3644 28.5046L76.3809 28.5325L76.3977 28.5596C77.3052 30.0195 78.4817 31.1902 79.9311 32.0184L79.9608 32.0352L79.9914 32.0516C81.4436 32.818 82.9986 33.209 84.6297 33.209C85.9085 33.209 87.0661 33.108 88.0268 32.8459C88.8424 32.6235 89.6106 32.3336 90.2572 31.9358L90.2745 31.9251L90.2918 31.9145C90.6989 31.6527 91.041 31.4495 91.3346 31.2881C91.6857 31.1167 91.916 31.0781 92.0391 31.0781C92.158 31.0781 92.2081 31.0973 92.2185 31.1016C92.2257 31.1045 92.2449 31.1126 92.2824 31.1527L92.3064 31.1784L92.3317 31.2033C92.4103 31.2818 92.4343 31.3309 92.4413 31.3475C92.4475 31.3618 92.4569 31.3881 92.4569 31.4474C92.4569 31.5005 92.4643 31.7515 91.8851 32.2066L91.8558 32.2297L91.8274 32.2536C91.2426 32.7484 90.3125 33.2721 88.94 33.7706C87.6421 34.2104 86.3052 34.4316 84.9201 34.4316C82.4697 34.4316 80.4421 33.9299 78.7666 33.003C77.088 32.0243 75.8129 30.73 74.9034 29.103C74.5667 28.4786 74.3107 27.8062 74.0986 27.107ZM80.3968 27.107H90.9355C90.4293 27.2196 89.9392 27.3943 89.4749 27.6264L89.4421 27.6429L89.4101 27.6606C89.0109 27.8784 88.5739 28.1428 88.1071 28.442L88.1063 28.4406C87.9134 28.5593 87.5521 28.7218 86.9471 28.8868C86.4873 29.0121 85.7401 29.1048 84.6297 29.1048C83.6898 29.1048 82.8015 28.8858 81.939 28.4366C81.3664 28.1048 80.8527 27.6659 80.3968 27.107Z" fill="white"/>
</g>
<path d="M100.958 18.2293C101.595 32.3805 113.392 37.002 116.623 50.2085C125.045 30.9466 131.791 31.5466 131.791 21.9816C131.841 16.0901 128.461 16.658 124.245 16.658C119.085 16.658 116.288 16.8159 116.288 20.7679C116.288 23.4453 118.702 24.4318 120.074 24.4144C122.694 24.381 120.876 24.4153 123.635 24.4153L123.661 28.8783C122.413 29.2236 120.714 29.4036 118.783 29.4036C116.291 29.4036 108.987 27.5292 108.987 19.803C108.987 12.7785 114.391 8.70695 119.254 8.77218C121.282 8.79938 123.719 9.70197 124.637 9.95335C126.432 10.4449 128.177 9.99023 129.029 8.51572C129.361 7.94003 130.534 5.65182 128.969 4.08745C127.033 2.15078 122.58 0.593046 116.989 1.25474C108.604 2.24708 100.958 9.06515 100.958 18.2293Z" stroke="url(#paint0_linear_406_1961)" stroke-width="2.04568" stroke-linecap="round" stroke-linejoin="round"/>
<path d="M149.738 30.1664C153.272 30.1664 156.137 26.9782 156.137 23.0454C156.137 19.1125 153.272 15.9243 149.738 15.9243C146.204 15.9243 143.339 19.1125 143.339 23.0454C143.339 26.9782 146.204 30.1664 149.738 30.1664Z" stroke="url(#paint1_linear_406_1961)" stroke-width="2.06341" stroke-linecap="round" stroke-linejoin="round"/>
<path d="M149.773 37.5517C157.644 37.5517 164.024 31.0485 164.024 23.0265C164.024 15.0044 157.644 8.50122 149.773 8.50122C141.902 8.50122 135.522 15.0044 135.522 23.0265C135.522 31.0485 141.902 37.5517 149.773 37.5517Z" stroke="url(#paint2_linear_406_1961)" stroke-width="1.95088" stroke-linecap="round" stroke-linejoin="round"/>
</g>
<defs>
<linearGradient id="paint0_linear_406_1961" x1="99.9347" y1="25.6511" x2="165" y2="25.6511" gradientUnits="userSpaceOnUse">
<stop stop-color="#00E45F"/>
<stop offset="1" stop-color="#3FCFFF"/>
</linearGradient>
<linearGradient id="paint1_linear_406_1961" x1="99.9347" y1="25.651" x2="165" y2="25.651" gradientUnits="userSpaceOnUse">
<stop stop-color="#00E45F"/>
<stop offset="1" stop-color="#3FCFFF"/>
</linearGradient>
<linearGradient id="paint2_linear_406_1961" x1="99.9345" y1="25.651" x2="165" y2="25.651" gradientUnits="userSpaceOnUse">
<stop stop-color="#00E45F"/>
<stop offset="1" stop-color="#3FCFFF"/>
</linearGradient>
<clipPath id="clip0_406_1961">
<rect width="165" height="51.2311" fill="white"/>
</clipPath>
</defs>
</svg>
