<svg width="62" height="56" viewBox="0 0 62 56" fill="none" xmlns="http://www.w3.org/2000/svg">
<path d="M6.33329 55.6667C4.63746 55.6667 3.18572 55.0629 1.97808 53.8553C0.770446 52.6477 0.166626 51.1959 0.166626 49.5001V12.5001C0.166626 10.8042 0.770446 9.35251 1.97808 8.14487C3.18572 6.93723 4.63746 6.33341 6.33329 6.33341H37.475C37.2694 7.36119 37.1666 8.38897 37.1666 9.41675C37.1666 10.4445 37.2694 11.4723 37.475 12.5001H6.33329L31 27.9167L42.2541 20.9022C42.9736 21.5702 43.7573 22.1483 44.6052 22.6365C45.4531 23.1247 46.3395 23.5487 47.2645 23.9084L31 34.0834L6.33329 18.6667V49.5001H55.6666V24.5251C56.8486 24.2681 57.9534 23.9084 58.9812 23.4459C60.009 22.9834 60.9597 22.4181 61.8333 21.7501V49.5001C61.8333 51.1959 61.2295 52.6477 60.0218 53.8553C58.8142 55.0629 57.3625 55.6667 55.6666 55.6667H6.33329ZM52.5833 18.6667C50.0138 18.6667 47.8298 17.7674 46.0312 15.9688C44.2326 14.1702 43.3333 11.9862 43.3333 9.41675C43.3333 6.8473 44.2326 4.66328 46.0312 2.86466C47.8298 1.06605 50.0138 0.166748 52.5833 0.166748C55.1527 0.166748 57.3368 1.06605 59.1354 2.86466C60.934 4.66328 61.8333 6.8473 61.8333 9.41675C61.8333 11.9862 60.934 14.1702 59.1354 15.9688C57.3368 17.7674 55.1527 18.6667 52.5833 18.6667Z" fill="url(#paint0_radial_972_1598)"/>
<defs>
<radialGradient id="paint0_radial_972_1598" cx="0" cy="0" r="1" gradientUnits="userSpaceOnUse" gradientTransform="translate(56.5001 1.50024) rotate(120.763) scale(24.4387 29.1359)">
<stop offset="0.740389" stop-color="#00FF6F"/>
<stop offset="0.743483" stop-color="white"/>
</radialGradient>
</defs>
</svg>
